<?xml version="1.0" standalone="no"?><!DOCTYPE svg PUBLIC "-//W3C//DTD SVG 1.1//EN" "http://www.w3.org/Graphics/SVG/1.1/DTD/svg11.dtd" ><svg xmlns="http://www.w3.org/2000/svg"><metadata></metadata><defs><font id="BudBold_VN" horiz-adv-x="1144"><font-face font-family="Bud Bold_VN" font-weight="700" font-stretch="normal" units-per-em="1000" panose-1="2 0 5 6 0 0 0 2 0 4" ascent="1016" descent="-237" x-height="4" bbox="-181 -237 1094 1025" underline-thickness="53" underline-position="-78" unicode-range="U+0000-fb02" /><missing-glyph horiz-adv-x="282"  /><glyph glyph-name=".null" unicode="" d="" /><glyph glyph-name="nonmarkingreturn" unicode="" d="" /><glyph glyph-name=".null" unicode="" d="" /><glyph glyph-name="space" unicode=" " d="" /><glyph glyph-name="exclam" unicode="!" d="M85 750 l194 0 l-50 -510 l-94 0 l-50 510 ZM104 150 l155 0 l0 -150 l-155 0 l0 150 Z" /><glyph glyph-name="quotedbl" unicode="&quot;" d="M70 750 l119 0 l0 -138 l-15 -185 l-89 0 l-15 184 l0 139 ZM277 750 l119 0 l0 -138 l-15 -185 l-89 0 l-15 184 l0 139 Z" /><glyph glyph-name="numbersign" unicode="#" d="M536 243 l-101 0 l-34 -243 l-81 0 l34 243 l-116 0 l-34 -243 l-81 0 l34 243 l-107 0 l0 70 l116 0 l22 155 l-106 0 l0 70 l116 0 l29 212 l81 0 l-29 -212 l116 0 l29 212 l81 0 l-29 -212 l90 0 l0 -70 l-100 0 l-21 -155 l91 0 l0 -70 ZM248 313 l116 0 l21 155 l-116 0 l-21 -155 Z" /><glyph glyph-name="dollar" unicode="$" d="M166 246 q1 -75 24 -106 q23 -31 63 -31 q38 0 55 21.5 q17 21.5 17 56.5 q0 29 -20.5 52 q-20.5 23 -51 46 q-30.5 23 -66 47 q-35.5 24 -66 55 q-30.5 31 -51 70.5 q-20.5 39.5 -20.5 92.5 q0 81 47 131 q47 50 128 58 l0 103 l64 0 l0 -103 q41 -3 73.5 -17 q32.5 -14 55 -41 q22.5 -27 33.5 -67.5 q11 -40.5 9 -97.5 l-132 0 q0 65 -17.5 94.5 q-17.5 29.5 -52.5 29.5 q-23 0 -41 -16 q-18 -16 -18 -48 q0 -31 20.5 -55 q20.5 -24 51.5 -47.5 q31 -23.5 67 -48 q36 -24.5 67 -54.5 q31 -30 51.5 -69 q20.5 -39 20.5 -91 q0 -38 -10 -72 q-10 -34 -32 -61.5 q-22 -27.5 -58 -45.5 q-36 -18 -88 -23 l0 -104 l-64 0 l0 104 q-47 4 -84.5 20 q-37.5 16 -63 45.5 q-25.5 29.5 -38 72 q-12.5 42.5 -10.5 99.5 l137 0 Z" /><glyph glyph-name="percent" unicode="%" d="M50 628 q0 60 32 96 q32 36 110 36 q78 0 110.5 -36 q32.5 -36 32.5 -96 l0 -154 q0 -63 -32.5 -100.5 q-32.5 -37.5 -110.5 -37.5 q-78 0 -110 37.5 q-32 37.5 -32 100.5 l0 154 ZM155 458 q0 -23 8.5 -36.5 q8.5 -13.5 28.5 -13.5 q20 0 28.5 13.5 q8.5 13.5 8.5 36.5 l0 181 q0 50 -37 50 q-37 0 -37 -50 l0 -181 ZM213 -24 l-70 0 l442 798 l70 0 l-442 -798 ZM464 280 q0 60 32 96 q32 36 110 36 q78 0 110.5 -36 q32.5 -36 32.5 -96 l0 -154 q0 -63 -32.5 -100.5 q-32.5 -37.5 -110.5 -37.5 q-78 0 -110 37.5 q-32 37.5 -32 100.5 l0 154 ZM569 110 q0 -23 8.5 -36.5 q8.5 -13.5 28.5 -13.5 q20 0 28.5 13.5 q8.5 13.5 8.5 36.5 l0 181 q0 50 -37 50 q-37 0 -37 -50 l0 -181 Z" /><glyph glyph-name="ampersand" unicode="&amp;" d="M640 0 l-80 0 q-32 0 -61 8.5 q-29 8.5 -56 35.5 q-34 -26 -80 -41 q-46 -15 -107 -15 q-59 0 -100.5 13.5 q-41.5 13.5 -68 38.5 q-26.5 25 -39 60.5 q-12.5 35.5 -12.5 78.5 q0 38 9.5 68.5 q9.5 30.5 27 56 q17.5 25.5 42.5 48.5 q25 23 56 47 q-39 52 -57.5 93.5 q-18.5 41.5 -18.5 91.5 q0 84 49.5 132 q49.5 48 143.5 48 q98 0 142.5 -44 q44.5 -44 44.5 -118 q0 -35 -10 -63 q-10 -28 -28 -52 q-18 -24 -43 -46 q-25 -22 -55 -46 l122 -159 q5 15 6.5 31 q1.5 16 1.5 38 l0 92 l120 0 l0 -88 q0 -48 -11 -89 q-11 -41 -41 -83 q20 -21 36.5 -26.5 q16.5 -5.5 43.5 -5.5 l23 0 l0 -105 ZM237 311 q-29 -31 -38.5 -57.5 q-9.5 -26.5 -9.5 -63.5 q0 -20 5.5 -37.5 q5.5 -17.5 17 -31.5 q11.5 -14 30 -22 q18.5 -8 45.5 -8 q31 0 53.5 7.5 q22.5 7.5 40.5 21.5 l-144 191 ZM345 600 q0 67 -56 67 q-29 0 -43.5 -20 q-14.5 -20 -14.5 -54 q0 -31 10.5 -56 q10.5 -25 34.5 -57 q38 32 53.5 58.5 q15.5 26.5 15.5 61.5 Z" /><glyph glyph-name="quotesingle" unicode="&#39;" d="M70 750 l119 0 l0 -138 l-15 -185 l-89 0 l-15 184 l0 139 Z" /><glyph glyph-name="parenleft" unicode="(" d="M192 -97 q-44 98 -73 202.5 q-29 104.5 -29 221.5 q0 61 8.5 119.5 q8.5 58.5 23.5 113.5 q15 55 34.5 106.5 q19.5 51.5 41.5 98.5 l109 0 q-41 -109 -62.5 -215 q-21.5 -106 -21.5 -223 q0 -106 20.5 -213.5 q20.5 -107.5 63.5 -210.5 l-115 0 Z" /><glyph glyph-name="parenright" unicode=")" d="M50 -97 q43 103 63.5 210.5 q20.5 107.5 20.5 213.5 q0 117 -21.5 223 q-21.5 106 -62.5 215 l109 0 q22 -47 41.5 -98.5 q19.5 -51.5 34.5 -106.5 q15 -55 23.5 -113.5 q8.5 -58.5 8.5 -119.5 q0 -117 -29.5 -221.5 q-29.5 -104.5 -72.5 -202.5 l-115 0 Z" /><glyph glyph-name="asterisk" unicode="*" d="M227 601 l96 60 l38 13 l32 -96 l-38 -12 l-114 -7 l87 -72 l24 -32 l-82 -60 l-23 32 l-41 105 l-41 -104 l-23 -32 l-82 59 l23 32 l88 72 l-114 7 l-37 12 l31 96 l37 -12 l96 -61 l-29 110 l0 39 l101 0 l0 -39 l-29 -110 Z" /><glyph glyph-name="plus" unicode="+" d="M255 543 l122 0 l0 -208 l207 0 l0 -123 l-207 0 l0 -212 l-122 0 l0 212 l-208 0 l0 123 l208 0 l0 208 Z" /><glyph glyph-name="comma" unicode="," d="M204 149 l0 -116 q0 -29 -7 -47 q-7 -18 -17 -38 q-9 -18 -16 -32 q-7 -14 -12 -23 q-6 -11 -10 -19 l-90 0 l61 126 l-63 0 l0 149 l154 0 Z" /><glyph glyph-name="hyphen" unicode="-" d="M29 339 l253 0 l0 -121 l-253 0 l0 121 Z" /><glyph glyph-name="period" unicode="." d="M50 148 l154 0 l0 -148 l-154 0 l0 148 Z" /><glyph glyph-name="slash" unicode="/" d="M283 765 l122 0 l-316 -780 l-122 0 l316 780 Z" /><glyph glyph-name="zero" unicode="0" d="M47 532 q0 53 12.5 96 q12.5 43 39.5 73.5 q27 30.5 70.5 47 q43.5 16.5 106.5 16.5 q63 0 106.5 -16.5 q43.5 -16.5 70.5 -47 q27 -30.5 39.5 -73.5 q12.5 -43 12.5 -96 l0 -302 q0 -56 -12.5 -101 q-12.5 -45 -39.5 -77 q-27 -32 -70.5 -49.5 q-43.5 -17.5 -106.5 -17.5 q-63 0 -106.5 17.5 q-43.5 17.5 -70.5 49.5 q-27 32 -39.5 77 q-12.5 45 -12.5 101 l0 302 ZM205 191 q0 -45 16.5 -72.5 q16.5 -27.5 54.5 -27.5 q38 0 54.5 27.5 q16.5 27.5 16.5 72.5 l0 369 q0 48 -17.5 73.5 q-17.5 25.5 -53.5 25.5 q-36 0 -53.5 -25.5 q-17.5 -25.5 -17.5 -73.5 l0 -369 Z" /><glyph glyph-name="one" unicode="1" d="M119 580 l-97 -72 l0 144 l121 98 l132 0 l0 -750 l-156 0 l0 580 Z" /><glyph glyph-name="two" unicode="2" d="M32 0 l0 73 q0 57 21 105 q21 48 53 90 q32 42 68.5 79 q36.5 37 68.5 72 q32 35 53 69 q21 34 21 70 l0 25 q0 34 -14.5 54 q-14.5 20 -48.5 20 q-34 0 -51.5 -24 q-17.5 -24 -17.5 -83 q0 -19 1 -32.5 q1 -13.5 2 -23.5 l-146 0 q-3 28 -3 55 q0 116 55.5 165.5 q55.5 49.5 160.5 49.5 q60 0 102 -12 q42 -12 68 -35.5 q26 -23.5 38 -56.5 q12 -33 12 -75 l0 -28 q0 -47 -17.5 -86 q-17.5 -39 -45 -74 q-27.5 -35 -61.5 -67 q-34 -32 -67.5 -64 q-33.5 -32 -63.5 -64.5 q-30 -32.5 -48 -69.5 l0 -6 l298 0 l0 -126 l-438 0 Z" /><glyph glyph-name="three" unicode="3" d="M195 443 l26 0 q27 0 43.5 7 q16.5 7 26 20 q9.5 13 13 31.5 q3.5 18.5 3.5 40.5 l0 33 q0 40 -13.5 63 q-13.5 23 -48.5 23 q-32 0 -48.5 -24.5 q-16.5 -24.5 -16.5 -83.5 l0 -28 q0 -9 1 -18 l-145 0 q-1 9 -1 19 q-1 8 -1 16.5 q0 8.5 0 14.5 q0 50 11.5 89 q11.5 39 37 65.5 q25.5 26.5 66 40 q40.5 13.5 98.5 13.5 q118 0 168.5 -46 q50.5 -46 50.5 -144 l0 -15 q0 -68 -27 -105.5 q-27 -37.5 -80 -54.5 q55 -14 88 -54 q33 -40 33 -123 l0 -22 q0 -60 -16.5 -101 q-16.5 -41 -46.5 -66.5 q-30 -25.5 -72 -37 q-42 -11.5 -92 -11.5 q-62 0 -104.5 14 q-42.5 14 -69 43 q-26.5 29 -38 72 q-11.5 43 -11.5 102 l0 26 q0 7 1 13 l151 0 q-1 -7 -1 -15 l0 -29 q0 -61 15.5 -90.5 q15.5 -29.5 53.5 -29.5 q40 0 54.5 25.5 q14.5 25.5 14.5 70.5 l0 31 q0 23 -3.5 43.5 q-3.5 20.5 -13 36 q-9.5 15.5 -28.5 24.5 q-19 9 -50 9 l-29 0 l0 112 Z" /><glyph glyph-name="four" unicode="4" d="M281 567 l-8 0 l-114 -296 l0 -24 l122 0 l0 320 ZM281 137 l-247 0 l0 150 l181 463 l214 0 l0 -503 l80 0 l0 -110 l-81 0 l0 -137 l-147 0 l0 137 Z" /><glyph glyph-name="five" unicode="5" d="M52 750 l399 0 l0 -126 l-258 0 l0 -185 q7 9 19 18.5 q12 9.5 27.5 17.5 q15.5 8 35 13 q19.5 5 42.5 5 q51 0 83 -15.5 q32 -15.5 50.5 -44 q18.5 -28.5 25.5 -67.5 q7 -39 7 -87 l0 -67 q0 -116 -58 -171.5 q-58 -55.5 -170 -55.5 q-112 0 -166 53 q-54 53 -54 173 l0 20 q0 5 1 11 l151 0 q-1 -8 -1 -16 l0 -34 q0 -54 18.5 -77.5 q18.5 -23.5 50.5 -23.5 q37 0 53.5 25 q16.5 25 16.5 70 l0 94 q0 48 -12 75.5 q-12 27.5 -52 27.5 q-17 0 -29.5 -6.5 q-12.5 -6.5 -20.5 -14.5 q-8 -8 -12.5 -15.5 q-4.5 -7.5 -5.5 -8.5 l-141 0 l0 412 Z" /><glyph glyph-name="six" unicode="6" d="M328 466 q50 0 82.5 -15 q32.5 -15 51 -44.5 q18.5 -29.5 26 -72.5 q7.5 -43 7.5 -98 q0 -62 -11.5 -108.5 q-11.5 -46.5 -38 -78.5 q-26.5 -32 -69.5 -48 q-43 -16 -106 -16 q-62 0 -104.5 17.5 q-42.5 17.5 -68.5 49.5 q-26 32 -38 77 q-12 45 -12 101 l0 302 q0 53 11.5 96 q11.5 43 38 73.5 q26.5 30.5 69 47 q42.5 16.5 104.5 16.5 q57 0 96.5 -13.5 q39.5 -13.5 64 -40.5 q24.5 -27 35 -67 q10.5 -40 10.5 -92 q0 -5 -0.5 -9.5 q-0.5 -4.5 -0.5 -8.5 q-1 -4 -1 -9 l-138 0 l0 11 q0 5 0.5 10 q0.5 5 0.5 10 q0 53 -15.5 78 q-15.5 25 -51.5 25 q-68 0 -68 -94 l0 -158 q23 29 57 44 q34 15 69 15 ZM270 91 q35 0 51.5 22.5 q16.5 22.5 16.5 64.5 l0 94 q0 40 -15.5 62.5 q-15.5 22.5 -50.5 22.5 q-32 0 -50 -20.5 q-18 -20.5 -20 -56.5 l0 -102 q0 -42 17 -64.5 q17 -22.5 51 -22.5 Z" /><glyph glyph-name="seven" unicode="7" d="M6 750 l401 0 l0 -152 q-28 -61 -56 -137 q-28 -76 -53 -156 q-25 -80 -45.5 -159 q-20.5 -79 -32.5 -146 l-166 0 q17 74 43.5 159.5 q26.5 85.5 56 168 q29.5 82.5 58 154.5 q28.5 72 49.5 118 l0 23 l-255 0 l0 127 Z" /><glyph glyph-name="eight" unicode="8" d="M264 -15 q-119 0 -171 55 q-52 55 -52 150 l0 49 q0 106 75 153 q-71 44 -71 148 l0 31 q0 97 53.5 145.5 q53.5 48.5 165.5 48.5 q112 0 165.5 -48.5 q53.5 -48.5 53.5 -145.5 l0 -31 q0 -104 -71 -148 q75 -47 75 -153 l0 -49 q0 -95 -52 -150 q-52 -55 -171 -55 ZM264 347 q-29 0 -48.5 -20 q-19.5 -20 -19.5 -55 l0 -109 q0 -32 17.5 -53.5 q17.5 -21.5 50.5 -21.5 q33 0 50.5 21.5 q17.5 21.5 17.5 53.5 l0 109 q0 35 -19.5 55 q-19.5 20 -48.5 20 ZM264 662 q-29 0 -46 -19.5 q-17 -19.5 -17 -54.5 l0 -73 q0 -32 15.5 -54 q15.5 -22 47.5 -22 q32 0 47.5 22 q15.5 22 15.5 54 l0 73 q0 35 -17 54.5 q-17 19.5 -46 19.5 Z" /><glyph glyph-name="nine" unicode="9" d="M207 279 q-49 0 -82 15.5 q-33 15.5 -52.5 45 q-19.5 29.5 -27.5 72 q-8 42.5 -8 96.5 q0 61 11.5 109 q11.5 48 37.5 81 q26 33 68.5 50 q42.5 17 105.5 17 q61 0 103.5 -15.5 q42.5 -15.5 69 -45 q26.5 -29.5 38 -73 q11.5 -43.5 11.5 -98.5 l0 -315 q0 -53 -12 -96 q-12 -43 -38.5 -73.5 q-26.5 -30.5 -69.5 -47 q-43 -16.5 -105 -16.5 q-63 0 -104 14 q-41 14 -65 41 q-24 27 -33.5 67.5 q-9.5 40.5 -9.5 93.5 l0 15 q0 4 1 7 l149 0 q-1 -5 -1 -10 l0 -19 q0 -50 14 -76.5 q14 -26.5 50 -26.5 q38 0 53 27.5 q15 27.5 15 77.5 l0 137 q-20 -27 -51 -40.5 q-31 -13.5 -68 -13.5 ZM326 566 q0 43 -15 68 q-15 25 -51 25 q-36 0 -51 -25 q-15 -25 -15 -68 l0 -96 q0 -40 15 -61.5 q15 -21.5 50 -21.5 q30 0 47.5 20 q17.5 20 19.5 55 l0 104 Z" /><glyph glyph-name="colon" unicode=":" d="M55 529 l154 0 l0 -149 l-154 0 l0 149 ZM55 149 l154 0 l0 -149 l-154 0 l0 149 Z" /><glyph glyph-name="semicolon" unicode=";" d="M209 149 l0 -116 q0 -29 -7 -47 q-7 -18 -17 -38 q-9 -18 -16 -32 q-7 -14 -12 -23 q-6 -11 -10 -19 l-90 0 l61 126 l-63 0 l0 149 l154 0 ZM55 529 l154 0 l0 -149 l-154 0 l0 149 Z" /><glyph glyph-name="less" unicode="&lt;" d="M579 -8 l-523 225 l0 99 l523 225 l0 -117 l-363 -158 l363 -157 l0 -117 Z" /><glyph glyph-name="equal" unicode="=" d="M585 323 l-539 0 l0 123 l539 0 l0 -123 ZM585 87 l-539 0 l0 123 l539 0 l0 -123 Z" /><glyph glyph-name="greater" unicode="&gt;" d="M56 109 l363 157 l-363 158 l0 117 l523 -225 l0 -99 l-523 -225 l0 117 Z" /><glyph glyph-name="question" unicode="?" d="M193 231 q-13 32 -13 64 q0 41 18.5 70.5 q18.5 29.5 41 56.5 q22.5 27 41 58 q18.5 31 18.5 75 l0 31 q0 34 -12 52.5 q-12 18.5 -43 18.5 q-36 0 -50 -25.5 q-14 -25.5 -14 -88.5 q0 -15 0.5 -27 q0.5 -12 1.5 -22 l-144 0 q-2 14 -3 34.5 q-1 20.5 -1 41.5 q0 96 51 145 q51 49 157 49 q60 0 101 -11.5 q41 -11.5 66.5 -33.5 q25.5 -22 36.5 -53.5 q11 -31.5 11 -71.5 l0 -38 q0 -35 -13.5 -66.5 q-13.5 -31.5 -34.5 -60 q-21 -28.5 -44.5 -55 q-23.5 -26.5 -44.5 -51 q-21 -24.5 -34.5 -47.5 q-13.5 -23 -13.5 -45 l-79 0 ZM157 150 l155 0 l0 -150 l-155 0 l0 150 Z" /><glyph glyph-name="at" unicode="@" d="M571 115 q-46 0 -70.5 15 q-24.5 15 -38.5 38 q-19 -20 -47 -35 q-28 -15 -67 -15 q-65 0 -98 39.5 q-33 39.5 -19 116.5 l20 108 q5 30 16.5 58.5 q11.5 28.5 30.5 50 q19 21.5 46.5 34.5 q27.5 13 65.5 13 q33 0 55.5 -10.5 q22.5 -10.5 36.5 -27.5 l48 29 l50 0 l-51 -291 q-4 -23 6.5 -36 q10.5 -13 33.5 -13 q26 0 46.5 17 q20.5 17 35 46 q14.5 29 22 67.5 q7.5 38.5 7.5 82.5 q0 43 -13 87.5 q-13 44.5 -44 81.5 q-31 37 -81.5 60.5 q-50.5 23.5 -126.5 23.5 q-67 0 -124 -25.5 q-57 -25.5 -98.5 -74 q-41.5 -48.5 -65 -117.5 q-23.5 -69 -23.5 -156 q0 -148 72 -224.5 q72 -76.5 211 -76.5 q36 0 66 5 q30 5 54.5 12 q24.5 7 42.5 15.5 q18 8.5 30 14.5 l25 -65 q-42 -23 -97 -36.5 q-55 -13.5 -125 -13.5 q-93 0 -160.5 27.5 q-67.5 27.5 -111.5 76.5 q-44 49 -65 116.5 q-21 67.5 -21 147.5 q0 96 28 177 q28 81 79.5 140 q51.5 59 123.5 92 q72 33 160 33 q86 0 150 -25 q64 -25 107 -68.5 q43 -43.5 64 -102.5 q21 -59 21 -126 q0 -73 -16.5 -126.5 q-16.5 -53.5 -44.5 -89 q-28 -35.5 -65.5 -53 q-37.5 -17.5 -80.5 -17.5 ZM471 432 q-2 11 -13.5 21 q-11.5 10 -30.5 10 q-22 0 -37 -18 q-15 -18 -21 -51 l-24 -135 q-6 -35 4 -50.5 q10 -15.5 31 -15.5 q17 0 32.5 10 q15.5 10 22.5 23 l36 206 Z" /><glyph glyph-name="A" unicode="a" d="M367 750 l153 -750 l-173 0 l-26 133 l-168 0 l-26 -133 l-121 0 l153 750 l208 0 ZM172 233 l130 0 l-64 336 l-66 -336 Z" /><glyph glyph-name="B" unicode="b" d="M427 395 q54 -22 84.5 -65.5 q30.5 -43.5 30.5 -112.5 q0 -114 -58 -165.5 q-58 -51.5 -159 -51.5 l-270 0 l0 750 l255 0 q108 0 163 -48.5 q55 -48.5 55 -147.5 q0 -61 -25.5 -98.5 q-25.5 -37.5 -75.5 -60.5 ZM276 103 q30 0 48.5 9 q18.5 9 29 24.5 q10.5 15.5 14.5 36 q4 20.5 4 44.5 q0 27 -4 49.5 q-4 22.5 -14 38 q-10 15.5 -28.5 24 q-18.5 8.5 -46.5 8.5 l-59 0 l0 -234 l56 0 ZM220 430 l47 0 q29 0 47 8 q18 8 28 22.5 q10 14.5 13.5 35 q3.5 20.5 3.5 46.5 q0 24 -3.5 44 q-3.5 20 -14 34 q-10.5 14 -29 22 q-18.5 8 -48.5 8 l-44 0 l0 -220 Z" /><glyph glyph-name="C" unicode="c" d="M509 249 l0 -8 q0 -4 0.5 -8 q0.5 -4 0.5 -9 q0 -51 -10.5 -94.5 q-10.5 -43.5 -36.5 -75.5 q-26 -32 -69.5 -50.5 q-43.5 -18.5 -109.5 -18.5 q-65 0 -111.5 16.5 q-46.5 16.5 -76 47 q-29.5 30.5 -43 74 q-13.5 43.5 -13.5 97.5 l0 303 q0 55 14 100 q14 45 43.5 76.5 q29.5 31.5 75 48.5 q45.5 17 109.5 17 q65 0 108 -16.5 q43 -16.5 68.5 -47.5 q25.5 -31 35.5 -75.5 q10 -44.5 10 -100.5 q0 -6 -0.5 -13 q-0.5 -7 -0.5 -13 l0 -13 l-152 0 l0 14 q0 6 0.5 13.5 q0.5 7.5 0.5 15.5 q0 66 -17 98 q-17 32 -55 32 q-33 0 -50.5 -24.5 q-17.5 -24.5 -17.5 -69.5 l0 -375 q0 -56 21 -77.5 q21 -21.5 50 -21.5 q35 0 54.5 26.5 q19.5 26.5 19.5 91.5 q0 7 -0.5 14 q-0.5 7 -0.5 13 l0 13 l153 0 Z" /><glyph glyph-name="D" unicode="d" d="M55 0 l0 750 l233 0 q132 0 190.5 -60.5 q58.5 -60.5 58.5 -178.5 l0 -271 q0 -116 -58.5 -178 q-58.5 -62 -190.5 -62 l-233 0 ZM276 107 q50 0 70.5 28 q20.5 28 20.5 75 l0 335 q0 50 -20.5 76.5 q-20.5 26.5 -70.5 26.5 l-53 0 l0 -541 l53 0 Z" /><glyph glyph-name="E" unicode="e" d="M446 106 l0 -106 l-391 0 l0 750 l382 0 l0 -106 l-212 0 l0 -191 l176 0 l0 -106 l-176 0 l0 -241 l221 0 Z" /><glyph glyph-name="F" unicode="f" d="M55 750 l378 0 l0 -108 l-208 0 l0 -210 l185 0 l0 -108 l-185 0 l0 -324 l-170 0 l0 750 Z" /><glyph glyph-name="G" unicode="g" d="M297 392 l231 0 l0 -392 l-46 0 l-54 34 q-64 -49 -154 -49 q-122 0 -178 65.5 q-56 65.5 -56 178.5 l0 292 q0 55 15 100.5 q15 45.5 45.5 77 q30.5 31.5 77 49 q46.5 17.5 110.5 17.5 q67 0 113 -18 q46 -18 73.5 -53 q27.5 -35 39 -85.5 q11.5 -50.5 10.5 -116.5 l-161 0 q5 91 -14.5 129 q-19.5 38 -61.5 38 q-75 0 -75 -96 l0 -365 q0 -46 19 -74.5 q19 -28.5 65 -28.5 q24 0 42 6.5 q18 6.5 31 15.5 l0 171 l-72 0 l0 104 Z" /><glyph glyph-name="H" unicode="h" d="M55 750 l168 0 l0 -309 l155 0 l0 309 l168 0 l0 -750 l-168 0 l0 332 l-155 0 l0 -332 l-168 0 l0 750 Z" /><glyph glyph-name="I" unicode="i" d="M55 750 l170 0 l0 -750 l-170 0 l0 750 Z" /><glyph glyph-name="J" unicode="j" d="M14 102 q5 -1 14 -1.5 q9 -0.5 17 -0.5 q44 0 58.5 21 q14.5 21 14.5 58 l0 571 l170 0 l0 -540 q0 -53 -9.5 -94 q-9.5 -41 -33 -68.5 q-23.5 -27.5 -64.5 -41.5 q-41 -14 -104 -14 q-20 0 -36 1 q-16 1 -27 3 l0 106 Z" /><glyph glyph-name="K" unicode="k" d="M419 750 l132 0 l-159 -230 l167 -520 l-181 0 l-105 347 l-51 -74 l0 -273 l-167 0 l0 750 l167 0 l0 -311 l197 311 Z" /><glyph glyph-name="L" unicode="l" d="M55 750 l170 0 l0 -638 l188 0 l0 -112 l-358 0 l0 750 Z" /><glyph glyph-name="M" unicode="m" d="M694 0 l-141 0 l0 547 l-116 -547 l-129 0 l-116 537 l0 -537 l-137 0 l0 750 l217 0 l106 -490 l105 490 l211 0 l0 -750 Z" /><glyph glyph-name="N" unicode="n" d="M540 0 l-155 0 l-214 550 l0 -550 l-116 0 l0 750 l205 0 l165 -422 l0 422 l115 0 l0 -750 Z" /><glyph glyph-name="O" unicode="o" d="M40 539 q0 106 61.5 166 q61.5 60 188.5 60 q127 0 188 -59.5 q61 -59.5 61 -166.5 l0 -316 q0 -112 -61 -175 q-61 -63 -188 -63 q-128 0 -189 63 q-61 63 -61 175 l0 316 ZM367 558 q0 47 -19.5 74 q-19.5 27 -57.5 27 q-39 0 -58.5 -27 q-19.5 -27 -19.5 -74 l0 -364 q0 -103 78 -103 q77 0 77 103 l0 364 Z" /><glyph glyph-name="P" unicode="p" d="M223 300 l0 -300 l-168 0 l0 750 l258 0 q102 0 157 -56 q55 -56 55 -164 q0 -34 -9 -74.5 q-9 -40.5 -35.5 -75 q-26.5 -34.5 -75.5 -57.5 q-49 -23 -129 -23 l-53 0 ZM223 647 l0 -244 l37 0 q28 0 46.5 10.5 q18.5 10.5 29.5 28 q11 17.5 15.5 40.5 q4.5 23 4.5 48 q0 52 -20.5 84.5 q-20.5 32.5 -75.5 32.5 l-37 0 Z" /><glyph glyph-name="Q" unicode="q" d="M40 539 q0 106 61.5 166 q61.5 60 188.5 60 q127 0 188 -59.5 q61 -59.5 61 -166.5 l0 -316 q0 -81 -31.5 -136.5 q-31.5 -55.5 -97.5 -81.5 l122 -39 l-98 -79 l-263 115 q-68 29 -99.5 84 q-31.5 55 -31.5 137 l0 316 ZM367 558 q0 47 -19.5 74 q-19.5 27 -57.5 27 q-39 0 -58.5 -27 q-19.5 -27 -19.5 -74 l0 -364 q0 -103 78 -103 q77 0 77 103 l0 364 Z" /><glyph glyph-name="R" unicode="r" d="M543 0 l-170 0 l-87 320 l-65 0 l0 -320 l-166 0 l0 750 l266 0 q106 0 159.5 -52.5 q53.5 -52.5 53.5 -157.5 q0 -66 -22.5 -111.5 q-22.5 -45.5 -72.5 -73.5 l104 -355 ZM221 647 l0 -228 l49 0 q29 0 48 10 q19 10 30 26.5 q11 16.5 15.5 38.5 q4.5 22 4.5 46 q0 23 -4.5 42.5 q-4.5 19.5 -16 34 q-11.5 14.5 -31 22.5 q-19.5 8 -49.5 8 l-46 0 Z" /><glyph glyph-name="S" unicode="s" d="M156 238 q1 -80 25 -113.5 q24 -33.5 67 -33.5 q37 0 57 21 q20 21 20 59 q0 32 -21.5 58 q-21.5 26 -54.5 51 q-33 25 -70.5 51 q-37.5 26 -70.5 58.5 q-33 32.5 -54.5 74 q-21.5 41.5 -21.5 97.5 q0 96 59.5 150 q59.5 54 162.5 54 q51 0 92 -13 q41 -13 69 -41.5 q28 -28.5 42 -74 q14 -45.5 11 -111.5 l-140 0 q0 69 -18 101.5 q-18 32.5 -56 32.5 q-29 0 -46 -18.5 q-17 -18.5 -17 -51.5 q0 -33 22 -59.5 q22 -26.5 54.5 -51.5 q32.5 -25 70.5 -51 q38 -26 70.5 -58 q32.5 -32 54.5 -73 q22 -41 22 -95 q0 -43 -12 -82 q-12 -39 -39.5 -69 q-27.5 -30 -72.5 -47.5 q-45 -17.5 -111 -17.5 q-57 0 -102.5 15 q-45.5 15 -77 46.5 q-31.5 31.5 -47 79 q-15.5 47.5 -13.5 112.5 l146 0 Z" /><glyph glyph-name="T" unicode="t" d="M443 642 l-134 0 l0 -642 l-170 0 l0 642 l-134 0 l0 108 l438 0 l0 -108 Z" /><glyph glyph-name="U" unicode="u" d="M220 750 l0 -559 q0 -46 21 -72.5 q21 -26.5 62 -26.5 q42 0 62 26.5 q20 26.5 20 72.5 l0 559 l136 0 l0 -539 q0 -112 -63 -169 q-63 -57 -168 -57 q-64 0 -109.5 17 q-45.5 17 -74.5 47 q-29 30 -42.5 71.5 q-13.5 41.5 -13.5 90.5 l0 539 l170 0 Z" /><glyph glyph-name="V" unicode="v" d="M159 0 l-166 750 l173 0 l109 -527 l111 527 l121 0 l-166 -750 l-182 0 Z" /><glyph glyph-name="W" unicode="w" d="M550 284 l75 466 l108 0 l-128 -750 l-147 0 l-83 462 l-82 -462 l-151 0 l-130 750 l154 0 l75 -465 l81 465 l149 0 l79 -466 Z" /><glyph glyph-name="X" unicode="x" d="M512 0 l-189 0 l-93 249 l-93 -249 l-125 0 l156 375 l-152 375 l187 0 l81 -219 l81 219 l119 0 l-138 -342 l166 -408 Z" /><glyph glyph-name="Y" unicode="y" d="M180 750 l93 -318 l88 318 l128 0 l-158 -471 l0 -279 l-172 0 l0 279 l-161 471 l182 0 Z" /><glyph glyph-name="Z" unicode="z" d="M445 0 l-430 0 l0 103 l247 539 l-236 0 l0 108 l413 0 l0 -103 l-247 -540 l253 0 l0 -107 Z" /><glyph glyph-name="bracketleft" unicode="[" d="M75 765 l219 0 l0 -93 l-97 0 l0 -680 l97 0 l0 -93 l-219 0 l0 866 Z" /><glyph glyph-name="backslash" unicode="\" d="M405 -15 l-122 0 l-316 780 l122 0 l316 -780 Z" /><glyph glyph-name="bracketright" unicode="]" d="M259 -101 l-219 0 l0 93 l97 0 l0 680 l-97 0 l0 93 l219 0 l0 -866 Z" /><glyph glyph-name="asciicircum" unicode="^" d="M254 750 l112 0 l179 -367 l-113 0 l-122 260 l-123 -260 l-112 0 l179 367 Z" /><glyph glyph-name="underscore" unicode="_" d="M0 -132 l0 53 l526 0 l0 -53 l-526 0 Z" /><glyph glyph-name="grave" unicode="`" d="M122 737 l92 -152 l-99 0 l-140 152 l147 0 Z" /><glyph glyph-name="a" unicode="a" d="M223 450 q-23 0 -36 -15.5 q-13 -15.5 -13 -43.5 l0 -32 l-137 0 l0 21 q0 37 10.5 66.5 q10.5 29.5 33 50.5 q22.5 21 57.5 32.5 q35 11.5 84 11.5 q101 0 149 -42 q48 -42 48 -139 l0 -360 l-130 0 l-4 51 l-3 0 q-26 -35 -62.5 -49 q-36.5 -14 -74.5 -14 q-67 0 -95.5 37 q-28.5 37 -28.5 107 l0 8 q0 49 20 81.5 q20 32.5 54 53 q34 20.5 79.5 31 q45.5 10.5 96.5 15.5 l0 70 q0 28 -12.5 43.5 q-12.5 15.5 -35.5 15.5 ZM271 246 q-52 -5 -76 -23.5 q-24 -18.5 -25 -65.5 l0 -12 q0 -32 10.5 -45.5 q10.5 -13.5 32.5 -13.5 q17 0 34 9 q17 9 24 23 l0 128 Z" /><glyph glyph-name="b" unicode="b" d="M198 114 q8 -11 22 -20.5 q14 -9.5 32 -9.5 q28 0 40 19 q12 19 12 53 l0 213 q0 32 -10 52.5 q-10 20.5 -40 20.5 q-18 0 -33 -10.5 q-15 -10.5 -23 -22.5 l0 -295 ZM457 208 q0 -42 -7 -81.5 q-7 -39.5 -27 -70 q-20 -30.5 -56.5 -49.5 q-36.5 -19 -96.5 -19 q-33 0 -64 10.5 q-31 10.5 -64 38.5 l-44 -37 l-48 0 l0 750 l148 0 l0 -259 l2 0 q23 24 53.5 37 q30.5 13 62.5 13 q30 0 56 -8.5 q26 -8.5 44.5 -30.5 q18.5 -22 29.5 -58.5 q11 -36.5 11 -93.5 l0 -142 Z" /><glyph glyph-name="c" unicode="c" d="M434 203 l0 -42 q0 -85 -47.5 -129 q-47.5 -44 -147.5 -44 q-111 0 -157.5 54.5 q-46.5 54.5 -46.5 155.5 l0 134 q0 98 48 153.5 q48 55.5 158 55.5 q53 0 89 -11.5 q36 -11.5 57.5 -35 q21.5 -23.5 31 -58 q9.5 -34.5 9.5 -80.5 l0 -38 l-137 0 l0 57 q0 35 -12 53.5 q-12 18.5 -39 18.5 q-27 0 -39.5 -18.5 q-12.5 -18.5 -12.5 -53.5 l0 -220 q0 -32 12 -52.5 q12 -20.5 42 -20.5 q30 0 42 20.5 q12 20.5 12 52.5 l0 48 l138 0 Z" /><glyph glyph-name="d" unicode="d" d="M294 413 q-9 13 -24 21 q-15 8 -32 8 q-30 0 -40 -21.5 q-10 -21.5 -10 -53.5 l0 -208 q0 -35 13 -54 q13 -19 41 -19 q17 0 30.5 7 q13.5 7 21.5 17 l0 303 ZM35 339 q0 105 41.5 153.5 q41.5 48.5 115.5 48.5 q32 0 57.5 -12.5 q25.5 -12.5 42.5 -29.5 l2 0 l0 251 l148 0 l0 -750 l-49 0 l-58 39 q-27 -23 -62 -37 q-35 -14 -84 -14 q-42 0 -71.5 15 q-29.5 15 -48 41.5 q-18.5 26.5 -26.5 62 q-8 35.5 -8 77.5 l0 155 Z" /><glyph glyph-name="e" unicode="e" d="M432 180 l0 -21 q0 -76 -45.5 -123.5 q-45.5 -47.5 -146.5 -47.5 q-56 0 -95 14.5 q-39 14.5 -63.5 41.5 q-24.5 27 -35.5 66 q-11 39 -11 88 l0 134 q0 100 49.5 154.5 q49.5 54.5 157.5 54.5 q104 0 147.5 -51 q43.5 -51 43.5 -151 l0 -109 l-247 0 l0 -75 q0 -73 56 -73 q57 0 57 73 l0 25 l133 0 ZM296 378 q0 71 -55 71 q-55 0 -55 -71 l0 -64 l110 0 l0 64 Z" /><glyph glyph-name="f" unicode="f" d="M10 529 l57 0 l0 39 q0 94 46.5 140.5 q46.5 46.5 134.5 46.5 q15 0 27.5 -1 q12.5 -1 20.5 -3 l0 -106 q-5 2 -12 3 q-7 1 -18 1 q-51 0 -51 -61 l0 -59 l82 0 l0 -96 l-82 0 l0 -433 l-148 0 l0 433 l-57 0 l0 96 Z" /><glyph glyph-name="g" unicode="g" d="M445 578 l49 -74 l-82 -20 q34 -38 34 -99 l0 -37 q0 -70 -48 -114.5 q-48 -44.5 -148 -44.5 q-45 0 -79 9 q-12 -12 -12 -27 q0 -20 22 -28.5 q22 -8.5 81 -10.5 q51 -2 91.5 -6.5 q40.5 -4.5 69 -18.5 q28.5 -14 43.5 -41 q15 -27 15 -74 q0 -81 -62 -118 q-62 -37 -177 -37 q-117 0 -167 28.5 q-50 28.5 -50 81.5 q0 32 20.5 55.5 q20.5 23.5 55.5 37.5 l0 2 q-29 12 -42 33 q-13 21 -13 47 q0 36 21.5 59 q21.5 23 51.5 39 q-34 21 -50.5 53.5 q-16.5 32.5 -16.5 74.5 l0 37 q0 71 48 113.5 q48 42.5 149 42.5 q53 0 91 -12 l105 49 ZM249 462 q-52 0 -52 -54 l0 -86 q0 -24 12 -39.5 q12 -15.5 40 -15.5 q28 0 40 15.5 q12 15.5 12 39.5 l0 86 q0 54 -52 54 ZM181 23 q-34 -21 -34 -53 q0 -11 4 -21 q4 -10 14.5 -17 q10.5 -7 29.5 -11 q19 -4 50 -4 q59 0 80 14.5 q21 14.5 21 41.5 q0 15 -10.5 28 q-10.5 13 -41.5 16 q-11 1 -25.5 2 q-14.5 1 -30 1.5 q-15.5 0.5 -30.5 1 q-15 0.5 -27 1.5 Z" /><glyph glyph-name="h" unicode="h" d="M304 0 l0 368 q0 32 -8.5 52 q-8.5 20 -37.5 20 q-20 0 -35 -11 q-15 -11 -25 -25 l0 -404 l-148 0 l0 750 l148 0 l0 -266 l2 0 q23 23 55.5 38.5 q32.5 15.5 66.5 15.5 q73 0 103 -40.5 q30 -40.5 30 -125.5 l0 -372 l-151 0 Z" /><glyph glyph-name="i" unicode="i" d="M50 0 l149 0 l0 529 l-149 0 l0 -529 ZM80 619 l0 80 l85 0 l0 -80 l-85 0 Z" /><glyph glyph-name="j" unicode="j" d="M55 750 l149 0 l0 -132 l-149 0 l0 132 ZM-27 -55 q15 -4 30 -4 q52 0 52 66 l0 522 l149 0 l0 -506 q0 -94 -48.5 -137.5 q-48.5 -43.5 -136.5 -43.5 q-15 0 -26.5 1 q-11.5 1 -19.5 3 l0 99 Z" /><glyph glyph-name="k" unicode="k" d="M226 234 l-27 -35 l0 -199 l-149 0 l0 750 l149 0 l0 -418 l137 197 l116 0 l-122 -163 l131 -366 l-154 0 l-81 234 Z" /><glyph glyph-name="l" unicode="l" d="M50 750 l148 0 l0 -750 l-148 0 l0 750 Z" /><glyph glyph-name="m" unicode="m" d="M303 0 l0 368 q0 32 -9.5 52 q-9.5 20 -39.5 20 q-18 0 -33 -11 q-15 -11 -23 -25 l0 -404 l-148 0 l0 529 l142 0 l0 -45 l2 0 q26 24 59 39 q33 15 68 15 q83 0 111 -61 q29 29 65 45 q36 16 73 16 q71 0 102.5 -39.5 q31.5 -39.5 31.5 -126.5 l0 -372 l-148 0 l0 368 q0 32 -9 52 q-9 20 -39 20 q-18 0 -34 -10.5 q-16 -10.5 -25 -25.5 q1 -8 1.5 -17 q0.5 -9 0.5 -18 l0 -369 l-148 0 Z" /><glyph glyph-name="n" unicode="n" d="M304 0 l0 368 q0 32 -8.5 52 q-8.5 20 -38.5 20 q-19 0 -34 -11 q-15 -11 -25 -25 l0 -404 l-148 0 l0 529 l142 0 l0 -45 l2 0 q26 25 59.5 39.5 q33.5 14.5 67.5 14.5 q74 0 104 -40.5 q30 -40.5 30 -128.5 l0 -369 l-151 0 Z" /><glyph glyph-name="o" unicode="o" d="M241 -12 q-54 0 -93 15 q-39 15 -64 42 q-25 27 -37 65 q-12 38 -12 84 l0 141 q0 94 49 150 q49 56 157 56 q108 0 157 -56 q49 -56 49 -150 l0 -141 q0 -46 -12 -84 q-12 -38 -37 -65 q-25 -27 -64 -42 q-39 -15 -93 -15 ZM241 447 q-27 0 -41 -18.5 q-14 -18.5 -14 -53.5 l0 -220 q0 -32 12.5 -52.5 q12.5 -20.5 42.5 -20.5 q30 0 42.5 20.5 q12.5 20.5 12.5 52.5 l0 220 q0 35 -14 53.5 q-14 18.5 -41 18.5 Z" /><glyph glyph-name="p" unicode="p" d="M198 108 q9 -9 22.5 -16.5 q13.5 -7.5 31.5 -7.5 q28 0 40 20 q12 20 12 54 l0 212 q0 32 -10 52 q-10 20 -40 20 q-18 0 -32.5 -9 q-14.5 -9 -23.5 -20 l0 -305 ZM198 -158 l-148 0 l0 687 l57 0 l61 -36 q30 23 60.5 35.5 q30.5 12.5 68.5 12.5 q86 0 122 -49.5 q36 -49.5 36 -158.5 l0 -131 q0 -102 -37.5 -158 q-37.5 -56 -125.5 -56 q-27 0 -52 8 q-25 8 -42 22 l0 -176 Z" /><glyph glyph-name="q" unicode="q" d="M292 418 q-8 11 -22.5 18.5 q-14.5 7.5 -31.5 7.5 q-28 0 -40 -20 q-12 -20 -12 -55 l0 -210 q0 -34 11.5 -54 q11.5 -20 39.5 -20 q19 0 33 7 q14 7 22 16 l0 310 ZM292 22 q-20 -15 -44.5 -24.5 q-24.5 -9.5 -58.5 -9.5 q-77 0 -115.5 49 q-38.5 49 -38.5 160 l0 132 q0 111 47.5 161.5 q47.5 50.5 133.5 50.5 q43 0 69 -12.5 q26 -12.5 46 -29.5 l52 30 l57 0 l0 -687 l-148 0 l0 180 Z" /><glyph glyph-name="r" unicode="r" d="M321 408 l-46 0 q-34 0 -55.5 -23.5 q-21.5 -23.5 -21.5 -73.5 l0 -311 l-148 0 l0 529 l141 0 l0 -71 l2 0 q16 38 43.5 60.5 q27.5 22.5 84.5 22.5 l0 -133 Z" /><glyph glyph-name="s" unicode="s" d="M143 182 q2 -54 18.5 -78 q16.5 -24 48.5 -24 q27 0 39.5 13.5 q12.5 13.5 12.5 34.5 q0 21 -17 36.5 q-17 15.5 -43 30.5 q-26 15 -56 31.5 q-30 16.5 -56 38.5 q-26 22 -43 52 q-17 30 -17 73 q0 39 13.5 67 q13.5 28 37.5 47 q24 19 56.5 28 q32.5 9 71.5 9 q42 0 77 -8.5 q35 -8.5 59 -29.5 q24 -21 36.5 -56.5 q12.5 -35.5 10.5 -89.5 l-121 0 q0 51 -15.5 71 q-15.5 20 -42.5 20 q-20 0 -31.5 -10.5 q-11.5 -10.5 -11.5 -31.5 q0 -23 17.5 -40 q17.5 -17 43 -32 q25.5 -15 56 -30.5 q30.5 -15.5 56 -36.5 q25.5 -21 43 -49.5 q17.5 -28.5 17.5 -69.5 q0 -78 -49.5 -119.5 q-49.5 -41.5 -143.5 -41.5 q-92 0 -145.5 47 q-53.5 47 -49.5 148 l128 0 Z" /><glyph glyph-name="t" unicode="t" d="M11 529 l51 0 l0 155 l147 0 l0 -155 l97 0 l0 -96 l-97 0 l0 -274 q0 -29 9.5 -45.5 q9.5 -16.5 35.5 -16.5 q18 0 31.5 3 q13.5 3 22.5 6 l0 -99 q-15 -5 -40 -10.5 q-25 -5.5 -58 -5.5 q-43 0 -71.5 11.5 q-28.5 11.5 -45.5 33.5 q-17 22 -24 55 q-7 33 -7 77 l0 265 l-51 0 l0 96 Z" /><glyph glyph-name="u" unicode="u" d="M196 529 l0 -377 q0 -38 13.5 -51.5 q13.5 -13.5 33.5 -13.5 q20 0 35 10.5 q15 10.5 24 23.5 l0 408 l148 0 l0 -529 l-143 0 l0 42 l-2 0 q-46 -54 -126 -54 q-69 0 -101.5 40.5 q-32.5 40.5 -32.5 128.5 l0 372 l151 0 Z" /><glyph glyph-name="v" unicode="v" d="M-5 529 l157 0 l78 -352 l2 0 l76 352 l111 0 l-144 -529 l-137 0 l-143 529 Z" /><glyph glyph-name="w" unicode="w" d="M2 529 l153 0 l55 -283 l2 0 l55 283 l121 0 l58 -283 l2 0 l53 283 l106 0 l-123 -529 l-107 0 l-67 306 l-2 0 l-69 -306 l-110 0 l-127 529 Z" /><glyph glyph-name="x" unicode="x" d="M437 0 l-162 0 l-77 166 l-76 -166 l-119 0 l139 267 l-136 262 l159 0 l70 -150 l67 150 l111 0 l-124 -243 l148 -286 Z" /><glyph glyph-name="y" unicode="y" d="M40 -56 q10 -2 17 -2.5 q7 -0.5 17 -0.5 q39 0 54 16 q15 16 15 42 q0 17 -3.5 33 q-3.5 16 -8.5 33 l-129 464 l157 0 l81 -369 l3 0 l74 369 l118 0 l-135 -519 q-21 -81 -67 -123.5 q-46 -42.5 -134 -44.5 q-15 0 -30 1 q-15 1 -29 3 l0 98 Z" /><glyph glyph-name="z" unicode="z" d="M15 80 l203 354 l-189 0 l0 95 l346 0 l0 -93 l-195 -341 l199 0 l0 -95 l-364 0 l0 80 Z" /><glyph glyph-name="braceleft" unicode="{" d="M17 370 q15 2 29.5 7.5 q14.5 5.5 25.5 16 q11 10.5 18 25.5 q7 15 7 37 l0 140 q0 77 38 122.5 q38 45.5 106 57.5 l67 12 l0 -98 l-27 -6 q-21 -4 -33.5 -14.5 q-12.5 -10.5 -18.5 -23.5 q-6 -13 -7.5 -27 q-1.5 -14 -1.5 -24 l0 -144 q0 -30 -9.5 -51 q-9.5 -21 -24.5 -35.5 q-15 -14.5 -33 -23.5 q-18 -9 -35 -14 l0 -2 q17 -5 35 -14 q18 -9 33 -23.5 q15 -14.5 24.5 -35.5 q9.5 -21 9.5 -51 l0 -144 q0 -11 1.5 -24.5 q1.5 -13.5 7.5 -26.5 q6 -13 18.5 -23.5 q12.5 -10.5 33.5 -14.5 l27 -6 l0 -98 l-67 12 q-68 12 -106 57.5 q-38 45.5 -38 122.5 l0 140 q0 22 -7 37 q-7 15 -18 25.5 q-11 10.5 -25.5 16 q-14.5 5.5 -29.5 7.5 l0 88 Z" /><glyph glyph-name="bar" unicode="|" d="M55 765 l116 0 l0 -780 l-116 0 l0 780 Z" /><glyph glyph-name="braceright" unicode="}" d="M321 282 q-15 -2 -29.5 -7.5 q-14.5 -5.5 -25.5 -16 q-11 -10.5 -18 -25.5 q-7 -15 -7 -37 l0 -140 q0 -77 -38 -122.5 q-38 -45.5 -106 -57.5 l-67 -12 l0 98 l27 6 q21 4 33.5 14.5 q12.5 10.5 18.5 23.5 q6 13 7.5 26.5 q1.5 13.5 1.5 24.5 l0 144 q0 30 9.5 51 q9.5 21 24.5 35.5 q15 14.5 33 23.5 q18 9 35 14 l0 2 q-17 5 -35 14 q-18 9 -33 23.5 q-15 14.5 -24.5 35.5 q-9.5 21 -9.5 51 l0 144 q0 10 -1.5 24 q-1.5 14 -7.5 27 q-6 13 -18.5 23.5 q-12.5 10.5 -33.5 14.5 l-27 6 l0 98 l67 -12 q68 -12 106 -57.5 q38 -45.5 38 -122.5 l0 -140 q0 -22 7 -37 q7 -15 18 -25.5 q11 -10.5 25.5 -16 q14.5 -5.5 29.5 -7.5 l0 -88 Z" /><glyph glyph-name="asciitilde" unicode="~" d="M558 247 q-20 -30 -50.5 -50.5 q-30.5 -20.5 -80.5 -20.5 q-32 0 -61.5 11 q-29.5 11 -58.5 24 q-29 13 -57.5 24 q-28.5 11 -57.5 11 q-35 0 -58 -16.5 q-23 -16.5 -36 -40.5 l-38 97 q9 12 21 24.5 q12 12.5 28 23 q16 10.5 36 17 q20 6.5 46 6.5 q30 0 60 -11 q30 -11 60 -24.5 q30 -13.5 58.5 -24.5 q28.5 -11 54.5 -11 q33 0 56 15 q23 15 40 42 l38 -96 Z" /><glyph glyph-name="exclamdown" unicode="¡" d="M279 -144 l-194 0 l50 510 l94 0 l50 -510 ZM260 456 l-155 0 l0 150 l155 0 l0 -150 Z" /><glyph glyph-name="cent" unicode="¢" d="M210 764 l62 0 l0 -117 q85 -7 118 -51.5 q33 -44.5 33 -126.5 l0 -37 l-132 0 l0 55 q0 34 -12 52 q-12 18 -39 18 q-50 0 -50 -70 l0 -214 q0 -32 11.5 -52 q11.5 -20 40.5 -20 q29 0 41 20 q12 20 12 52 l0 47 l134 0 l0 -41 q0 -77 -38 -119 q-38 -42 -119 -48 l0 -124 l-62 0 l0 124 q-90 8 -130 61 q-40 53 -40 141 l0 131 q0 93 39.5 143.5 q39.5 50.5 130.5 58.5 l0 117 Z" /><glyph glyph-name="sterling" unicode="£" d="M516 43 q-21 -29 -55.5 -40.5 q-34.5 -11.5 -84.5 -11.5 q-32 0 -61 6 q-29 6 -57 12.5 q-28 6.5 -55.5 12.5 q-27.5 6 -56.5 6 q-35 0 -58.5 -11.5 q-23.5 -11.5 -35.5 -24.5 l-25 111 q10 9 21.5 17 q11.5 8 24.5 16 l-1 0 q40 21 63.5 53 q23.5 32 23.5 66 q0 20 -6 41 q-6 21 -15 43 l-93 0 l0 62 l66 0 q-16 35 -28.5 74.5 q-12.5 39.5 -12.5 84.5 q0 96 53 150.5 q53 54.5 163 54.5 q62 0 101.5 -15.5 q39.5 -15.5 62 -47.5 q22.5 -32 29.5 -81 q7 -49 3 -115 l-137 0 q3 35 2 63.5 q-1 28.5 -7.5 48.5 q-6.5 20 -19.5 30.5 q-13 10.5 -35 10.5 q-27 0 -43.5 -20.5 q-16.5 -20.5 -16.5 -65.5 q0 -46 18 -88 q18 -42 34 -84 l127 0 l0 -62 l-111 0 q1 -6 1.5 -12.5 q0.5 -6.5 0.5 -12.5 q0 -30 -9.5 -55 q-9.5 -25 -24.5 -45 q-15 -20 -33 -35 q-18 -15 -34 -25 q25 -4 49.5 -10.5 q24.5 -6.5 48.5 -12.5 q24 -6 47 -10.5 q23 -4.5 44 -4.5 q33 0 59 7.5 q26 7.5 49 30.5 l25 -111 Z" /><glyph glyph-name="currency" unicode="¤" d="M40 379 q0 44 13.5 83.5 q13.5 39.5 38.5 71.5 l-46 47 l52 52 l46 -47 q32 24 71 37 q39 13 82 13 q44 0 83.5 -14 q39.5 -14 71.5 -38 l49 49 l52 -52 l-49 -49 q23 -32 36.5 -71 q13.5 -39 13.5 -82 q0 -43 -13 -82 q-13 -39 -37 -71 l49 -48 l-52 -52 l-49 48 q-32 -25 -71.5 -38.5 q-39.5 -13.5 -83.5 -13.5 q-43 0 -82 13 q-39 13 -71 37 l-46 -46 l-52 52 l46 46 q-25 32 -38.5 71.5 q-13.5 39.5 -13.5 83.5 ZM138 379 q0 -35 12.5 -65 q12.5 -30 34.5 -53 q22 -23 50.5 -36 q28.5 -13 61.5 -13 q33 0 61.5 13 q28.5 13 50.5 36 q22 23 34.5 53 q12.5 30 12.5 65 q0 34 -12.5 64.5 q-12.5 30.5 -34.5 53.5 q-22 23 -50.5 36 q-28.5 13 -61.5 13 q-33 0 -61.5 -13 q-28.5 -13 -50.5 -36 q-22 -23 -34.5 -53.5 q-12.5 -30.5 -12.5 -64.5 Z" /><glyph glyph-name="yen" unicode="¥" d="M375 342 l-11 -30 l0 -58 l135 0 l0 -82 l-135 0 l0 -172 l-168 0 l0 172 l-137 0 l0 82 l137 0 l0 58 l-12 30 l-125 0 l0 82 l93 0 l-127 326 l187 0 l96 -299 l90 299 l135 0 l-126 -326 l92 0 l0 -82 l-124 0 Z" /><glyph glyph-name="brokenbar" unicode="¦" d="M55 279 l116 0 l0 -294 l-116 0 l0 294 ZM55 765 l116 0 l0 -294 l-116 0 l0 294 Z" /><glyph glyph-name="section" unicode="§" d="M154 68 q1 -60 21 -84.5 q20 -24.5 53 -24.5 q31 0 47 18 q16 18 16 47 q0 25 -18.5 46 q-18.5 21 -47 41 q-28.5 20 -61 41 q-32.5 21 -61 46.5 q-28.5 25.5 -47 57.5 q-18.5 32 -18.5 74 q0 50 25 86 q25 36 67 54 q-32 27 -53 61 q-21 34 -21 80 q0 72 47.5 112.5 q47.5 40.5 131.5 40.5 q42 0 75 -10 q33 -10 55.5 -32 q22.5 -22 34 -57 q11.5 -35 9.5 -84 l-114 0 q0 101 -61 101 q-22 0 -35.5 -13.5 q-13.5 -13.5 -13.5 -37.5 q0 -24 18.5 -44 q18.5 -20 46.5 -40 q28 -20 60.5 -40.5 q32.5 -20.5 60.5 -45.5 q28 -25 46.5 -57 q18.5 -32 18.5 -73 q0 -50 -24.5 -84 q-24.5 -34 -71.5 -59 q35 -28 59 -62 q24 -34 24 -82 q0 -32 -10.5 -62.5 q-10.5 -30.5 -33.5 -53.5 q-23 -23 -60 -37 q-37 -14 -91 -14 q-95 0 -146 46.5 q-51 46.5 -46 144.5 l118 0 ZM306 310 q0 15 -8 28.5 q-8 13.5 -21.5 26 q-13.5 12.5 -31.5 24.5 q-18 12 -37 25 q-42 -20 -42 -65 q0 -31 29 -56 q29 -25 69 -51 q18 11 30 27.5 q12 16.5 12 40.5 Z" /><glyph glyph-name="dieresis" unicode="¨" d="M-32 709 l123 0 l0 -122 l-123 0 l0 122 ZM163 709 l123 0 l0 -122 l-123 0 l0 122 Z" /><glyph glyph-name="copyright" unicode="©" d="M90 375 q0 69 26 129.5 q26 60.5 71 105.5 q45 45 105.5 71 q60.5 26 129.5 26 q68 0 128.5 -26 q60.5 -26 105.5 -71 q45 -45 71.5 -105.5 q26.5 -60.5 26.5 -129.5 q0 -69 -26.5 -129.5 q-26.5 -60.5 -71.5 -105.5 q-45 -45 -105.5 -71 q-60.5 -26 -128.5 -26 q-69 0 -129.5 26 q-60.5 26 -105.5 71 q-45 45 -71 105.5 q-26 60.5 -26 129.5 ZM161 375 q0 -60 19 -110 q19 -50 53.5 -85.5 q34.5 -35.5 82.5 -55.5 q48 -20 106 -20 q57 0 105 20 q48 20 82.5 55.5 q34.5 35.5 53.5 85.5 q19 50 19 110 q0 60 -19 109.5 q-19 49.5 -53.5 85 q-34.5 35.5 -82.5 55.5 q-48 20 -105 20 q-58 0 -106 -20 q-48 -20 -82.5 -55.5 q-34.5 -35.5 -53.5 -85 q-19 -49.5 -19 -109.5 ZM559 327 q0 -28 -5.5 -52.5 q-5.5 -24.5 -20.5 -42.5 q-15 -18 -41 -28 q-26 -10 -66 -10 q-73 0 -104 33.5 q-31 33.5 -31 86.5 l0 133 q0 55 31 88 q31 33 104 33 q39 0 64.5 -10 q25.5 -10 40.5 -28.5 q15 -18.5 20 -44 q5 -25.5 4 -56.5 l-89 0 q4 39 -4.5 61 q-8.5 22 -34.5 22 q-15 0 -27 -10.5 q-12 -10.5 -12 -36.5 l0 -167 q0 -27 11.5 -37 q11.5 -10 29.5 -10 q25 0 35 18.5 q10 18.5 8 57.5 l87 0 Z" /><glyph glyph-name="ordfeminine" unicode="ª" d="M192 667 q0 38 -31 38 q-15 0 -23.5 -10.5 q-8.5 -10.5 -8.5 -27.5 l0 -15 l-88 1 q-1 31 9 52 q10 21 26.5 33.5 q16.5 12.5 38.5 17.5 q22 5 45 5 q64 0 94.5 -25.5 q30.5 -25.5 30.5 -82.5 l0 -216 l-86 0 l-1 32 q-16 -22 -38 -30.5 q-22 -8.5 -46 -8.5 q-42 0 -63 21.5 q-21 21.5 -21 69.5 q0 32 14 52 q14 20 36.5 31.5 q22.5 11.5 51.5 17 q29 5.5 60 8.5 l0 37 ZM192 584 q-36 -5 -51.5 -16 q-15.5 -11 -15.5 -39 q0 -24 8.5 -31.5 q8.5 -7.5 22.5 -7.5 q11 0 21 5.5 q10 5.5 15 13.5 l0 75 Z" /><glyph glyph-name="guillemotleft" unicode="«" d="M459 491 l68 -72 l-131 -147 l131 -149 l-68 -71 l-199 220 l199 219 ZM213 491 l70 -72 l-133 -147 l133 -149 l-70 -71 l-198 220 l198 219 Z" /><glyph glyph-name="logicalnot" unicode="¬" d="M468 334 l-419 0 l0 114 l533 0 l0 -334 l-114 0 l0 220 Z" /><glyph glyph-name="registered" unicode="®" d="M90 515 q0 52 19.5 97.5 q19.5 45.5 53.5 79.5 q34 34 79.5 53.5 q45.5 19.5 97.5 19.5 q52 0 98 -19.5 q46 -19.5 80 -53.5 q34 -34 53.5 -79.5 q19.5 -45.5 19.5 -97.5 q0 -53 -19.5 -98.5 q-19.5 -45.5 -53.5 -79.5 q-34 -34 -80 -53.5 q-46 -19.5 -98 -19.5 q-52 0 -97.5 19.5 q-45.5 19.5 -79.5 53.5 q-34 34 -53.5 79.5 q-19.5 45.5 -19.5 98.5 ZM151 515 q0 -44 14 -80 q14 -36 38.5 -62 q24.5 -26 59.5 -40.5 q35 -14.5 77 -14.5 q42 0 76.5 14.5 q34.5 14.5 59.5 40.5 q25 26 39 62 q14 36 14 80 q0 43 -14 79 q-14 36 -39 62 q-25 26 -59.5 40.5 q-34.5 14.5 -76.5 14.5 q-42 0 -77 -14.5 q-35 -14.5 -59.5 -40.5 q-24.5 -26 -38.5 -62 q-14 -36 -14 -79 ZM447 393 l-68 0 l-34 100 l-31 0 l0 -100 l-65 0 l0 251 l115 0 q40 0 60 -19.5 q20 -19.5 20 -55.5 q0 -45 -37 -65 l40 -111 ZM314 605 l0 -75 l26 0 q23 0 30 12 q7 12 7 29 q0 16 -7.5 25 q-7.5 9 -30.5 9 l-25 0 Z" /><glyph glyph-name="macron" unicode="¯" d="M-31 692 l315 0 l0 -83 l-315 0 l0 83 Z" /><glyph glyph-name="degree" unicode="°" d="M197 518 q17 0 31.5 6.5 q14.5 6.5 25.5 18 q11 11.5 17.5 27 q6.5 15.5 6.5 33.5 q0 36 -23.5 60.5 q-23.5 24.5 -57.5 24.5 q-35 0 -58 -24.5 q-23 -24.5 -23 -60.5 q0 -35 23 -60 q23 -25 58 -25 ZM40 603 q0 33 12.5 61.5 q12.5 28.5 33.5 49.5 q21 21 49.5 33.5 q28.5 12.5 61.5 12.5 q32 0 60.5 -12.5 q28.5 -12.5 49.5 -33.5 q21 -21 33.5 -49.5 q12.5 -28.5 12.5 -61.5 q0 -32 -12.5 -60.5 q-12.5 -28.5 -33.5 -50 q-21 -21.5 -49.5 -34 q-28.5 -12.5 -60.5 -12.5 q-33 0 -61.5 12.5 q-28.5 12.5 -49.5 34 q-21 21.5 -33.5 50 q-12.5 28.5 -12.5 60.5 Z" /><glyph glyph-name="plusminus" unicode="±" d="M255 543 l122 0 l0 -131 l205 0 l0 -123 l-205 0 l0 -131 l-122 0 l0 131 l-208 0 l0 123 l208 0 l0 131 ZM47 0 l0 123 l537 0 l0 -123 l-537 0 Z" /><glyph glyph-name="twosuperior" unicode="²" d="M44 304 l0 49 q0 29 10 53 q10 24 26 45.5 q16 21.5 35.5 40.5 q19.5 19 38.5 37 q29 27 49.5 54 q20.5 27 20.5 57 l0 7 q0 41 -36 41 q-38 0 -38 -52 q0 -5 0 -16 q0 -11 2 -28 l-105 0 q-1 9 -1.5 18.5 q-0.5 9.5 -0.5 21.5 q0 71 39 101 q39 30 106 30 q76 0 111.5 -30 q35.5 -30 35.5 -85 l0 -9 q0 -27 -9.5 -50 q-9.5 -23 -25 -44 q-15.5 -21 -34.5 -39.5 q-19 -18.5 -38 -35.5 q-23 -21 -45 -41 q-22 -20 -33 -39 l182 0 l0 -86 l-290 0 Z" /><glyph glyph-name="threesuperior" unicode="³" d="M143 567 l13 0 q32 0 43 15 q11 15 11 38 l0 25 q0 43 -36 43 q-10 0 -18 -3.5 q-8 -3.5 -13.5 -12.5 q-5.5 -9 -8 -25.5 q-2.5 -16.5 -0.5 -42.5 l-102 0 q-3 37 3.5 66 q6.5 29 23.5 49 q17 20 45.5 31 q28.5 11 70.5 11 q76 0 111.5 -30.5 q35.5 -30.5 35.5 -94.5 q0 -69 -60 -97 q32 -13 51 -37 q19 -24 19 -67 q0 -73 -43 -106.5 q-43 -33.5 -112 -33.5 q-83 0 -117.5 40 q-34.5 40 -32.5 118 l107 0 q-1 -25 2 -41 q3 -16 8.5 -25.5 q5.5 -9.5 13.5 -13 q8 -3.5 19 -3.5 q20 0 30 13.5 q10 13.5 10 36.5 l0 27 q0 25 -13.5 40 q-13.5 15 -45.5 15 l-15 0 l0 65 Z" /><glyph glyph-name="acute" unicode="´" d="M139 585 l-99 0 l92 152 l145 0 l-138 -152 Z" /><glyph glyph-name="mu" unicode="µ" d="M50 529 l151 0 l0 -371 q0 -32 8.5 -52 q8.5 -20 38.5 -20 q17 0 33 11 q16 11 26 25 l0 407 l148 0 l0 -529 l-143 0 l0 42 l-2 0 q-23 -26 -51 -38.5 q-28 -12.5 -59 -14.5 l0 -147 l-150 0 l0 687 Z" /><glyph glyph-name="paragraph" unicode="¶" d="M204 382 q-43 3 -76 17.5 q-33 14.5 -56 38.5 q-23 24 -35 56 q-12 32 -12 70 q0 48 16 83 q16 35 44.5 58 q28.5 23 66.5 34 q38 11 82 11 l246 0 l0 -860 l-92 0 l0 788 l-92 0 l0 -788 l-92 0 l0 492 Z" /><glyph glyph-name="periodcentered" unicode="·" d="M53 295 q0 18 7 34 q7 16 19 28 q12 12 28 19 q16 7 34 7 q18 0 34.5 -7 q16.5 -7 28.5 -19 q12 -12 19 -28 q7 -16 7 -34 q0 -37 -26 -63 q-26 -26 -63 -26 q-18 0 -34 7 q-16 7 -28 19 q-12 12 -19 28.5 q-7 16.5 -7 34.5 Z" /><glyph glyph-name="cedilla" unicode="¸" d="M28 -167 q22 -11 38.5 -15 q16.5 -4 36.5 -4 q21 0 35 8.5 q14 8.5 14 27.5 q0 13 -7.5 20.5 q-7.5 7.5 -19.5 11 q-12 3.5 -26.5 3.5 q-14.5 0 -27.5 -1 l-22 27 l52 89 l61 0 l-42 -64 l2 -2 q22 0 42 -4 q20 -4 35 -14 q15 -10 24 -25.5 q9 -15.5 9 -37.5 q0 -24 -9.5 -41 q-9.5 -17 -26 -28 q-16.5 -11 -38 -16 q-21.5 -5 -45.5 -5 q-29 0 -54 7 q-25 7 -48 19 l17 44 Z" /><glyph glyph-name="onesuperior" unicode="¹" d="M106 629 l-58 -42 l0 102 l77 61 l91 0 l0 -446 l-110 0 l0 325 Z" /><glyph glyph-name="ordmasculine" unicode="º" d="M167 430 q-68 0 -100 35 q-32 35 -32 91 l0 80 q0 57 32 91 q32 34 100 34 q68 0 100 -34 q32 -34 32 -91 l0 -80 q0 -56 -32 -91 q-32 -35 -100 -35 ZM167 705 q-37 0 -37 -43 l0 -132 q0 -20 9 -32 q9 -12 28 -12 q19 0 28 12 q9 12 9 32 l0 132 q0 43 -37 43 Z" /><glyph glyph-name="guillemotright" unicode="»" d="M307 272 l-199 -220 l-68 71 l131 149 l-131 147 l68 72 l199 -219 ZM552 272 l-198 -220 l-70 71 l133 149 l-133 147 l70 72 l198 -219 Z" /><glyph glyph-name="onequarter" unicode="¼" d="M106 629 l-58 -42 l0 102 l77 61 l91 0 l0 -446 l-110 0 l0 325 ZM178 -24 l-88 0 l441 798 l88 0 l-441 -798 ZM575 329 l-88 -158 l0 -14 l88 0 l0 172 ZM575 81 l-183 0 l0 100 l150 265 l137 0 l0 -289 l48 0 l0 -76 l-49 0 l0 -81 l-103 0 l0 81 Z" /><glyph glyph-name="onehalf" unicode="½" d="M106 629 l-58 -42 l0 102 l77 61 l91 0 l0 -446 l-110 0 l0 325 ZM178 -24 l-88 0 l441 798 l88 0 l-441 -798 ZM461 0 l0 49 q0 29 10 53 q10 24 26 45.5 q16 21.5 35.5 40.5 q19.5 19 38.5 37 q29 27 49.5 54 q20.5 27 20.5 57 l0 7 q0 41 -36 41 q-38 0 -38 -52 q0 -5 0 -16 q0 -11 2 -28 l-105 0 q-1 9 -1.5 18.5 q-0.5 9.5 -0.5 21.5 q0 71 39 101 q39 30 106 30 q76 0 111.5 -30 q35.5 -30 35.5 -85 l0 -9 q0 -27 -9.5 -50 q-9.5 -23 -25 -44 q-15.5 -21 -34.5 -39.5 q-19 -18.5 -38 -35.5 q-23 -21 -45 -41 q-22 -20 -33 -39 l182 0 l0 -86 l-290 0 Z" /><glyph glyph-name="threequarters" unicode="¾" d="M167 567 l13 0 q32 0 43 15 q11 15 11 38 l0 25 q0 43 -36 43 q-10 0 -18 -3.5 q-8 -3.5 -13.5 -12.5 q-5.5 -9 -8 -25.5 q-2.5 -16.5 -0.5 -42.5 l-102 0 q-3 37 3.5 66 q6.5 29 23.5 49 q17 20 45.5 31 q28.5 11 70.5 11 q76 0 111.5 -30.5 q35.5 -30.5 35.5 -94.5 q0 -69 -60 -97 q32 -13 51 -37 q19 -24 19 -67 q0 -73 -43 -106.5 q-43 -33.5 -112 -33.5 q-83 0 -117.5 40 q-34.5 40 -32.5 118 l107 0 q-1 -25 2 -41 q3 -16 8.5 -25.5 q5.5 -9.5 13.5 -13 q8 -3.5 19 -3.5 q20 0 30 13.5 q10 13.5 10 36.5 l0 27 q0 25 -13.5 40 q-13.5 15 -45.5 15 l-15 0 l0 65 ZM684 329 l-88 -158 l0 -14 l88 0 l0 172 ZM684 81 l-183 0 l0 100 l150 265 l137 0 l0 -289 l48 0 l0 -76 l-49 0 l0 -81 l-103 0 l0 81 ZM287 -24 l-88 0 l441 798 l88 0 l-441 -798 Z" /><glyph glyph-name="questiondown" unicode="¿" d="M304 375 q6 -15 9.5 -31 q3.5 -16 3.5 -33 q0 -41 -18.5 -70.5 q-18.5 -29.5 -41 -56.5 q-22.5 -27 -41 -58 q-18.5 -31 -18.5 -75 l0 -31 q0 -34 12 -52.5 q12 -18.5 43 -18.5 q36 0 50 25.5 q14 25.5 14 88.5 q0 15 -0.5 27 q-0.5 12 -1.5 22 l144 0 q2 -14 3 -34.5 q1 -20.5 1 -41.5 q0 -96 -51 -145 q-51 -49 -157 -49 q-60 0 -101 11.5 q-41 11.5 -66.5 33.5 q-25.5 22 -36.5 53.5 q-11 31.5 -11 71.5 l0 38 q0 35 13.5 66.5 q13.5 31.5 34.5 60 q21 28.5 44.5 55 q23.5 26.5 44.5 51 q21 24.5 34.5 47.5 q13.5 23 13.5 45 l79 0 ZM340 456 l-155 0 l0 150 l155 0 l0 -150 Z" /><glyph glyph-name="Agrave" unicode="à" d="M367 750 l153 -750 l-173 0 l-26 133 l-168 0 l-26 -133 l-121 0 l153 750 l208 0 ZM172 233 l130 0 l-64 336 l-66 -336 ZM246 897 l58 -97 l-62 0 l-90 97 l94 0 Z" /><glyph glyph-name="Aacute" unicode="á" d="M367 750 l153 -750 l-173 0 l-26 133 l-168 0 l-26 -133 l-121 0 l153 750 l208 0 ZM172 233 l130 0 l-64 336 l-66 -336 ZM266 800 l-63 0 l58 96 l92 0 l-87 -96 Z" /><glyph glyph-name="Acircumflex" unicode="â" d="M367 750 l153 -750 l-173 0 l-26 133 l-168 0 l-26 -133 l-121 0 l153 750 l208 0 ZM298 883 l60 -83 l-58 0 l-40 49 l-38 -49 l-58 0 l60 83 l74 0 ZM172 233 l130 0 l-64 336 l-66 -336 Z" /><glyph glyph-name="Atilde" unicode="ã" d="M367 750 l153 -750 l-173 0 l-26 133 l-168 0 l-26 -133 l-121 0 l153 750 l208 0 ZM146 814 q13 30 31 46.5 q18 16.5 43 16.5 q12 0 23 -4 q11 -4 21.5 -9 q10.5 -5 20 -9 q9.5 -4 17.5 -4 q10 0 18.5 5.5 q8.5 5.5 15.5 22.5 l39 -12 q-11 -29 -28.5 -47 q-17.5 -18 -46.5 -18 q-12 0 -23 4 q-11 4 -21.5 8.5 q-10.5 4.5 -20.5 8.5 q-10 4 -19 4 q-20 0 -32 -25 l-38 12 ZM172 233 l130 0 l-64 336 l-66 -336 Z" /><glyph glyph-name="Adieresis" unicode="ä" d="M367 750 l153 -750 l-173 0 l-26 133 l-168 0 l-26 -133 l-121 0 l153 750 l208 0 ZM172 233 l130 0 l-64 336 l-66 -336 ZM101 949 l123 0 l0 -122 l-123 0 l0 122 ZM296 949 l123 0 l0 -122 l-123 0 l0 122 Z" /><glyph glyph-name="Aring" unicode="å" d="M367 750 l153 -750 l-173 0 l-26 133 l-168 0 l-26 -133 l-121 0 l153 750 l208 0 ZM150 903 q0 23 9 43.5 q9 20.5 24 36 q15 15.5 35.5 24.5 q20.5 9 43.5 9 q24 0 44.5 -9 q20.5 -9 35.5 -24.5 q15 -15.5 24 -36 q9 -20.5 9 -43.5 q0 -23 -9 -43.5 q-9 -20.5 -24 -35.5 q-15 -15 -35.5 -24 q-20.5 -9 -44.5 -9 q-23 0 -43.5 9 q-20.5 9 -35.5 24 q-15 15 -24 35.5 q-9 20.5 -9 43.5 ZM172 233 l130 0 l-64 336 l-66 -336 ZM205 903 q0 -25 17 -42.5 q17 -17.5 40 -17.5 q24 0 41 17.5 q17 17.5 17 42.5 q0 26 -17 43.5 q-17 17.5 -41 17.5 q-23 0 -40 -17.5 q-17 -17.5 -17 -43.5 Z" /><glyph glyph-name="AE" unicode="æ" d="M730 107 l0 -107 l-398 0 l0 133 l-173 0 l-48 -133 l-126 0 l277 750 l457 0 l0 -108 l-217 0 l0 -188 l178 0 l0 -107 l-178 0 l0 -240 l228 0 ZM332 238 l0 353 l-7 1 l-129 -354 l136 0 Z" /><glyph glyph-name="Ccedilla" unicode="ç" d="M193 -167 q22 -11 38.5 -15 q16.5 -4 36.5 -4 q21 0 35 8.5 q14 8.5 14 27.5 q0 13 -7.5 20.5 q-7.5 7.5 -19.5 11 q-12 3.5 -26.5 3.5 q-14.5 0 -27.5 -1 l-22 27 l42 75 q-58 3 -99 21 q-41 18 -67 48 q-26 30 -38 72 q-12 42 -12 93 l0 303 q0 55 14 100 q14 45 43.5 76.5 q29.5 31.5 75 48.5 q45.5 17 109.5 17 q65 0 108 -16.5 q43 -16.5 68.5 -47.5 q25.5 -31 35.5 -75.5 q10 -44.5 10 -100.5 q0 -6 -0.5 -13 q-0.5 -7 -0.5 -13 l0 -13 l-152 0 l0 14 q0 6 0.5 13.5 q0.5 7.5 0.5 15.5 q0 66 -17 98 q-17 32 -55 32 q-33 0 -50.5 -24.5 q-17.5 -24.5 -17.5 -69.5 l0 -375 q0 -56 21 -77.5 q21 -21.5 50 -21.5 q35 0 54.5 26.5 q19.5 26.5 19.5 91.5 q0 7 -0.5 14 q-0.5 7 -0.5 13 l0 13 l153 0 l0 -8 q0 -4 0.5 -8 q0.5 -4 0.5 -9 q0 -47 -9.5 -88 q-9.5 -41 -31.5 -72.5 q-22 -31.5 -59 -51.5 q-37 -20 -92 -25 l-33 -51 l2 -2 q22 0 42 -4 q20 -4 35 -14 q15 -10 24 -25.5 q9 -15.5 9 -37.5 q0 -24 -9.5 -41 q-9.5 -17 -26 -28 q-16.5 -11 -38 -16 q-21.5 -5 -45.5 -5 q-29 0 -54 7 q-25 7 -48 19 l17 44 Z" /><glyph glyph-name="Egrave" unicode="è" d="M447 106 l0 -106 l-392 0 l0 750 l385 0 l0 -106 l-215 0 l0 -191 l176 0 l0 -106 l-176 0 l0 -241 l222 0 ZM246 897 l58 -97 l-62 0 l-90 97 l94 0 Z" /><glyph glyph-name="Eacute" unicode="é" d="M447 106 l0 -106 l-392 0 l0 750 l385 0 l0 -106 l-215 0 l0 -191 l176 0 l0 -106 l-176 0 l0 -241 l222 0 ZM266 800 l-63 0 l58 96 l92 0 l-87 -96 Z" /><glyph glyph-name="Ecircumflex" unicode="ê" d="M447 106 l0 -106 l-392 0 l0 750 l385 0 l0 -106 l-215 0 l0 -191 l176 0 l0 -106 l-176 0 l0 -241 l222 0 ZM298 883 l60 -83 l-58 0 l-40 49 l-38 -49 l-58 0 l60 83 l74 0 Z" /><glyph glyph-name="Edieresis" unicode="ë" d="M447 106 l0 -106 l-392 0 l0 750 l385 0 l0 -106 l-215 0 l0 -191 l176 0 l0 -106 l-176 0 l0 -241 l222 0 ZM90 949 l123 0 l0 -122 l-123 0 l0 122 ZM285 949 l123 0 l0 -122 l-123 0 l0 122 Z" /><glyph glyph-name="Igrave" unicode="ì" d="M55 750 l170 0 l0 -750 l-170 0 l0 750 ZM148 897 l58 -97 l-62 0 l-90 97 l94 0 Z" /><glyph glyph-name="Iacute" unicode="í" d="M55 750 l170 0 l0 -750 l-170 0 l0 750 ZM143 800 l-63 0 l58 96 l92 0 l-87 -96 Z" /><glyph glyph-name="Icircumflex" unicode="î" d="M55 750 l170 0 l0 -750 l-170 0 l0 750 ZM179 883 l60 -83 l-58 0 l-40 49 l-38 -49 l-58 0 l60 83 l74 0 Z" /><glyph glyph-name="Idieresis" unicode="ï" d="M55 750 l170 0 l0 -750 l-170 0 l0 750 ZM-19 949 l123 0 l0 -122 l-123 0 l0 122 ZM176 949 l123 0 l0 -122 l-123 0 l0 122 Z" /><glyph glyph-name="Eth" unicode="ð" d="M67 0 l0 345 l-42 0 l0 85 l42 0 l0 320 l233 0 q132 0 190.5 -60.5 q58.5 -60.5 58.5 -178.5 l0 -271 q0 -116 -58.5 -178 q-58.5 -62 -190.5 -62 l-233 0 ZM288 107 q50 0 70.5 28 q20.5 28 20.5 75 l0 335 q0 50 -20.5 76.5 q-20.5 26.5 -70.5 26.5 l-53 0 l0 -218 l76 0 l0 -85 l-76 0 l0 -238 l53 0 Z" /><glyph glyph-name="Ntilde" unicode="ñ" d="M540 0 l-155 0 l-214 550 l0 -550 l-116 0 l0 750 l205 0 l165 -422 l0 422 l115 0 l0 -750 ZM195 814 q13 30 31 46.5 q18 16.5 43 16.5 q12 0 23 -4 q11 -4 21.5 -9 q10.5 -5 20 -9 q9.5 -4 17.5 -4 q10 0 18.5 5.5 q8.5 5.5 15.5 22.5 l39 -12 q-11 -29 -28.5 -47 q-17.5 -18 -46.5 -18 q-12 0 -23 4 q-11 4 -21.5 8.5 q-10.5 4.5 -20.5 8.5 q-10 4 -19 4 q-20 0 -32 -25 l-38 12 Z" /><glyph glyph-name="Ograve" unicode="ò" d="M40 539 q0 106 61.5 166 q61.5 60 188.5 60 q127 0 188 -59.5 q61 -59.5 61 -166.5 l0 -316 q0 -112 -61 -175 q-61 -63 -188 -63 q-128 0 -189 63 q-61 63 -61 175 l0 316 ZM367 558 q0 47 -19.5 74 q-19.5 27 -57.5 27 q-39 0 -58.5 -27 q-19.5 -27 -19.5 -74 l0 -364 q0 -103 78 -103 q77 0 77 103 l0 364 ZM285 897 l58 -97 l-62 0 l-90 97 l94 0 Z" /><glyph glyph-name="Oacute" unicode="ó" d="M40 539 q0 106 61.5 166 q61.5 60 188.5 60 q127 0 188 -59.5 q61 -59.5 61 -166.5 l0 -316 q0 -112 -61 -175 q-61 -63 -188 -63 q-128 0 -189 63 q-61 63 -61 175 l0 316 ZM367 558 q0 47 -19.5 74 q-19.5 27 -57.5 27 q-39 0 -58.5 -27 q-19.5 -27 -19.5 -74 l0 -364 q0 -103 78 -103 q77 0 77 103 l0 364 ZM307 800 l-63 0 l58 96 l92 0 l-87 -96 Z" /><glyph glyph-name="Ocircumflex" unicode="ô" d="M40 539 q0 106 61.5 166 q61.5 60 188.5 60 q127 0 188 -59.5 q61 -59.5 61 -166.5 l0 -316 q0 -112 -61 -175 q-61 -63 -188 -63 q-128 0 -189 63 q-61 63 -61 175 l0 316 ZM367 558 q0 47 -19.5 74 q-19.5 27 -57.5 27 q-39 0 -58.5 -27 q-19.5 -27 -19.5 -74 l0 -364 q0 -103 78 -103 q77 0 77 103 l0 364 ZM329 883 l60 -83 l-58 0 l-40 49 l-38 -49 l-58 0 l60 83 l74 0 Z" /><glyph glyph-name="Otilde" unicode="õ" d="M40 539 q0 106 61.5 166 q61.5 60 188.5 60 q127 0 188 -59.5 q61 -59.5 61 -166.5 l0 -316 q0 -112 -61 -175 q-61 -63 -188 -63 q-128 0 -189 63 q-61 63 -61 175 l0 316 ZM367 558 q0 47 -19.5 74 q-19.5 27 -57.5 27 q-39 0 -58.5 -27 q-19.5 -27 -19.5 -74 l0 -364 q0 -103 78 -103 q77 0 77 103 l0 364 ZM175 814 q13 30 31 46.5 q18 16.5 43 16.5 q12 0 23 -4 q11 -4 21.5 -9 q10.5 -5 20 -9 q9.5 -4 17.5 -4 q10 0 18.5 5.5 q8.5 5.5 15.5 22.5 l39 -12 q-11 -29 -28.5 -47 q-17.5 -18 -46.5 -18 q-12 0 -23 4 q-11 4 -21.5 8.5 q-10.5 4.5 -20.5 8.5 q-10 4 -19 4 q-20 0 -32 -25 l-38 12 Z" /><glyph glyph-name="Odieresis" unicode="ö" d="M40 539 q0 106 61.5 166 q61.5 60 188.5 60 q127 0 188 -59.5 q61 -59.5 61 -166.5 l0 -316 q0 -112 -61 -175 q-61 -63 -188 -63 q-128 0 -189 63 q-61 63 -61 175 l0 316 ZM367 558 q0 47 -19.5 74 q-19.5 27 -57.5 27 q-39 0 -58.5 -27 q-19.5 -27 -19.5 -74 l0 -364 q0 -103 78 -103 q77 0 77 103 l0 364 ZM131 949 l123 0 l0 -122 l-123 0 l0 122 ZM326 949 l123 0 l0 -122 l-123 0 l0 122 Z" /><glyph glyph-name="multiply" unicode="×" d="M60 446 l87 86 l169 -169 l169 169 l86 -86 l-169 -169 l169 -170 l-86 -86 l-169 170 l-169 -170 l-87 86 l170 169 l-170 170 Z" /><glyph glyph-name="Oslash" unicode="ø" d="M40 532 q0 53 15.5 96 q15.5 43 46.5 73.5 q31 30.5 78.5 47 q47.5 16.5 111.5 16.5 q53 0 94 -11.5 q41 -11.5 71 -32.5 l33 56 l53 -30 l-41 -70 q41 -58 41 -145 l0 -302 q0 -56 -15 -101 q-15 -45 -46 -77 q-31 -32 -78.5 -49.5 q-47.5 -17.5 -111.5 -17.5 q-107 0 -168 47 l-33 -56 l-51 29 l41 71 q-41 59 -41 154 l0 302 ZM292 91 q41 0 60 27 q19 27 19 78 l0 257 l-159 -271 q2 -45 21.5 -68 q19.5 -23 58.5 -23 ZM292 659 q-42 0 -61 -29 q-19 -29 -19 -77 l0 -253 l158 272 q-3 40 -22 63.5 q-19 23.5 -56 23.5 Z" /><glyph glyph-name="Ugrave" unicode="ù" d="M220 750 l0 -559 q0 -46 21 -72.5 q21 -26.5 62 -26.5 q42 0 62 26.5 q20 26.5 20 72.5 l0 559 l136 0 l0 -539 q0 -112 -63 -169 q-63 -57 -168 -57 q-64 0 -109.5 17 q-45.5 17 -74.5 47 q-29 30 -42.5 71.5 q-13.5 41.5 -13.5 90.5 l0 539 l170 0 ZM285 897 l58 -97 l-62 0 l-90 97 l94 0 Z" /><glyph glyph-name="Uacute" unicode="ú" d="M220 750 l0 -559 q0 -46 21 -72.5 q21 -26.5 62 -26.5 q42 0 62 26.5 q20 26.5 20 72.5 l0 559 l136 0 l0 -539 q0 -112 -63 -169 q-63 -57 -168 -57 q-64 0 -109.5 17 q-45.5 17 -74.5 47 q-29 30 -42.5 71.5 q-13.5 41.5 -13.5 90.5 l0 539 l170 0 ZM341 800 l-63 0 l58 96 l92 0 l-87 -96 Z" /><glyph glyph-name="Ucircumflex" unicode="û" d="M220 750 l0 -559 q0 -46 21 -72.5 q21 -26.5 62 -26.5 q42 0 62 26.5 q20 26.5 20 72.5 l0 559 l136 0 l0 -539 q0 -112 -63 -169 q-63 -57 -168 -57 q-64 0 -109.5 17 q-45.5 17 -74.5 47 q-29 30 -42.5 71.5 q-13.5 41.5 -13.5 90.5 l0 539 l170 0 ZM343 883 l60 -83 l-58 0 l-40 49 l-38 -49 l-58 0 l60 83 l74 0 Z" /><glyph glyph-name="Udieresis" unicode="ü" d="M220 750 l0 -559 q0 -46 21 -72.5 q21 -26.5 62 -26.5 q42 0 62 26.5 q20 26.5 20 72.5 l0 559 l136 0 l0 -539 q0 -112 -63 -169 q-63 -57 -168 -57 q-64 0 -109.5 17 q-45.5 17 -74.5 47 q-29 30 -42.5 71.5 q-13.5 41.5 -13.5 90.5 l0 539 l170 0 ZM333 949 l123 0 l0 -122 l-123 0 l0 122 ZM138 949 l123 0 l0 -122 l-123 0 l0 122 Z" /><glyph glyph-name="Yacute" unicode="ý" d="M183 750 l97 -315 l92 315 l128 0 l-162 -468 l0 -282 l-172 0 l0 282 l-165 468 l182 0 ZM292 800 l-63 0 l58 96 l92 0 l-87 -96 Z" /><glyph glyph-name="Thorn" unicode="þ" d="M223 179 l0 -179 l-168 0 l0 750 l168 0 l0 -121 l91 0 q102 0 156.5 -56 q54.5 -56 54.5 -164 q0 -34 -9 -74.5 q-9 -40.5 -35.5 -75 q-26.5 -34.5 -75.5 -57.5 q-49 -23 -129 -23 l-53 0 ZM223 526 l0 -244 l35 0 q29 0 48 10.5 q19 10.5 30 28 q11 17.5 15.5 40.5 q4.5 23 4.5 48 q0 52 -22 84.5 q-22 32.5 -78 32.5 l-33 0 Z" /><glyph glyph-name="germandbls" unicode="ß" d="M50 557 q0 109 54 158 q54 49 157 49 q101 0 153.5 -46.5 q52.5 -46.5 52.5 -138.5 l0 -13 q0 -58 -17.5 -91 q-17.5 -33 -57.5 -61 l0 -2 q29 -12 47 -28 q18 -16 28 -38.5 q10 -22.5 14 -51.5 q4 -29 4 -66 l0 -10 q0 -57 -10 -99.5 q-10 -42.5 -33.5 -70 q-23.5 -27.5 -61.5 -41 q-38 -13.5 -95 -13.5 l-53 0 l0 88 l18 0 q27 0 43 8 q16 8 24.5 23 q8.5 15 11 35.5 q2.5 20.5 2.5 44.5 l0 60 q0 58 -19 82 q-19 24 -61 24 l-8 0 l0 76 l13 8 q34 21 48 47 q14 26 14 63 l0 37 q0 45 -16 62.5 q-16 17.5 -43 17.5 q-27 0 -43.5 -18 q-16.5 -18 -16.5 -63 l0 -589 l-149 0 l0 557 Z" /><glyph glyph-name="agrave" unicode="à" d="M223 450 q-23 0 -36 -15.5 q-13 -15.5 -13 -43.5 l0 -32 l-137 0 l0 21 q0 37 10.5 66.5 q10.5 29.5 33 50.5 q22.5 21 57.5 32.5 q35 11.5 84 11.5 q101 0 149 -42 q48 -42 48 -139 l0 -360 l-130 0 l-4 51 l-3 0 q-26 -35 -62.5 -49 q-36.5 -14 -74.5 -14 q-67 0 -95.5 37 q-28.5 37 -28.5 107 l0 8 q0 49 20 81.5 q20 32.5 54 53 q34 20.5 79.5 31 q45.5 10.5 96.5 15.5 l0 70 q0 28 -12.5 43.5 q-12.5 15.5 -35.5 15.5 ZM271 246 q-52 -5 -76 -23.5 q-24 -18.5 -25 -65.5 l0 -12 q0 -32 10.5 -45.5 q10.5 -13.5 32.5 -13.5 q17 0 34 9 q17 9 24 23 l0 128 ZM213 707 l58 -97 l-62 0 l-90 97 l94 0 Z" /><glyph glyph-name="aacute" unicode="á" d="M223 450 q-23 0 -36 -15.5 q-13 -15.5 -13 -43.5 l0 -32 l-137 0 l0 21 q0 37 10.5 66.5 q10.5 29.5 33 50.5 q22.5 21 57.5 32.5 q35 11.5 84 11.5 q101 0 149 -42 q48 -42 48 -139 l0 -360 l-130 0 l-4 51 l-3 0 q-26 -35 -62.5 -49 q-36.5 -14 -74.5 -14 q-67 0 -95.5 37 q-28.5 37 -28.5 107 l0 8 q0 49 20 81.5 q20 32.5 54 53 q34 20.5 79.5 31 q45.5 10.5 96.5 15.5 l0 70 q0 28 -12.5 43.5 q-12.5 15.5 -35.5 15.5 ZM271 246 q-52 -5 -76 -23.5 q-24 -18.5 -25 -65.5 l0 -12 q0 -32 10.5 -45.5 q10.5 -13.5 32.5 -13.5 q17 0 34 9 q17 9 24 23 l0 128 ZM266 611 l-63 0 l58 96 l92 0 l-87 -96 Z" /><glyph glyph-name="acircumflex" unicode="â" d="M223 450 q-23 0 -36 -15.5 q-13 -15.5 -13 -43.5 l0 -32 l-137 0 l0 21 q0 37 10.5 66.5 q10.5 29.5 33 50.5 q22.5 21 57.5 32.5 q35 11.5 84 11.5 q101 0 149 -42 q48 -42 48 -139 l0 -360 l-130 0 l-4 51 l-3 0 q-26 -35 -62.5 -49 q-36.5 -14 -74.5 -14 q-67 0 -95.5 37 q-28.5 37 -28.5 107 l0 8 q0 49 20 81.5 q20 32.5 54 53 q34 20.5 79.5 31 q45.5 10.5 96.5 15.5 l0 70 q0 28 -12.5 43.5 q-12.5 15.5 -35.5 15.5 ZM271 246 q-52 -5 -76 -23.5 q-24 -18.5 -25 -65.5 l0 -12 q0 -32 10.5 -45.5 q10.5 -13.5 32.5 -13.5 q17 0 34 9 q17 9 24 23 l0 128 ZM267 694 l60 -83 l-58 0 l-40 49 l-38 -49 l-58 0 l60 83 l74 0 Z" /><glyph glyph-name="atilde" unicode="ã" d="M223 450 q-23 0 -36 -15.5 q-13 -15.5 -13 -43.5 l0 -32 l-137 0 l0 21 q0 37 10.5 66.5 q10.5 29.5 33 50.5 q22.5 21 57.5 32.5 q35 11.5 84 11.5 q101 0 149 -42 q48 -42 48 -139 l0 -360 l-130 0 l-4 51 l-3 0 q-26 -35 -62.5 -49 q-36.5 -14 -74.5 -14 q-67 0 -95.5 37 q-28.5 37 -28.5 107 l0 8 q0 49 20 81.5 q20 32.5 54 53 q34 20.5 79.5 31 q45.5 10.5 96.5 15.5 l0 70 q0 28 -12.5 43.5 q-12.5 15.5 -35.5 15.5 ZM271 246 q-52 -5 -76 -23.5 q-24 -18.5 -25 -65.5 l0 -12 q0 -32 10.5 -45.5 q10.5 -13.5 32.5 -13.5 q17 0 34 9 q17 9 24 23 l0 128 ZM126 616 q13 30 31 46.5 q18 16.5 43 16.5 q12 0 23 -4 q11 -4 21.5 -9 q10.5 -5 20 -9 q9.5 -4 17.5 -4 q10 0 18.5 5.5 q8.5 5.5 15.5 22.5 l39 -12 q-11 -29 -28.5 -47 q-17.5 -18 -46.5 -18 q-12 0 -23 4 q-11 4 -21.5 8.5 q-10.5 4.5 -20.5 8.5 q-10 4 -19 4 q-20 0 -32 -25 l-38 12 Z" /><glyph glyph-name="adieresis" unicode="ä" d="M223 450 q-23 0 -36 -15.5 q-13 -15.5 -13 -43.5 l0 -32 l-137 0 l0 21 q0 37 10.5 66.5 q10.5 29.5 33 50.5 q22.5 21 57.5 32.5 q35 11.5 84 11.5 q101 0 149 -42 q48 -42 48 -139 l0 -360 l-130 0 l-4 51 l-3 0 q-26 -35 -62.5 -49 q-36.5 -14 -74.5 -14 q-67 0 -95.5 37 q-28.5 37 -28.5 107 l0 8 q0 49 20 81.5 q20 32.5 54 53 q34 20.5 79.5 31 q45.5 10.5 96.5 15.5 l0 70 q0 28 -12.5 43.5 q-12.5 15.5 -35.5 15.5 ZM264 734 l123 0 l0 -122 l-123 0 l0 122 ZM69 734 l123 0 l0 -122 l-123 0 l0 122 ZM271 246 q-52 -5 -76 -23.5 q-24 -18.5 -25 -65.5 l0 -12 q0 -32 10.5 -45.5 q10.5 -13.5 32.5 -13.5 q17 0 34 9 q17 9 24 23 l0 128 Z" /><glyph glyph-name="aring" unicode="å" d="M223 450 q-23 0 -36 -15.5 q-13 -15.5 -13 -43.5 l0 -32 l-137 0 l0 21 q0 37 10.5 66.5 q10.5 29.5 33 50.5 q22.5 21 57.5 32.5 q35 11.5 84 11.5 q101 0 149 -42 q48 -42 48 -139 l0 -360 l-130 0 l-4 51 l-3 0 q-26 -35 -62.5 -49 q-36.5 -14 -74.5 -14 q-67 0 -95.5 37 q-28.5 37 -28.5 107 l0 8 q0 49 20 81.5 q20 32.5 54 53 q34 20.5 79.5 31 q45.5 10.5 96.5 15.5 l0 70 q0 28 -12.5 43.5 q-12.5 15.5 -35.5 15.5 ZM114 695 q0 23 9 43.5 q9 20.5 24 36 q15 15.5 35.5 24.5 q20.5 9 43.5 9 q24 0 44.5 -9 q20.5 -9 35.5 -24.5 q15 -15.5 24 -36 q9 -20.5 9 -43.5 q0 -23 -9 -43.5 q-9 -20.5 -24 -35.5 q-15 -15 -35.5 -24 q-20.5 -9 -44.5 -9 q-23 0 -43.5 9 q-20.5 9 -35.5 24 q-15 15 -24 35.5 q-9 20.5 -9 43.5 ZM271 246 q-52 -5 -76 -23.5 q-24 -18.5 -25 -65.5 l0 -12 q0 -32 10.5 -45.5 q10.5 -13.5 32.5 -13.5 q17 0 34 9 q17 9 24 23 l0 128 ZM169 695 q0 -25 17 -42.5 q17 -17.5 40 -17.5 q24 0 41 17.5 q17 17.5 17 42.5 q0 26 -17 43.5 q-17 17.5 -41 17.5 q-23 0 -40 -17.5 q-17 -17.5 -17 -43.5 Z" /><glyph glyph-name="ae" unicode="æ" d="M666 180 l0 -21 q0 -76 -45 -123.5 q-45 -47.5 -146 -47.5 q-55 0 -91 14.5 q-36 14.5 -59 40.5 q-26 -25 -64 -40 q-38 -15 -90 -15 q-82 0 -116.5 37 q-34.5 37 -34.5 115 q0 53 21 86.5 q21 33.5 56.5 53 q35.5 19.5 81 28.5 q45.5 9 94.5 14 l0 62 q0 29 -11.5 46 q-11.5 17 -34.5 17 q-24 0 -37 -17.5 q-13 -17.5 -13 -45.5 l0 -25 l-140 1 q-1 53 14.5 88 q15.5 35 42 55.5 q26.5 20.5 60.5 29 q34 8.5 70 8.5 q82 0 130 -34 q23 15 54 24.5 q31 9.5 69 9.5 q104 0 147 -51.5 q43 -51.5 43 -151.5 l0 -111 l-247 0 l0 -72 q0 -32 13 -52.5 q13 -20.5 43 -20.5 q32 0 45.5 20.5 q13.5 20.5 13.5 52.5 l0 25 l131 0 ZM420 312 l112 0 l0 65 q0 34 -12.5 53 q-12.5 19 -42.5 19 q-29 0 -43 -18.5 q-14 -18.5 -14 -53.5 l0 -65 ZM273 246 q-56 -8 -79.5 -27.5 q-23.5 -19.5 -23.5 -65.5 q0 -40 13.5 -52.5 q13.5 -12.5 35.5 -12.5 q17 0 31.5 8 q14.5 8 22.5 21 l0 129 Z" /><glyph glyph-name="ccedilla" unicode="ç" d="M145 -167 q22 -11 38.5 -15 q16.5 -4 36.5 -4 q21 0 35 8.5 q14 8.5 14 27.5 q0 13 -7.5 20.5 q-7.5 7.5 -19.5 11 q-12 3.5 -26.5 3.5 q-14.5 0 -27.5 -1 l-22 27 l45 78 q-95 7 -135.5 60.5 q-40.5 53.5 -40.5 148.5 l0 134 q0 98 48 153.5 q48 55.5 158 55.5 q53 0 89 -11.5 q36 -11.5 57.5 -35 q21.5 -23.5 31 -58 q9.5 -34.5 9.5 -80.5 l0 -38 l-137 0 l0 57 q0 35 -12 53.5 q-12 18.5 -39 18.5 q-27 0 -39.5 -18.5 q-12.5 -18.5 -12.5 -53.5 l0 -220 q0 -32 12 -52.5 q12 -20.5 42 -20.5 q30 0 42 20.5 q12 20.5 12 52.5 l0 48 l138 0 l0 -42 q0 -78 -39.5 -121 q-39.5 -43 -122.5 -50 l-35 -54 l2 -2 q22 0 42 -4 q20 -4 35 -14 q15 -10 24 -25.5 q9 -15.5 9 -37.5 q0 -24 -9.5 -41 q-9.5 -17 -26 -28 q-16.5 -11 -38 -16 q-21.5 -5 -45.5 -5 q-29 0 -54 7 q-25 7 -48 19 l17 44 Z" /><glyph glyph-name="egrave" unicode="è" d="M432 180 l0 -21 q0 -76 -45.5 -123.5 q-45.5 -47.5 -146.5 -47.5 q-56 0 -95 14.5 q-39 14.5 -63.5 41.5 q-24.5 27 -35.5 66 q-11 39 -11 88 l0 134 q0 100 49.5 154.5 q49.5 54.5 157.5 54.5 q104 0 147.5 -51 q43.5 -51 43.5 -151 l0 -109 l-247 0 l0 -75 q0 -73 56 -73 q57 0 57 73 l0 25 l133 0 ZM296 378 q0 71 -55 71 q-55 0 -55 -71 l0 -64 l110 0 l0 64 ZM228 707 l58 -97 l-62 0 l-90 97 l94 0 Z" /><glyph glyph-name="eacute" unicode="é" d="M432 180 l0 -21 q0 -76 -45.5 -123.5 q-45.5 -47.5 -146.5 -47.5 q-56 0 -95 14.5 q-39 14.5 -63.5 41.5 q-24.5 27 -35.5 66 q-11 39 -11 88 l0 134 q0 100 49.5 154.5 q49.5 54.5 157.5 54.5 q104 0 147.5 -51 q43.5 -51 43.5 -151 l0 -109 l-247 0 l0 -75 q0 -73 56 -73 q57 0 57 73 l0 25 l133 0 ZM296 378 q0 71 -55 71 q-55 0 -55 -71 l0 -64 l110 0 l0 64 ZM266 611 l-63 0 l58 96 l92 0 l-87 -96 Z" /><glyph glyph-name="ecircumflex" unicode="ê" d="M432 180 l0 -21 q0 -76 -45.5 -123.5 q-45.5 -47.5 -146.5 -47.5 q-56 0 -95 14.5 q-39 14.5 -63.5 41.5 q-24.5 27 -35.5 66 q-11 39 -11 88 l0 134 q0 100 49.5 154.5 q49.5 54.5 157.5 54.5 q104 0 147.5 -51 q43.5 -51 43.5 -151 l0 -109 l-247 0 l0 -75 q0 -73 56 -73 q57 0 57 73 l0 25 l133 0 ZM296 378 q0 71 -55 71 q-55 0 -55 -71 l0 -64 l110 0 l0 64 ZM267 694 l60 -83 l-58 0 l-40 49 l-38 -49 l-58 0 l60 83 l74 0 Z" /><glyph glyph-name="edieresis" unicode="ë" d="M432 180 l0 -21 q0 -76 -45.5 -123.5 q-45.5 -47.5 -146.5 -47.5 q-56 0 -95 14.5 q-39 14.5 -63.5 41.5 q-24.5 27 -35.5 66 q-11 39 -11 88 l0 134 q0 100 49.5 154.5 q49.5 54.5 157.5 54.5 q104 0 147.5 -51 q43.5 -51 43.5 -151 l0 -109 l-247 0 l0 -75 q0 -73 56 -73 q57 0 57 73 l0 25 l133 0 ZM296 378 q0 71 -55 71 q-55 0 -55 -71 l0 -64 l110 0 l0 64 ZM82 734 l123 0 l0 -122 l-123 0 l0 122 ZM277 734 l123 0 l0 -122 l-123 0 l0 122 Z" /><glyph glyph-name="igrave" unicode="ì" d="M50 529 l149 0 l0 -529 l-149 0 l0 529 ZM133 707 l58 -97 l-62 0 l-90 97 l94 0 Z" /><glyph glyph-name="iacute" unicode="í" d="M50 529 l149 0 l0 -529 l-149 0 l0 529 ZM139 611 l-63 0 l58 96 l92 0 l-87 -96 Z" /><glyph glyph-name="icircumflex" unicode="î" d="M56 529 l149 0 l0 -529 l-149 0 l0 529 ZM166 694 l60 -83 l-58 0 l-40 49 l-38 -49 l-58 0 l60 83 l74 0 Z" /><glyph glyph-name="idieresis" unicode="ï" d="M50 529 l149 0 l0 -529 l-149 0 l0 529 ZM-15 725 l107 0 l0 -113 l-107 0 l0 113 ZM157 725 l107 0 l0 -113 l-107 0 l0 113 Z" /><glyph glyph-name="eth" unicode="ð" d="M154 563 l-22 66 l78 25 q-30 29 -76 54 l102 64 q31 -17 56.5 -35.5 q25.5 -18.5 46.5 -39.5 l65 21 l21 -65 l-40 -14 q33 -54 47 -123.5 q14 -69.5 15 -163.5 l0 -7 l0 -164 q0 -92 -49 -142.5 q-49 -50.5 -157 -50.5 q-108 0 -157 50.5 q-49 50.5 -49 142.5 l0 134 q0 94 48.5 151.5 q48.5 57.5 144.5 57.5 q14 0 31.5 -3 q17.5 -3 33.5 -10 q-6 43 -34 87 l-105 -35 ZM241 430 q-27 0 -41 -18.5 q-14 -18.5 -14 -53.5 l0 -203 q0 -32 12.5 -52.5 q12.5 -20.5 42.5 -20.5 q30 0 42.5 20.5 q12.5 20.5 12.5 52.5 l0 203 q0 35 -14 53.5 q-14 18.5 -41 18.5 Z" /><glyph glyph-name="ntilde" unicode="ñ" d="M304 0 l0 368 q0 32 -8.5 52 q-8.5 20 -38.5 20 q-19 0 -34 -11 q-15 -11 -25 -25 l0 -404 l-148 0 l0 529 l142 0 l0 -45 l2 0 q26 25 59.5 39.5 q33.5 14.5 67.5 14.5 q74 0 104 -40.5 q30 -40.5 30 -128.5 l0 -369 l-151 0 ZM58 626 q21 51 51.5 78 q30.5 27 72.5 27 q20 0 38.5 -6.5 q18.5 -6.5 36 -14.5 q17.5 -8 32.5 -14.5 q15 -6.5 29 -6.5 q16 0 30.5 9.5 q14.5 9.5 26.5 36.5 l64 -20 q-17 -48 -46 -78.5 q-29 -30.5 -79 -30.5 q-20 0 -38 6.5 q-18 6.5 -35.5 14.5 q-17.5 8 -34 14.5 q-16.5 6.5 -32.5 6.5 q-33 0 -52 -42 l-64 20 Z" /><glyph glyph-name="ograve" unicode="ò" d="M241 -12 q-54 0 -93 15 q-39 15 -64 42 q-25 27 -37 65 q-12 38 -12 84 l0 141 q0 94 49 150 q49 56 157 56 q108 0 157 -56 q49 -56 49 -150 l0 -141 q0 -46 -12 -84 q-12 -38 -37 -65 q-25 -27 -64 -42 q-39 -15 -93 -15 ZM241 447 q-27 0 -41 -18.5 q-14 -18.5 -14 -53.5 l0 -220 q0 -32 12.5 -52.5 q12.5 -20.5 42.5 -20.5 q30 0 42.5 20.5 q12.5 20.5 12.5 52.5 l0 220 q0 35 -14 53.5 q-14 18.5 -41 18.5 ZM213 707 l58 -97 l-62 0 l-90 97 l94 0 Z" /><glyph glyph-name="oacute" unicode="ó" d="M241 -12 q-54 0 -93 15 q-39 15 -64 42 q-25 27 -37 65 q-12 38 -12 84 l0 141 q0 94 49 150 q49 56 157 56 q108 0 157 -56 q49 -56 49 -150 l0 -141 q0 -46 -12 -84 q-12 -38 -37 -65 q-25 -27 -64 -42 q-39 -15 -93 -15 ZM241 447 q-27 0 -41 -18.5 q-14 -18.5 -14 -53.5 l0 -220 q0 -32 12.5 -52.5 q12.5 -20.5 42.5 -20.5 q30 0 42.5 20.5 q12.5 20.5 12.5 52.5 l0 220 q0 35 -14 53.5 q-14 18.5 -41 18.5 ZM266 611 l-63 0 l58 96 l92 0 l-87 -96 Z" /><glyph glyph-name="ocircumflex" unicode="ô" d="M241 -12 q-54 0 -93 15 q-39 15 -64 42 q-25 27 -37 65 q-12 38 -12 84 l0 141 q0 94 49 150 q49 56 157 56 q108 0 157 -56 q49 -56 49 -150 l0 -141 q0 -46 -12 -84 q-12 -38 -37 -65 q-25 -27 -64 -42 q-39 -15 -93 -15 ZM241 447 q-27 0 -41 -18.5 q-14 -18.5 -14 -53.5 l0 -220 q0 -32 12.5 -52.5 q12.5 -20.5 42.5 -20.5 q30 0 42.5 20.5 q12.5 20.5 12.5 52.5 l0 220 q0 35 -14 53.5 q-14 18.5 -41 18.5 ZM277 694 l60 -83 l-58 0 l-40 49 l-38 -49 l-58 0 l60 83 l74 0 Z" /><glyph glyph-name="otilde" unicode="õ" d="M241 -12 q-54 0 -93 15 q-39 15 -64 42 q-25 27 -37 65 q-12 38 -12 84 l0 141 q0 94 49 150 q49 56 157 56 q108 0 157 -56 q49 -56 49 -150 l0 -141 q0 -46 -12 -84 q-12 -38 -37 -65 q-25 -27 -64 -42 q-39 -15 -93 -15 ZM241 447 q-27 0 -41 -18.5 q-14 -18.5 -14 -53.5 l0 -220 q0 -32 12.5 -52.5 q12.5 -20.5 42.5 -20.5 q30 0 42.5 20.5 q12.5 20.5 12.5 52.5 l0 220 q0 35 -14 53.5 q-14 18.5 -41 18.5 ZM126 616 q13 30 31 46.5 q18 16.5 43 16.5 q12 0 23 -4 q11 -4 21.5 -9 q10.5 -5 20 -9 q9.5 -4 17.5 -4 q10 0 18.5 5.5 q8.5 5.5 15.5 22.5 l39 -12 q-11 -29 -28.5 -47 q-17.5 -18 -46.5 -18 q-12 0 -23 4 q-11 4 -21.5 8.5 q-10.5 4.5 -20.5 8.5 q-10 4 -19 4 q-20 0 -32 -25 l-38 12 Z" /><glyph glyph-name="odieresis" unicode="ö" d="M241 -12 q-54 0 -93 15 q-39 15 -64 42 q-25 27 -37 65 q-12 38 -12 84 l0 141 q0 94 49 150 q49 56 157 56 q108 0 157 -56 q49 -56 49 -150 l0 -141 q0 -46 -12 -84 q-12 -38 -37 -65 q-25 -27 -64 -42 q-39 -15 -93 -15 ZM241 447 q-27 0 -41 -18.5 q-14 -18.5 -14 -53.5 l0 -220 q0 -32 12.5 -52.5 q12.5 -20.5 42.5 -20.5 q30 0 42.5 20.5 q12.5 20.5 12.5 52.5 l0 220 q0 35 -14 53.5 q-14 18.5 -41 18.5 ZM81 734 l123 0 l0 -122 l-123 0 l0 122 ZM276 734 l123 0 l0 -122 l-123 0 l0 122 Z" /><glyph glyph-name="divide" unicode="÷" d="M47 214 l0 123 l537 0 l0 -123 l-537 0 ZM316 576 q18 0 34.5 -7 q16.5 -7 28.5 -19 q12 -12 19 -28 q7 -16 7 -34 q0 -37 -26 -63 q-26 -26 -63 -26 q-37 0 -63 26 q-26 26 -26 63 q0 18 7 34 q7 16 19 28 q12 12 28.5 19 q16.5 7 34.5 7 ZM316 151 q37 0 63 -26 q26 -26 26 -63 q0 -18 -7 -34 q-7 -16 -19 -28 q-12 -12 -28.5 -19 q-16.5 -7 -34.5 -7 q-18 0 -34.5 7 q-16.5 7 -28.5 19 q-12 12 -19 28 q-7 16 -7 34 q0 37 26 63 q26 26 63 26 Z" /><glyph glyph-name="oslash" unicode="ø" d="M390 571 l45 -26 l-37 -62 q25 -28 37 -66 q12 -38 12 -85 l0 -134 q0 -46 -12 -84.5 q-12 -38.5 -37 -66.5 q-25 -28 -64 -43.5 q-39 -15.5 -93 -15.5 q-36 0 -65 7 q-29 7 -52 20 l-34 -58 l-43 24 l38 65 q-26 28 -38 66.5 q-12 38.5 -12 85.5 l0 134 q0 47 12 85.5 q12 38.5 37 66 q25 27.5 64 42.5 q39 15 93 15 q70 0 116 -26 l33 56 ZM241 447 q-27 0 -41 -18.5 q-14 -18.5 -14 -53.5 l0 -155 l107 184 q-11 43 -52 43 ZM241 82 q30 0 42.5 20.5 q12.5 20.5 12.5 52.5 l0 153 l-107 -183 q5 -20 17 -31.5 q12 -11.5 35 -11.5 Z" /><glyph glyph-name="ugrave" unicode="ù" d="M196 529 l0 -377 q0 -38 13.5 -51.5 q13.5 -13.5 33.5 -13.5 q20 0 35 10.5 q15 10.5 24 23.5 l0 408 l148 0 l0 -529 l-143 0 l0 42 l-2 0 q-46 -54 -126 -54 q-69 0 -101.5 40.5 q-32.5 40.5 -32.5 128.5 l0 372 l151 0 ZM213 707 l58 -97 l-62 0 l-90 97 l94 0 Z" /><glyph glyph-name="uacute" unicode="ú" d="M196 529 l0 -377 q0 -38 13.5 -51.5 q13.5 -13.5 33.5 -13.5 q20 0 35 10.5 q15 10.5 24 23.5 l0 408 l148 0 l0 -529 l-143 0 l0 42 l-2 0 q-46 -54 -126 -54 q-69 0 -101.5 40.5 q-32.5 40.5 -32.5 128.5 l0 372 l151 0 ZM266 611 l-63 0 l58 96 l92 0 l-87 -96 Z" /><glyph glyph-name="ucircumflex" unicode="û" d="M196 529 l0 -377 q0 -38 13.5 -51.5 q13.5 -13.5 33.5 -13.5 q20 0 35 10.5 q15 10.5 24 23.5 l0 408 l148 0 l0 -529 l-143 0 l0 42 l-2 0 q-46 -54 -126 -54 q-69 0 -101.5 40.5 q-32.5 40.5 -32.5 128.5 l0 372 l151 0 ZM285 694 l60 -83 l-58 0 l-40 49 l-38 -49 l-58 0 l60 83 l74 0 Z" /><glyph glyph-name="udieresis" unicode="ü" d="M90 734 l123 0 l0 -122 l-123 0 l0 122 ZM285 734 l123 0 l0 -122 l-123 0 l0 122 ZM196 529 l0 -377 q0 -38 13.5 -51.5 q13.5 -13.5 33.5 -13.5 q20 0 35 10.5 q15 10.5 24 23.5 l0 408 l148 0 l0 -529 l-143 0 l0 42 l-2 0 q-46 -54 -126 -54 q-69 0 -101.5 40.5 q-32.5 40.5 -32.5 128.5 l0 372 l151 0 Z" /><glyph glyph-name="yacute" unicode="ý" d="M40 -56 q10 -2 17.5 -2.5 q7.5 -0.5 17.5 -0.5 q41 0 56 17.5 q15 17.5 15 43.5 q0 17 -4 33 q-4 16 -9 33 l-132 461 l154 0 l85 -369 l3 0 l79 369 l114 0 l-138 -516 q-22 -81 -67.5 -125 q-45.5 -44 -133.5 -46 q-15 0 -29 1 q-14 1 -28 3 l0 98 ZM266 611 l-63 0 l58 96 l92 0 l-87 -96 Z" /><glyph glyph-name="thorn" unicode="þ" d="M198 509 q20 14 46 23 q26 9 55 9 q85 0 120.5 -49.5 q35.5 -49.5 35.5 -158.5 l0 -131 q0 -102 -37.5 -158 q-37.5 -56 -125.5 -56 q-27 0 -52 8 q-25 8 -42 22 l0 -176 l-148 0 l0 908 l148 0 l0 -241 ZM198 108 q12 -11 26 -17.5 q14 -6.5 28 -6.5 q28 0 40 20 q12 20 12 54 l0 213 q0 32 -10 52.5 q-10 20.5 -40 20.5 q-17 0 -31 -9.5 q-14 -9.5 -25 -20.5 l0 -306 Z" /><glyph glyph-name="ydieresis" unicode="ÿ" d="M40 -56 q10 -2 17.5 -2.5 q7.5 -0.5 17.5 -0.5 q41 0 56 18 q15 18 15 44 q0 17 -4 33.5 q-4 16.5 -9 31.5 l-132 461 l154 0 l85 -369 l3 0 l79 369 l114 0 l-138 -516 q-22 -81 -67.5 -125 q-45.5 -44 -133.5 -46 q-15 0 -29 1 q-14 1 -28 3 l0 98 ZM68 734 l123 0 l0 -122 l-123 0 l0 122 ZM263 734 l123 0 l0 -122 l-123 0 l0 122 Z" /><glyph glyph-name="Dcroat" unicode="&#x110;" d="M67 0 l0 345 l-42 0 l0 85 l42 0 l0 320 l233 0 q132 0 190.5 -60.5 q58.5 -60.5 58.5 -178.5 l0 -271 q0 -116 -58.5 -178 q-58.5 -62 -190.5 -62 l-233 0 ZM288 107 q50 0 70.5 28 q20.5 28 20.5 75 l0 335 q0 50 -20.5 76.5 q-20.5 26.5 -70.5 26.5 l-53 0 l0 -218 l76 0 l0 -85 l-76 0 l0 -238 l53 0 Z" /><glyph glyph-name="dotlessi" unicode="&#x131;" d="M50 529 l149 0 l0 -529 l-149 0 l0 529 Z" /><glyph glyph-name="Lslash" unicode="&#x141;" d="M68 750 l170 0 l0 -284 l126 74 l0 -91 l-126 -74 l0 -263 l188 0 l0 -112 l-358 0 l0 275 l-50 -28 l0 92 l50 28 l0 383 Z" /><glyph glyph-name="lslash" unicode="&#x142;" d="M70 290 l-55 -32 l0 92 l55 32 l0 368 l148 0 l0 -282 l55 32 l0 -91 l-55 -32 l0 -377 l-148 0 l0 290 Z" /><glyph glyph-name="OE" unicode="&#x152;" d="M764 106 l0 -106 l-369 0 q-44 -15 -103 -15 q-66 0 -114 17.5 q-48 17.5 -78.5 49.5 q-30.5 32 -45 77 q-14.5 45 -14.5 101 l0 302 q0 53 15.5 96 q15.5 43 46.5 73.5 q31 30.5 78.5 47 q47.5 16.5 111.5 16.5 q30 0 56 -4 q26 -4 49 -11 l358 0 l0 -106 l-212 0 l0 -191 l176 0 l0 -106 l-176 0 l0 -241 l221 0 ZM369 562 q-2 45 -21 71 q-19 26 -58 26 q-42 0 -61 -29 q-19 -29 -19 -77 l0 -357 q0 -51 19 -78 q19 -27 61 -27 q74 0 79 95 l0 376 Z" /><glyph glyph-name="oe" unicode="&#x153;" d="M241 -12 q-54 0 -93 15 q-39 15 -64 42.5 q-25 27.5 -37 65.5 q-12 38 -12 84 l0 140 q0 94 49 150 q49 56 157 56 q43 0 78 -13 q35 -13 56 -33 q22 20 56.5 33 q34.5 13 74.5 13 q104 0 147 -51.5 q43 -51.5 43 -151.5 l0 -111 l-247 0 l0 -72 q0 -32 13 -52.5 q13 -20.5 43 -20.5 q32 0 45.5 20.5 q13.5 20.5 13.5 52.5 l0 25 l131 0 l0 -21 q0 -76 -45 -123.5 q-45 -47.5 -146 -47.5 q-46 0 -78.5 13.5 q-32.5 13.5 -52.5 36.5 q-20 -23 -54 -36.5 q-34 -13.5 -78 -13.5 ZM241 447 q-27 0 -41 -18.5 q-14 -18.5 -14 -53.5 l0 -220 q0 -32 12.5 -52.5 q12.5 -20.5 42.5 -20.5 q30 0 42.5 20.5 q12.5 20.5 12.5 52.5 l0 220 q0 35 -14 53.5 q-14 18.5 -41 18.5 ZM561 377 q0 34 -12.5 53 q-12.5 19 -42.5 19 q-29 0 -43 -18.5 q-14 -18.5 -14 -53.5 l0 -65 l112 0 l0 65 Z" /><glyph glyph-name="Scaron" unicode="&#x160;" d="M192 819 l-110 152 l106 0 l71 -90 l70 90 l107 0 l-111 -152 l-133 0 ZM156 238 q1 -80 25 -113.5 q24 -33.5 67 -33.5 q37 0 57 21 q20 21 20 59 q0 32 -21.5 58 q-21.5 26 -54.5 51 q-33 25 -70.5 51 q-37.5 26 -70.5 58.5 q-33 32.5 -54.5 74.5 q-21.5 42 -21.5 97 q0 96 59.5 150 q59.5 54 162.5 54 q51 0 92 -13 q41 -13 69 -41.5 q28 -28.5 42 -74 q14 -45.5 11 -111.5 l-140 0 q0 69 -18 101.5 q-18 32.5 -56 32.5 q-29 0 -46 -18.5 q-17 -18.5 -17 -51.5 q0 -33 22 -59.5 q22 -26.5 54.5 -51.5 q32.5 -25 70.5 -51 q38 -26 70.5 -58 q32.5 -32 54.5 -73 q22 -41 22 -95 q0 -43 -12 -82 q-12 -39 -39.5 -69 q-27.5 -30 -72.5 -47.5 q-45 -17.5 -111 -17.5 q-57 0 -102.5 15 q-45.5 15 -77 46.5 q-31.5 31.5 -47 79 q-15.5 47.5 -13.5 112.5 l146 0 Z" /><glyph glyph-name="scaron" unicode="&#x161;" d="M146 610 l-105 151 l101 0 l69 -89 l67 89 l103 0 l-107 -151 l-128 0 ZM143 182 q2 -54 18.5 -78 q16.5 -24 48.5 -24 q27 0 39.5 13.5 q12.5 13.5 12.5 34.5 q0 21 -17 36.5 q-17 15.5 -43 30.5 q-26 15 -56 31.5 q-30 16.5 -56 38.5 q-26 22 -43 52 q-17 30 -17 73 q0 39 13.5 67 q13.5 28 37.5 47 q24 19 56.5 28 q32.5 9 71.5 9 q42 0 77 -8.5 q35 -8.5 59 -29.5 q24 -21 36.5 -56.5 q12.5 -35.5 10.5 -89.5 l-121 0 q0 51 -15.5 71 q-15.5 20 -42.5 20 q-20 0 -31.5 -10.5 q-11.5 -10.5 -11.5 -31.5 q0 -23 17.5 -40 q17.5 -17 43 -32 q25.5 -15 56 -30.5 q30.5 -15.5 56 -36.5 q25.5 -21 43 -49.5 q17.5 -28.5 17.5 -69.5 q0 -78 -49.5 -119.5 q-49.5 -41.5 -143.5 -41.5 q-92 0 -145.5 47 q-53.5 47 -49.5 148 l128 0 Z" /><glyph glyph-name="Utilde" unicode="&#x168;" d="M186 854 q13 30 31 46.5 q18 16.5 43 16.5 q12 0 23 -4 q11 -4 21.5 -9 q10.5 -5 20 -9 q9.5 -4 17.5 -4 q10 0 18.5 5.5 q8.5 5.5 15.5 22.5 l39 -12 q-11 -29 -28.5 -47 q-17.5 -18 -46.5 -18 q-12 0 -23 4 q-11 4 -21.5 8.5 q-10.5 4.5 -20.5 8.5 q-10 4 -19 4 q-20 0 -32 -25 l-38 12 ZM220 750 l0 -559 q0 -46 21 -72.5 q21 -26.5 62 -26.5 q42 0 62 26.5 q20 26.5 20 72.5 l0 559 l136 0 l0 -539 q0 -112 -63 -169 q-63 -57 -168 -57 q-64 0 -109.5 17 q-45.5 17 -74.5 47 q-29 30 -42.5 71.5 q-13.5 41.5 -13.5 90.5 l0 539 l170 0 Z" /><glyph glyph-name="utilde" unicode="&#x169;" d="M126 616 q13 30 31 46.5 q18 16.5 43 16.5 q12 0 23 -4 q11 -4 21.5 -9 q10.5 -5 20 -9 q9.5 -4 17.5 -4 q10 0 18.5 5.5 q8.5 5.5 15.5 22.5 l39 -12 q-11 -29 -28.5 -47 q-17.5 -18 -46.5 -18 q-12 0 -23 4 q-11 4 -21.5 8.5 q-10.5 4.5 -20.5 8.5 q-10 4 -19 4 q-20 0 -32 -25 l-38 12 ZM196 529 l0 -377 q0 -38 13.5 -51.5 q13.5 -13.5 33.5 -13.5 q20 0 35 10.5 q15 10.5 24 23.5 l0 408 l148 0 l0 -529 l-143 0 l0 42 l-2 0 q-46 -54 -126 -54 q-69 0 -101.5 40.5 q-32.5 40.5 -32.5 128.5 l0 372 l151 0 Z" /><glyph glyph-name="Ydieresis" unicode="&#x178;" d="M183 750 l97 -315 l92 315 l128 0 l-162 -468 l0 -282 l-172 0 l0 282 l-165 468 l182 0 ZM106 949 l123 0 l0 -122 l-123 0 l0 122 ZM301 949 l123 0 l0 -122 l-123 0 l0 122 Z" /><glyph glyph-name="Zcaron" unicode="&#x17d;" d="M445 0 l-430 0 l0 103 l247 539 l-236 0 l0 108 l413 0 l0 -103 l-247 -540 l253 0 l0 -107 ZM168 819 l-110 152 l106 0 l71 -90 l70 90 l107 0 l-111 -152 l-133 0 Z" /><glyph glyph-name="zcaron" unicode="&#x17e;" d="M15 80 l203 354 l-189 0 l0 95 l346 0 l0 -93 l-195 -341 l199 0 l0 -95 l-364 0 l0 80 ZM137 610 l-110 152 l106 0 l71 -90 l70 90 l107 0 l-111 -152 l-133 0 Z" /><glyph glyph-name="florin" unicode="&#x192;" d="M413 368 l-112 0 l-46 -317 q-6 -41 -18.5 -77 q-12.5 -36 -35.5 -64 q-23 -28 -58 -44 q-35 -16 -86 -16 q-23 0 -41 3.5 q-18 3.5 -32 8.5 l0 89 q8 -2 17.5 -3 q9.5 -1 21.5 -1 q35 0 55 21 q20 21 25 56 l51 344 l-100 0 l12 86 l101 0 l21 136 q5 34 21 63.5 q16 29.5 41 51.5 q25 22 58 34.5 q33 12.5 71 12.5 q23 0 41.5 -2.5 q18.5 -2.5 33.5 -7.5 l0 -95 q-23 5 -44 5 q-30 0 -52 -21 q-22 -21 -28 -64 l-16 -113 l111 0 l-12 -86 Z" /><glyph glyph-name="Ohorn" unicode="&#x1a0;" d="M372 829 q0 0 6 2 q6 2 16.5 4 q10.5 2 24 2.5 q13.5 0.5 27.5 -3.5 q16 -4 27 -15.5 q11 -11.5 15 -28 q4 -16.5 0 -37 q-4 -20.5 -17 -42.5 l-10 8 l-12 8 l-12 7 l-10 5 q2 8 3 16 q1 6 0.5 12.5 q-0.5 6.5 -3.5 10.5 q-3 3 -9 4 q-6 1 -13 1 q-7 0 -13.5 -1 q-6.5 -1 -8.5 -2 q0 0 -1.5 7.5 q-1.5 7.5 -3.5 16.5 q-2 9 -4 17 q-2 8 -2 8 ZM40 223 q0 -112 61 -175 q61 -63 189 -63 q127 0 188 63 q61 63 61 175 l0 316 q0 107 -61 166.5 q-61 59.5 -188 59.5 q-127 0 -188.5 -60 q-61.5 -60 -61.5 -166 l0 -316 ZM367 194 q0 -103 -77 -103 q-78 0 -78 103 l0 364 q0 47 19.5 74 q19.5 27 58.5 27 q38 0 57.5 -27 q19.5 -27 19.5 -74 l0 -364 Z" /><glyph glyph-name="ohorn" unicode="&#x1a1;" d="M290 612 q0 0 6 2 q6 2 16.5 4 q10.5 2 24 2.5 q13.5 0.5 27.5 -3.5 q16 -4 27 -15.5 q11 -11.5 15 -28 q4 -16.5 0 -37 q-4 -20.5 -17 -42.5 l-10 8 l-11 8 l-13 7 l-10 5 q2 8 3 16 q1 6 0.5 12.5 q-0.5 6.5 -3.5 10.5 q-3 3 -9 4 q-6 1 -13 1 q-7 0 -13.5 -1 q-6.5 -1 -8.5 -2 q0 0 -1.5 7.5 q-1.5 7.5 -3.5 16.5 q-2 9 -4 17 q-2 8 -2 8 ZM241 -12 q54 0 93 15 q39 15 64 42 q25 27 37 65 q12 38 12 84 l0 141 q0 94 -49 150 q-49 56 -157 56 q-108 0 -157 -56 q-49 -56 -49 -150 l0 -141 q0 -46 12 -84 q12 -38 37 -65 q25 -27 64 -42 q39 -15 93 -15 ZM241 447 q27 0 41 -18.5 q14 -18.5 14 -53.5 l0 -220 q0 -32 -12.5 -52.5 q-12.5 -20.5 -42.5 -20.5 q-30 0 -42.5 20.5 q-12.5 20.5 -12.5 52.5 l0 220 q0 35 14 53.5 q14 18.5 41 18.5 Z" /><glyph glyph-name="Uhorn" unicode="&#x1af;" d="M408 829 q0 0 6 2 q6 2 16.5 4 q10.5 2 24 2.5 q13.5 0.5 27.5 -3.5 q32 -8 38.5 -31.5 q6.5 -23.5 0.5 -52.5 l-55 0 q1 5 1 10 q0 5 -0.5 9.5 q-0.5 4.5 -3.5 8.5 q-3 3 -9 4 q-6 1 -13 1 q-7 0 -13.5 -1 q-6.5 -1 -8.5 -2 q0 0 -1.5 7.5 q-1.5 7.5 -3.5 16.5 q-2 9 -4 17 q-2 8 -2 8 ZM50 750 l0 -539 q0 -49 13.5 -90.5 q13.5 -41.5 42.5 -71.5 q29 -30 74.5 -47 q45.5 -17 109.5 -17 q105 0 168 57 q63 57 63 169 l0 539 l-136 0 l0 -559 q0 -46 -20 -72.5 q-20 -26.5 -62 -26.5 q-41 0 -62 26.5 q-21 26.5 -21 72.5 l0 559 l-170 0 Z" /><glyph glyph-name="uhorn" unicode="&#x1b0;" d="M339 607 q0 0 6 2 q6 2 16.5 4 q10.5 2 24 2.5 q13.5 0.5 27.5 -3.5 q32 -8 38.5 -31.5 q6.5 -23.5 0.5 -52.5 l-55 0 q1 5 1 10 q0 5 -0.5 9.5 q-0.5 4.5 -3.5 8.5 q-3 3 -9 4 q-6 1 -13 1 q-7 0 -13.5 -1 q-6.5 -1 -8.5 -2 q0 0 -1.5 7.5 q-1.5 7.5 -3.5 16.5 q-2 9 -4 17 q-2 8 -2 8 ZM45 529 l0 -372 q0 -88 32.5 -128.5 q32.5 -40.5 101.5 -40.5 q80 0 126 54 l2 0 l0 -42 l143 0 l0 529 l-148 0 l0 -408 q-9 -13 -24 -23.5 q-15 -10.5 -35 -10.5 q-20 0 -33.5 13.5 q-13.5 13.5 -13.5 51.5 l0 377 l-151 0 Z" /><glyph glyph-name="circumflex" unicode="&#x2c6;" d="M195 737 l109 -152 l-105 0 l-73 88 l-71 -88 l-105 0 l109 152 l136 0 Z" /><glyph glyph-name="caron" unicode="&#x2c7;" d="M71 585 l-110 152 l106 0 l71 -90 l70 90 l107 0 l-111 -152 l-133 0 Z" /><glyph glyph-name="breve" unicode="&#x2d8;" d="M303 737 q-4 -81 -53 -120 q-49 -39 -124 -39 q-77 0 -123.5 36.5 q-46.5 36.5 -51.5 122.5 l69 0 q2 -21 11.5 -36.5 q9.5 -15.5 23.5 -25.5 q14 -10 31.5 -14.5 q17.5 -4.5 35.5 -4.5 q43 0 72 16.5 q29 16.5 40 64.5 l69 0 Z" /><glyph glyph-name="dotaccent" unicode="&#x2d9;" d="M65 719 l126 0 l0 -128 l-126 0 l0 128 Z" /><glyph glyph-name="ring" unicode="&#x2da;" d="M15 682 q0 23 9 43.5 q9 20.5 24 36 q15 15.5 35.5 24.5 q20.5 9 43.5 9 q24 0 44.5 -9 q20.5 -9 35.5 -24.5 q15 -15.5 24 -36 q9 -20.5 9 -43.5 q0 -23 -9 -43.5 q-9 -20.5 -24 -35.5 q-15 -15 -35.5 -24 q-20.5 -9 -44.5 -9 q-23 0 -43.5 9 q-20.5 9 -35.5 24 q-15 15 -24 35.5 q-9 20.5 -9 43.5 ZM70 682 q0 -25 17 -42.5 q17 -17.5 40 -17.5 q24 0 41 17.5 q17 17.5 17 42.5 q0 26 -17 43.5 q-17 17.5 -41 17.5 q-23 0 -40 -17.5 q-17 -17.5 -17 -43.5 Z" /><glyph glyph-name="ogonek" unicode="&#x2db;" d="M226 -210 q-17 -11 -42.5 -19 q-25.5 -8 -54.5 -8 q-20 0 -41.5 4 q-21.5 4 -39.5 13.5 q-18 9.5 -29.5 26.5 q-11.5 17 -11.5 44 q0 41 32 76 q32 35 103 73 l88 0 l0 -2 q-18 -10 -41.5 -25 q-23.5 -15 -43.5 -33 q-20 -18 -34 -39.5 q-14 -21.5 -14 -45.5 q0 -19 12 -30 q12 -11 32 -11 q20 0 35 4.5 q15 4.5 32 14.5 l18 -43 Z" /><glyph glyph-name="tilde" unicode="&#x2dc;" d="M-59 601 q21 51 51.5 78 q30.5 27 72.5 27 q20 0 38.5 -6.5 q18.5 -6.5 36 -14.5 q17.5 -8 32.5 -14.5 q15 -6.5 29 -6.5 q16 0 30.5 9.5 q14.5 9.5 26.5 36.5 l64 -20 q-17 -48 -46 -78.5 q-29 -30.5 -79 -30.5 q-20 0 -38 6.5 q-18 6.5 -35.5 14.5 q-17.5 8 -34 14.5 q-16.5 6.5 -32.5 6.5 q-33 0 -52 -42 l-64 20 Z" /><glyph glyph-name="hungarumlaut" unicode="&#x2dd;" d="M30 737 l145 0 l-154 -152 l-88 0 l97 152 ZM247 737 l144 0 l-153 -152 l-89 0 l98 152 Z" /><glyph glyph-name="dotbelowcomb" unicode="&#x323;" d="M65 719 l126 0 l0 -128 l-126 0 l0 128 Z" /><glyph glyph-name="Adotbelow" unicode="&#x1ea0;" d="M205 -132 l0 80 l85 0 l0 -80 l-85 0 l0 0 ZM367 750 l153 -750 l-173 0 l-26 133 l-168 0 l-26 -133 l-121 0 l153 750 l208 0 ZM172 233 l130 0 l-64 336 l-66 -336 Z" /><glyph glyph-name="adotbelow" unicode="&#x1ea1;" d="M205 -132 l0 80 l85 0 l0 -80 l-85 0 ZM223 450 q-23 0 -36 -15.5 q-13 -15.5 -13 -43.5 l0 -32 l-137 0 l0 21 q0 37 10.5 66.5 q10.5 29.5 33 50.5 q22.5 21 57.5 32.5 q35 11.5 84 11.5 q101 0 149 -42 q48 -42 48 -139 l0 -360 l-130 0 l-4 51 l-3 0 q-26 -35 -62.5 -49 q-36.5 -14 -74.5 -14 q-67 0 -95.5 37 q-28.5 37 -28.5 107 l0 8 q0 49 20 81.5 q20 32.5 54 53 q34 20.5 79.5 31 q45.5 10.5 96.5 15.5 l0 70 q0 28 -12.5 43.5 q-12.5 15.5 -35.5 15.5 ZM271 246 q-52 -5 -76 -23.5 q-24 -18.5 -25 -65.5 l0 -12 q0 -32 10.5 -45.5 q10.5 -13.5 32.5 -13.5 q17 0 34 9 q17 9 24 23 l0 128 Z" /><glyph glyph-name="Ahookabove" unicode="&#x1ea2;" d="M309 912 l0 -44 q0 -11 -3 -19.5 q-3 -8.5 -7 -17.5 q-4 -8 -7 -13.5 q-3 -5.5 -5 -9.5 q-3 -4 -4 -8 l-40 0 l21 49 l0 11 l-27 1 l-8 51 l80 0 ZM367 750 l153 -750 l-173 0 l-26 133 l-168 0 l-26 -133 l-121 0 l153 750 l208 0 ZM172 233 l130 0 l-64 336 l-66 -336 Z" /><glyph glyph-name="ahookabove" unicode="&#x1ea3;" d="M281 712 l0 -44 q0 -11 -3 -19.5 q-3 -8.5 -7 -17.5 q-4 -8 -7 -13.5 q-3 -5.5 -5 -9.5 q-3 -4 -4 -8 l-40 0 l21 49 l0 11 l-27 1 l-8 51 l80 0 ZM223 450 q-23 0 -36 -15.5 q-13 -15.5 -13 -43.5 l0 -32 l-137 0 l0 21 q0 37 10.5 66.5 q10.5 29.5 33 50.5 q22.5 21 57.5 32.5 q35 11.5 84 11.5 q101 0 149 -42 q48 -42 48 -139 l0 -360 l-130 0 l-4 51 l-3 0 q-26 -35 -62.5 -49 q-36.5 -14 -74.5 -14 q-67 0 -95.5 37 q-28.5 37 -28.5 107 l0 8 q0 49 20 81.5 q20 32.5 54 53 q34 20.5 79.5 31 q45.5 10.5 96.5 15.5 l0 70 q0 28 -12.5 43.5 q-12.5 15.5 -35.5 15.5 ZM271 246 q-52 -5 -76 -23.5 q-24 -18.5 -25 -65.5 l0 -12 q0 -32 10.5 -45.5 q10.5 -13.5 32.5 -13.5 q17 0 34 9 q17 9 24 23 l0 128 Z" /><glyph glyph-name="Acircumflexacute" unicode="&#x1ea4;" d="M405 844 l-63 0 l58 96 l92 0 l-87 -96 ZM367 750 l153 -750 l-173 0 l-26 133 l-168 0 l-26 -133 l-121 0 l153 750 l208 0 ZM298 883 l60 -83 l-58 0 l-40 49 l-38 -49 l-58 0 l60 83 l74 0 ZM172 233 l130 0 l-64 336 l-66 -336 Z" /><glyph glyph-name="acircumflexacute" unicode="&#x1ea5;" d="M375 657 l-63 0 l58 96 l92 0 l-87 -96 ZM223 450 q-23 0 -36 -15.5 q-13 -15.5 -13 -43.5 l0 -32 l-137 0 l0 21 q0 37 10.5 66.5 q10.5 29.5 33 50.5 q22.5 21 57.5 32.5 q35 11.5 84 11.5 q101 0 149 -42 q48 -42 48 -139 l0 -360 l-130 0 l-4 51 l-3 0 q-26 -35 -62.5 -49 q-36.5 -14 -74.5 -14 q-67 0 -95.5 37 q-28.5 37 -28.5 107 l0 8 q0 49 20 81.5 q20 32.5 54 53 q34 20.5 79.5 31 q45.5 10.5 96.5 15.5 l0 70 q0 28 -12.5 43.5 q-12.5 15.5 -35.5 15.5 ZM271 246 q-52 -5 -76 -23.5 q-24 -18.5 -25 -65.5 l0 -12 q0 -32 10.5 -45.5 q10.5 -13.5 32.5 -13.5 q17 0 34 9 q17 9 24 23 l0 128 ZM267 694 l60 -83 l-58 0 l-40 49 l-38 -49 l-58 0 l60 83 l74 0 Z" /><glyph glyph-name="Acircumflexgrave" unicode="&#x1ea6;" d="M371 928 l58 -97 l-62 0 l-90 97 l94 0 ZM367 750 l153 -750 l-173 0 l-26 133 l-168 0 l-26 -133 l-121 0 l153 750 l208 0 ZM298 883 l60 -83 l-58 0 l-40 49 l-38 -49 l-58 0 l60 83 l74 0 ZM172 233 l130 0 l-64 336 l-66 -336 Z" /><glyph glyph-name="acircumflexgrave" unicode="&#x1ea7;" d="M344 743 l58 -97 l-62 0 l-90 97 l94 0 ZM223 450 q-23 0 -36 -15.5 q-13 -15.5 -13 -43.5 l0 -32 l-137 0 l0 21 q0 37 10.5 66.5 q10.5 29.5 33 50.5 q22.5 21 57.5 32.5 q35 11.5 84 11.5 q101 0 149 -42 q48 -42 48 -139 l0 -360 l-130 0 l-4 51 l-3 0 q-26 -35 -62.5 -49 q-36.5 -14 -74.5 -14 q-67 0 -95.5 37 q-28.5 37 -28.5 107 l0 8 q0 49 20 81.5 q20 32.5 54 53 q34 20.5 79.5 31 q45.5 10.5 96.5 15.5 l0 70 q0 28 -12.5 43.5 q-12.5 15.5 -35.5 15.5 ZM271 246 q-52 -5 -76 -23.5 q-24 -18.5 -25 -65.5 l0 -12 q0 -32 10.5 -45.5 q10.5 -13.5 32.5 -13.5 q17 0 34 9 q17 9 24 23 l0 128 ZM267 694 l60 -83 l-58 0 l-40 49 l-38 -49 l-58 0 l60 83 l74 0 Z" /><glyph glyph-name="Acircumflexhookabove" unicode="&#x1ea8;" d="M408 959 l0 -44 q0 -11 -3 -19.5 q-3 -8.5 -7 -17.5 q-4 -8 -7 -13.5 q-3 -5.5 -5 -9.5 q-3 -4 -4 -8 l-40 0 l21 49 l0 11 l-27 1 l-8 51 l80 0 ZM367 750 l153 -750 l-173 0 l-26 133 l-168 0 l-26 -133 l-121 0 l153 750 l208 0 ZM298 883 l60 -83 l-58 0 l-40 49 l-38 -49 l-58 0 l60 83 l74 0 ZM172 233 l130 0 l-64 336 l-66 -336 Z" /><glyph glyph-name="acircumflexhookabove" unicode="&#x1ea9;" d="M378 769 l0 -44 q0 -11 -3 -19.5 q-3 -8.5 -7 -17.5 q-4 -8 -7 -13.5 q-3 -5.5 -5 -9.5 q-3 -4 -4 -8 l-40 0 l21 49 l0 11 l-27 1 l-8 51 l80 0 ZM223 450 q-23 0 -36 -15.5 q-13 -15.5 -13 -43.5 l0 -32 l-137 0 l0 21 q0 37 10.5 66.5 q10.5 29.5 33 50.5 q22.5 21 57.5 32.5 q35 11.5 84 11.5 q101 0 149 -42 q48 -42 48 -139 l0 -360 l-130 0 l-4 51 l-3 0 q-26 -35 -62.5 -49 q-36.5 -14 -74.5 -14 q-67 0 -95.5 37 q-28.5 37 -28.5 107 l0 8 q0 49 20 81.5 q20 32.5 54 53 q34 20.5 79.5 31 q45.5 10.5 96.5 15.5 l0 70 q0 28 -12.5 43.5 q-12.5 15.5 -35.5 15.5 ZM271 246 q-52 -5 -76 -23.5 q-24 -18.5 -25 -65.5 l0 -12 q0 -32 10.5 -45.5 q10.5 -13.5 32.5 -13.5 q17 0 34 9 q17 9 24 23 l0 128 ZM267 694 l60 -83 l-58 0 l-40 49 l-38 -49 l-58 0 l60 83 l74 0 Z" /><glyph glyph-name="Acircumflextilde" unicode="&#x1eaa;" d="M186 918 q13 30 31 46.5 q18 16.5 43 16.5 q12 0 23 -4 q11 -4 21.5 -9 q10.5 -5 20 -9 q9.5 -4 17.5 -4 q10 0 18.5 5.5 q8.5 5.5 15.5 22.5 l39 -12 q-11 -29 -28.5 -47 q-17.5 -18 -46.5 -18 q-12 0 -23 4 q-11 4 -21.5 8.5 q-10.5 4.5 -20.5 8.5 q-10 4 -19 4 q-20 0 -32 -25 l-38 12 ZM367 750 l153 -750 l-173 0 l-26 133 l-168 0 l-26 -133 l-121 0 l153 750 l208 0 ZM298 883 l60 -83 l-58 0 l-40 49 l-38 -49 l-58 0 l60 83 l74 0 ZM172 233 l130 0 l-64 336 l-66 -336 Z" /><glyph glyph-name="acircumflextilde" unicode="&#x1eab;" d="M126 724 q13 30 31 46.5 q18 16.5 43 16.5 q12 0 23 -4 q11 -4 21.5 -9 q10.5 -5 20 -9 q9.5 -4 17.5 -4 q10 0 18.5 5.5 q8.5 5.5 15.5 22.5 l39 -12 q-11 -29 -28.5 -47 q-17.5 -18 -46.5 -18 q-12 0 -23 4 q-11 4 -21.5 8.5 q-10.5 4.5 -20.5 8.5 q-10 4 -19 4 q-20 0 -32 -25 l-38 12 ZM223 450 q-23 0 -36 -15.5 q-13 -15.5 -13 -43.5 l0 -32 l-137 0 l0 21 q0 37 10.5 66.5 q10.5 29.5 33 50.5 q22.5 21 57.5 32.5 q35 11.5 84 11.5 q101 0 149 -42 q48 -42 48 -139 l0 -360 l-130 0 l-4 51 l-3 0 q-26 -35 -62.5 -49 q-36.5 -14 -74.5 -14 q-67 0 -95.5 37 q-28.5 37 -28.5 107 l0 8 q0 49 20 81.5 q20 32.5 54 53 q34 20.5 79.5 31 q45.5 10.5 96.5 15.5 l0 70 q0 28 -12.5 43.5 q-12.5 15.5 -35.5 15.5 ZM271 246 q-52 -5 -76 -23.5 q-24 -18.5 -25 -65.5 l0 -12 q0 -32 10.5 -45.5 q10.5 -13.5 32.5 -13.5 q17 0 34 9 q17 9 24 23 l0 128 ZM267 694 l60 -83 l-58 0 l-40 49 l-38 -49 l-58 0 l60 83 l74 0 Z" /><glyph glyph-name="Acircumflexdotbelow" unicode="&#x1eac;" d="M205 -132 l0 80 l85 0 l0 -80 l-85 0 ZM367 750 l153 -750 l-173 0 l-26 133 l-168 0 l-26 -133 l-121 0 l153 750 l208 0 ZM298 883 l60 -83 l-58 0 l-40 49 l-38 -49 l-58 0 l60 83 l74 0 ZM172 233 l130 0 l-64 336 l-66 -336 Z" /><glyph glyph-name="acircumflexdotbelow" unicode="&#x1ead;" d="M205 -132 l0 80 l85 0 l0 -80 l-85 0 ZM223 450 q-23 0 -36 -15.5 q-13 -15.5 -13 -43.5 l0 -32 l-137 0 l0 21 q0 37 10.5 66.5 q10.5 29.5 33 50.5 q22.5 21 57.5 32.5 q35 11.5 84 11.5 q101 0 149 -42 q48 -42 48 -139 l0 -360 l-130 0 l-4 51 l-3 0 q-26 -35 -62.5 -49 q-36.5 -14 -74.5 -14 q-67 0 -95.5 37 q-28.5 37 -28.5 107 l0 8 q0 49 20 81.5 q20 32.5 54 53 q34 20.5 79.5 31 q45.5 10.5 96.5 15.5 l0 70 q0 28 -12.5 43.5 q-12.5 15.5 -35.5 15.5 ZM271 246 q-52 -5 -76 -23.5 q-24 -18.5 -25 -65.5 l0 -12 q0 -32 10.5 -45.5 q10.5 -13.5 32.5 -13.5 q17 0 34 9 q17 9 24 23 l0 128 ZM267 694 l60 -83 l-58 0 l-40 49 l-38 -49 l-58 0 l60 83 l74 0 Z" /><glyph glyph-name="Abreveacute" unicode="&#x1eae;" d="M295 915 l-63 0 l58 96 l92 0 l-87 -96 ZM367 750 l153 -750 l-173 0 l-26 133 l-168 0 l-26 -133 l-121 0 l153 750 l208 0 ZM172 233 l130 0 l-64 336 l-66 -336 ZM367 894 q-2 -48 -31 -71 q-29 -23 -74 -23 q-45 0 -72.5 21.5 q-27.5 21.5 -30.5 72.5 l41 0 q2 -26 20.5 -37 q18.5 -11 39.5 -11 q26 0 43 9.5 q17 9.5 23 38.5 l41 0 Z" /><glyph glyph-name="abreveacute" unicode="&#x1eaf;" d="M270 716 l-63 0 l58 96 l92 0 l-87 -96 ZM223 450 q-23 0 -36 -15.5 q-13 -15.5 -13 -43.5 l0 -32 l-137 0 l0 21 q0 37 10.5 66.5 q10.5 29.5 33 50.5 q22.5 21 57.5 32.5 q35 11.5 84 11.5 q101 0 149 -42 q48 -42 48 -139 l0 -360 l-130 0 l-4 51 l-3 0 q-26 -35 -62.5 -49 q-36.5 -14 -74.5 -14 q-67 0 -95.5 37 q-28.5 37 -28.5 107 l0 8 q0 49 20 81.5 q20 32.5 54 53 q34 20.5 79.5 31 q45.5 10.5 96.5 15.5 l0 70 q0 28 -12.5 43.5 q-12.5 15.5 -35.5 15.5 ZM271 246 q-52 -5 -76 -23.5 q-24 -18.5 -25 -65.5 l0 -12 q0 -32 10.5 -45.5 q10.5 -13.5 32.5 -13.5 q17 0 34 9 q17 9 24 23 l0 128 ZM333 672 q-2 -48 -31 -71 q-29 -23 -74 -23 q-45 0 -72.5 21.5 q-27.5 21.5 -30.5 72.5 l41 0 q2 -26 20.5 -37 q18.5 -11 39.5 -11 q26 0 43 9.5 q17 9.5 23 38.5 l41 0 Z" /><glyph glyph-name="Abrevegrave" unicode="&#x1eb0;" d="M249 1010 l58 -97 l-62 0 l-90 97 l94 0 ZM367 750 l153 -750 l-173 0 l-26 133 l-168 0 l-26 -133 l-121 0 l153 750 l208 0 ZM172 233 l130 0 l-64 336 l-66 -336 ZM367 894 q-2 -48 -31 -71 q-29 -23 -74 -23 q-45 0 -72.5 21.5 q-27.5 21.5 -30.5 72.5 l41 0 q2 -26 20.5 -37 q18.5 -11 39.5 -11 q26 0 43 9.5 q17 9.5 23 38.5 l41 0 Z" /><glyph glyph-name="abrevegrave" unicode="&#x1eb1;" d="M205 802 l58 -97 l-62 0 l-90 97 l94 0 ZM223 450 q-23 0 -36 -15.5 q-13 -15.5 -13 -43.5 l0 -32 l-137 0 l0 21 q0 37 10.5 66.5 q10.5 29.5 33 50.5 q22.5 21 57.5 32.5 q35 11.5 84 11.5 q101 0 149 -42 q48 -42 48 -139 l0 -360 l-130 0 l-4 51 l-3 0 q-26 -35 -62.5 -49 q-36.5 -14 -74.5 -14 q-67 0 -95.5 37 q-28.5 37 -28.5 107 l0 8 q0 49 20 81.5 q20 32.5 54 53 q34 20.5 79.5 31 q45.5 10.5 96.5 15.5 l0 70 q0 28 -12.5 43.5 q-12.5 15.5 -35.5 15.5 ZM271 246 q-52 -5 -76 -23.5 q-24 -18.5 -25 -65.5 l0 -12 q0 -32 10.5 -45.5 q10.5 -13.5 32.5 -13.5 q17 0 34 9 q17 9 24 23 l0 128 ZM333 672 q-2 -48 -31 -71 q-29 -23 -74 -23 q-45 0 -72.5 21.5 q-27.5 21.5 -30.5 72.5 l41 0 q2 -26 20.5 -37 q18.5 -11 39.5 -11 q26 0 43 9.5 q17 9.5 23 38.5 l41 0 Z" /><glyph glyph-name="Abrevehookabove" unicode="&#x1eb2;" d="M316 1025 l0 -44 q0 -11 -3 -19.5 q-3 -8.5 -7 -17.5 q-4 -8 -7 -13.5 q-3 -5.5 -5 -9.5 q-3 -4 -4 -8 l-40 0 l21 49 l0 11 l-27 1 l-8 51 l80 0 ZM367 750 l153 -750 l-173 0 l-26 133 l-168 0 l-26 -133 l-121 0 l153 750 l208 0 ZM172 233 l130 0 l-64 336 l-66 -336 ZM367 894 q-2 -48 -31 -71 q-29 -23 -74 -23 q-45 0 -72.5 21.5 q-27.5 21.5 -30.5 72.5 l41 0 q2 -26 20.5 -37 q18.5 -11 39.5 -11 q26 0 43 9.5 q17 9.5 23 38.5 l41 0 Z" /><glyph glyph-name="abrevehookabove" unicode="&#x1eb3;" d="M281 808 l0 -44 q0 -11 -3 -19.5 q-3 -8.5 -7 -17.5 q-4 -8 -7 -13.5 q-3 -5.5 -5 -9.5 q-3 -4 -4 -8 l-40 0 l21 49 l0 11 l-27 1 l-8 51 l80 0 ZM223 450 q-23 0 -36 -15.5 q-13 -15.5 -13 -43.5 l0 -32 l-137 0 l0 21 q0 37 10.5 66.5 q10.5 29.5 33 50.5 q22.5 21 57.5 32.5 q35 11.5 84 11.5 q101 0 149 -42 q48 -42 48 -139 l0 -360 l-130 0 l-4 51 l-3 0 q-26 -35 -62.5 -49 q-36.5 -14 -74.5 -14 q-67 0 -95.5 37 q-28.5 37 -28.5 107 l0 8 q0 49 20 81.5 q20 32.5 54 53 q34 20.5 79.5 31 q45.5 10.5 96.5 15.5 l0 70 q0 28 -12.5 43.5 q-12.5 15.5 -35.5 15.5 ZM271 246 q-52 -5 -76 -23.5 q-24 -18.5 -25 -65.5 l0 -12 q0 -32 10.5 -45.5 q10.5 -13.5 32.5 -13.5 q17 0 34 9 q17 9 24 23 l0 128 ZM333 672 q-2 -48 -31 -71 q-29 -23 -74 -23 q-45 0 -72.5 21.5 q-27.5 21.5 -30.5 72.5 l41 0 q2 -26 20.5 -37 q18.5 -11 39.5 -11 q26 0 43 9.5 q17 9.5 23 38.5 l41 0 Z" /><glyph glyph-name="Abrevetilde" unicode="&#x1eb4;" d="M186 918 q13 30 31 46.5 q18 16.5 43 16.5 q12 0 23 -4 q11 -4 21.5 -9 q10.5 -5 20 -9 q9.5 -4 17.5 -4 q10 0 18.5 5.5 q8.5 5.5 15.5 22.5 l39 -12 q-11 -29 -28.5 -47 q-17.5 -18 -46.5 -18 q-12 0 -23 4 q-11 4 -21.5 8.5 q-10.5 4.5 -20.5 8.5 q-10 4 -19 4 q-20 0 -32 -25 l-38 12 ZM367 750 l153 -750 l-173 0 l-26 133 l-168 0 l-26 -133 l-121 0 l153 750 l208 0 ZM172 233 l130 0 l-64 336 l-66 -336 ZM367 894 q-2 -48 -31 -71 q-29 -23 -74 -23 q-45 0 -72.5 21.5 q-27.5 21.5 -30.5 72.5 l41 0 q2 -26 20.5 -37 q18.5 -11 39.5 -11 q26 0 43 9.5 q17 9.5 23 38.5 l41 0 Z" /><glyph glyph-name="abrevetilde" unicode="&#x1eb5;" d="M126 724 q13 30 31 46.5 q18 16.5 43 16.5 q12 0 23 -4 q11 -4 21.5 -9 q10.5 -5 20 -9 q9.5 -4 17.5 -4 q10 0 18.5 5.5 q8.5 5.5 15.5 22.5 l39 -12 q-11 -29 -28.5 -47 q-17.5 -18 -46.5 -18 q-12 0 -23 4 q-11 4 -21.5 8.5 q-10.5 4.5 -20.5 8.5 q-10 4 -19 4 q-20 0 -32 -25 l-38 12 ZM223 450 q-23 0 -36 -15.5 q-13 -15.5 -13 -43.5 l0 -32 l-137 0 l0 21 q0 37 10.5 66.5 q10.5 29.5 33 50.5 q22.5 21 57.5 32.5 q35 11.5 84 11.5 q101 0 149 -42 q48 -42 48 -139 l0 -360 l-130 0 l-4 51 l-3 0 q-26 -35 -62.5 -49 q-36.5 -14 -74.5 -14 q-67 0 -95.5 37 q-28.5 37 -28.5 107 l0 8 q0 49 20 81.5 q20 32.5 54 53 q34 20.5 79.5 31 q45.5 10.5 96.5 15.5 l0 70 q0 28 -12.5 43.5 q-12.5 15.5 -35.5 15.5 ZM271 246 q-52 -5 -76 -23.5 q-24 -18.5 -25 -65.5 l0 -12 q0 -32 10.5 -45.5 q10.5 -13.5 32.5 -13.5 q17 0 34 9 q17 9 24 23 l0 128 ZM333 672 q-2 -48 -31 -71 q-29 -23 -74 -23 q-45 0 -72.5 21.5 q-27.5 21.5 -30.5 72.5 l41 0 q2 -26 20.5 -37 q18.5 -11 39.5 -11 q26 0 43 9.5 q17 9.5 23 38.5 l41 0 Z" /><glyph glyph-name="Abrevedotbelow" unicode="&#x1eb6;" d="M205 -132 l0 80 l85 0 l0 -80 l-85 0 ZM367 750 l153 -750 l-173 0 l-26 133 l-168 0 l-26 -133 l-121 0 l153 750 l208 0 ZM172 233 l130 0 l-64 336 l-66 -336 ZM367 894 q-2 -48 -31 -71 q-29 -23 -74 -23 q-45 0 -72.5 21.5 q-27.5 21.5 -30.5 72.5 l41 0 q2 -26 20.5 -37 q18.5 -11 39.5 -11 q26 0 43 9.5 q17 9.5 23 38.5 l41 0 Z" /><glyph glyph-name="abrevedotbelow" unicode="&#x1eb7;" d="M205 -132 l0 80 l85 0 l0 -80 l-85 0 ZM223 450 q-23 0 -36 -15.5 q-13 -15.5 -13 -43.5 l0 -32 l-137 0 l0 21 q0 37 10.5 66.5 q10.5 29.5 33 50.5 q22.5 21 57.5 32.5 q35 11.5 84 11.5 q101 0 149 -42 q48 -42 48 -139 l0 -360 l-130 0 l-4 51 l-3 0 q-26 -35 -62.5 -49 q-36.5 -14 -74.5 -14 q-67 0 -95.5 37 q-28.5 37 -28.5 107 l0 8 q0 49 20 81.5 q20 32.5 54 53 q34 20.5 79.5 31 q45.5 10.5 96.5 15.5 l0 70 q0 28 -12.5 43.5 q-12.5 15.5 -35.5 15.5 ZM271 246 q-52 -5 -76 -23.5 q-24 -18.5 -25 -65.5 l0 -12 q0 -32 10.5 -45.5 q10.5 -13.5 32.5 -13.5 q17 0 34 9 q17 9 24 23 l0 128 ZM333 672 q-2 -48 -31 -71 q-29 -23 -74 -23 q-45 0 -72.5 21.5 q-27.5 21.5 -30.5 72.5 l41 0 q2 -26 20.5 -37 q18.5 -11 39.5 -11 q26 0 43 9.5 q17 9.5 23 38.5 l41 0 Z" /><glyph glyph-name="Edotbelow" unicode="&#x1eb8;" d="M251 -132 l0 80 l85 0 l0 -80 l-85 0 ZM446 106 l0 -106 l-391 0 l0 750 l382 0 l0 -106 l-212 0 l0 -191 l176 0 l0 -106 l-176 0 l0 -241 l221 0 Z" /><glyph glyph-name="edotbelow" unicode="&#x1eb9;" d="M205 -132 l0 80 l85 0 l0 -80 l-85 0 ZM432 180 l0 -21 q0 -76 -45.5 -123.5 q-45.5 -47.5 -146.5 -47.5 q-56 0 -95 14.5 q-39 14.5 -63.5 41.5 q-24.5 27 -35.5 66 q-11 39 -11 88 l0 134 q0 100 49.5 154.5 q49.5 54.5 157.5 54.5 q104 0 147.5 -51 q43.5 -51 43.5 -151 l0 -109 l-247 0 l0 -75 q0 -73 56 -73 q57 0 57 73 l0 25 l133 0 ZM296 378 q0 71 -55 71 q-55 0 -55 -71 l0 -64 l110 0 l0 64 Z" /><glyph glyph-name="Ehookabove" unicode="&#x1eba;" d="M309 912 l0 -44 q0 -11 -3 -19.5 q-3 -8.5 -7 -17.5 q-4 -8 -7 -13.5 q-3 -5.5 -5 -9.5 q-3 -4 -4 -8 l-40 0 l21 49 l0 11 l-27 1 l-8 51 l80 0 ZM446 106 l0 -106 l-391 0 l0 750 l382 0 l0 -106 l-212 0 l0 -191 l176 0 l0 -106 l-176 0 l0 -241 l221 0 Z" /><glyph glyph-name="ehookabove" unicode="&#x1ebb;" d="M281 712 l0 -44 q0 -11 -3 -19.5 q-3 -8.5 -7 -17.5 q-4 -8 -7 -13.5 q-3 -5.5 -5 -9.5 q-3 -4 -4 -8 l-40 0 l21 49 l0 11 l-27 1 l-8 51 l80 0 ZM432 180 l0 -21 q0 -76 -45.5 -123.5 q-45.5 -47.5 -146.5 -47.5 q-56 0 -95 14.5 q-39 14.5 -63.5 41.5 q-24.5 27 -35.5 66 q-11 39 -11 88 l0 134 q0 100 49.5 154.5 q49.5 54.5 157.5 54.5 q104 0 147.5 -51 q43.5 -51 43.5 -151 l0 -109 l-247 0 l0 -75 q0 -73 56 -73 q57 0 57 73 l0 25 l133 0 ZM296 378 q0 71 -55 71 q-55 0 -55 -71 l0 -64 l110 0 l0 64 Z" /><glyph glyph-name="Etilde" unicode="&#x1ebc;" d="M146 814 q13 30 31 46.5 q18 16.5 43 16.5 q12 0 23 -4 q11 -4 21.5 -9 q10.5 -5 20 -9 q9.5 -4 17.5 -4 q10 0 18.5 5.5 q8.5 5.5 15.5 22.5 l39 -12 q-11 -29 -28.5 -47 q-17.5 -18 -46.5 -18 q-12 0 -23 4 q-11 4 -21.5 8.5 q-10.5 4.5 -20.5 8.5 q-10 4 -19 4 q-20 0 -32 -25 l-38 12 ZM446 106 l0 -106 l-391 0 l0 750 l382 0 l0 -106 l-212 0 l0 -191 l176 0 l0 -106 l-176 0 l0 -241 l221 0 Z" /><glyph glyph-name="etilde" unicode="&#x1ebd;" d="M126 616 q13 30 31 46.5 q18 16.5 43 16.5 q12 0 23 -4 q11 -4 21.5 -9 q10.5 -5 20 -9 q9.5 -4 17.5 -4 q10 0 18.5 5.5 q8.5 5.5 15.5 22.5 l39 -12 q-11 -29 -28.5 -47 q-17.5 -18 -46.5 -18 q-12 0 -23 4 q-11 4 -21.5 8.5 q-10.5 4.5 -20.5 8.5 q-10 4 -19 4 q-20 0 -32 -25 l-38 12 ZM432 180 l0 -21 q0 -76 -45.5 -123.5 q-45.5 -47.5 -146.5 -47.5 q-56 0 -95 14.5 q-39 14.5 -63.5 41.5 q-24.5 27 -35.5 66 q-11 39 -11 88 l0 134 q0 100 49.5 154.5 q49.5 54.5 157.5 54.5 q104 0 147.5 -51 q43.5 -51 43.5 -151 l0 -109 l-247 0 l0 -75 q0 -73 56 -73 q57 0 57 73 l0 25 l133 0 ZM296 378 q0 71 -55 71 q-55 0 -55 -71 l0 -64 l110 0 l0 64 Z" /><glyph glyph-name="Ecircumflexacute" unicode="&#x1ebe;" d="M405 844 l-63 0 l58 96 l92 0 l-87 -96 ZM447 106 l0 -106 l-392 0 l0 750 l385 0 l0 -106 l-215 0 l0 -191 l176 0 l0 -106 l-176 0 l0 -241 l222 0 ZM298 883 l60 -83 l-58 0 l-40 49 l-38 -49 l-58 0 l60 83 l74 0 Z" /><glyph glyph-name="ecircumflexacute" unicode="&#x1ebf;" d="M375 657 l-63 0 l58 96 l92 0 l-87 -96 ZM432 180 l0 -21 q0 -76 -45.5 -123.5 q-45.5 -47.5 -146.5 -47.5 q-56 0 -95 14.5 q-39 14.5 -63.5 41.5 q-24.5 27 -35.5 66 q-11 39 -11 88 l0 134 q0 100 49.5 154.5 q49.5 54.5 157.5 54.5 q104 0 147.5 -51 q43.5 -51 43.5 -151 l0 -109 l-247 0 l0 -75 q0 -73 56 -73 q57 0 57 73 l0 25 l133 0 ZM296 378 q0 71 -55 71 q-55 0 -55 -71 l0 -64 l110 0 l0 64 ZM267 694 l60 -83 l-58 0 l-40 49 l-38 -49 l-58 0 l60 83 l74 0 Z" /><glyph glyph-name="Ecircumflexgrave" unicode="&#x1ec0;" d="M371 928 l58 -97 l-62 0 l-90 97 l94 0 ZM447 106 l0 -106 l-392 0 l0 750 l385 0 l0 -106 l-215 0 l0 -191 l176 0 l0 -106 l-176 0 l0 -241 l222 0 ZM298 883 l60 -83 l-58 0 l-40 49 l-38 -49 l-58 0 l60 83 l74 0 Z" /><glyph glyph-name="ecircumflexgrave" unicode="&#x1ec1;" d="M344 743 l58 -97 l-62 0 l-90 97 l94 0 ZM432 180 l0 -21 q0 -76 -45.5 -123.5 q-45.5 -47.5 -146.5 -47.5 q-56 0 -95 14.5 q-39 14.5 -63.5 41.5 q-24.5 27 -35.5 66 q-11 39 -11 88 l0 134 q0 100 49.5 154.5 q49.5 54.5 157.5 54.5 q104 0 147.5 -51 q43.5 -51 43.5 -151 l0 -109 l-247 0 l0 -75 q0 -73 56 -73 q57 0 57 73 l0 25 l133 0 ZM296 378 q0 71 -55 71 q-55 0 -55 -71 l0 -64 l110 0 l0 64 ZM267 694 l60 -83 l-58 0 l-40 49 l-38 -49 l-58 0 l60 83 l74 0 Z" /><glyph glyph-name="Ecircumflexhookabove" unicode="&#x1ec2;" d="M408 959 l0 -44 q0 -11 -3 -19.5 q-3 -8.5 -7 -17.5 q-4 -8 -7 -13.5 q-3 -5.5 -5 -9.5 q-3 -4 -4 -8 l-40 0 l21 49 l0 11 l-27 1 l-8 51 l80 0 ZM447 106 l0 -106 l-392 0 l0 750 l385 0 l0 -106 l-215 0 l0 -191 l176 0 l0 -106 l-176 0 l0 -241 l222 0 ZM298 883 l60 -83 l-58 0 l-40 49 l-38 -49 l-58 0 l60 83 l74 0 Z" /><glyph glyph-name="ecircumflexhookabove" unicode="&#x1ec3;" d="M378 769 l0 -44 q0 -11 -3 -19.5 q-3 -8.5 -7 -17.5 q-4 -8 -7 -13.5 q-3 -5.5 -5 -9.5 q-3 -4 -4 -8 l-40 0 l21 49 l0 11 l-27 1 l-8 51 l80 0 ZM432 180 l0 -21 q0 -76 -45.5 -123.5 q-45.5 -47.5 -146.5 -47.5 q-56 0 -95 14.5 q-39 14.5 -63.5 41.5 q-24.5 27 -35.5 66 q-11 39 -11 88 l0 134 q0 100 49.5 154.5 q49.5 54.5 157.5 54.5 q104 0 147.5 -51 q43.5 -51 43.5 -151 l0 -109 l-247 0 l0 -75 q0 -73 56 -73 q57 0 57 73 l0 25 l133 0 ZM296 378 q0 71 -55 71 q-55 0 -55 -71 l0 -64 l110 0 l0 64 ZM267 694 l60 -83 l-58 0 l-40 49 l-38 -49 l-58 0 l60 83 l74 0 Z" /><glyph glyph-name="Ecircumflextilde" unicode="&#x1ec4;" d="M186 918 q13 30 31 46.5 q18 16.5 43 16.5 q12 0 23 -4 q11 -4 21.5 -9 q10.5 -5 20 -9 q9.5 -4 17.5 -4 q10 0 18.5 5.5 q8.5 5.5 15.5 22.5 l39 -12 q-11 -29 -28.5 -47 q-17.5 -18 -46.5 -18 q-12 0 -23 4 q-11 4 -21.5 8.5 q-10.5 4.5 -20.5 8.5 q-10 4 -19 4 q-20 0 -32 -25 l-38 12 ZM447 106 l0 -106 l-392 0 l0 750 l385 0 l0 -106 l-215 0 l0 -191 l176 0 l0 -106 l-176 0 l0 -241 l222 0 ZM298 883 l60 -83 l-58 0 l-40 49 l-38 -49 l-58 0 l60 83 l74 0 Z" /><glyph glyph-name="ecircumflextilde" unicode="&#x1ec5;" d="M126 724 q13 30 31 46.5 q18 16.5 43 16.5 q12 0 23 -4 q11 -4 21.5 -9 q10.5 -5 20 -9 q9.5 -4 17.5 -4 q10 0 18.5 5.5 q8.5 5.5 15.5 22.5 l39 -12 q-11 -29 -28.5 -47 q-17.5 -18 -46.5 -18 q-12 0 -23 4 q-11 4 -21.5 8.5 q-10.5 4.5 -20.5 8.5 q-10 4 -19 4 q-20 0 -32 -25 l-38 12 ZM432 180 l0 -21 q0 -76 -45.5 -123.5 q-45.5 -47.5 -146.5 -47.5 q-56 0 -95 14.5 q-39 14.5 -63.5 41.5 q-24.5 27 -35.5 66 q-11 39 -11 88 l0 134 q0 100 49.5 154.5 q49.5 54.5 157.5 54.5 q104 0 147.5 -51 q43.5 -51 43.5 -151 l0 -109 l-247 0 l0 -75 q0 -73 56 -73 q57 0 57 73 l0 25 l133 0 ZM296 378 q0 71 -55 71 q-55 0 -55 -71 l0 -64 l110 0 l0 64 ZM267 694 l60 -83 l-58 0 l-40 49 l-38 -49 l-58 0 l60 83 l74 0 Z" /><glyph glyph-name="Ecircumflexdotbelow" unicode="&#x1ec6;" d="M251 -132 l0 80 l85 0 l0 -80 l-85 0 ZM447 106 l0 -106 l-392 0 l0 750 l385 0 l0 -106 l-215 0 l0 -191 l176 0 l0 -106 l-176 0 l0 -241 l222 0 ZM298 883 l60 -83 l-58 0 l-40 49 l-38 -49 l-58 0 l60 83 l74 0 Z" /><glyph glyph-name="ecircumflexdotbelow" unicode="&#x1ec7;" d="M205 -132 l0 80 l85 0 l0 -80 l-85 0 ZM432 180 l0 -21 q0 -76 -45.5 -123.5 q-45.5 -47.5 -146.5 -47.5 q-56 0 -95 14.5 q-39 14.5 -63.5 41.5 q-24.5 27 -35.5 66 q-11 39 -11 88 l0 134 q0 100 49.5 154.5 q49.5 54.5 157.5 54.5 q104 0 147.5 -51 q43.5 -51 43.5 -151 l0 -109 l-247 0 l0 -75 q0 -73 56 -73 q57 0 57 73 l0 25 l133 0 ZM296 378 q0 71 -55 71 q-55 0 -55 -71 l0 -64 l110 0 l0 64 ZM267 694 l60 -83 l-58 0 l-40 49 l-38 -49 l-58 0 l60 83 l74 0 Z" /><glyph glyph-name="Ihookabove" unicode="&#x1ec8;" d="M178 912 l0 -44 q0 -11 -3 -19.5 q-3 -8.5 -7 -17.5 q-4 -8 -7 -13.5 q-3 -5.5 -5 -9.5 q-3 -4 -4 -8 l-40 0 l21 49 l0 11 l-27 1 l-8 51 l80 0 ZM55 750 l170 0 l0 -750 l-170 0 l0 750 Z" /><glyph glyph-name="ihookabove" unicode="&#x1ec9;" d="M50 504 l149 0 l0 -504 l-149 0 l0 504 ZM174 712 l0 -44 q0 -11 -3 -19.5 q-3 -8.5 -7 -17.5 q-4 -8 -7 -13.5 q-3 -5.5 -5 -9.5 q-3 -4 -4 -8 l-40 0 l21 49 l0 11 l-27 1 l-8 51 l80 0 Z" /><glyph glyph-name="Idotbelow" unicode="&#x1eca;" d="M152 -205 q-30 0 -52 20.5 q-22 20.5 -22 50.5 q0 29 22 50 q22 21 52 21 q30 0 52 -21 q22 -21 22 -50 q0 -30 -22 -50.5 q-22 -20.5 -52 -20.5 ZM55 750 l170 0 l0 -750 l-170 0 l0 750 Z" /><glyph glyph-name="idotbelow" unicode="&#x1ecb;" d="M86 -132 l0 80 l85 0 l0 -80 l-85 0 ZM50 0 l149 0 l0 529 l-149 0 l0 -529 ZM80 619 l0 80 l85 0 l0 -80 l-85 0 Z" /><glyph glyph-name="Odotbelow" unicode="&#x1ecc;" d="M251 -132 l0 80 l85 0 l0 -80 l-85 0 ZM40 539 q0 106 61.5 166 q61.5 60 188.5 60 q127 0 188 -59.5 q61 -59.5 61 -166.5 l0 -316 q0 -112 -61 -175 q-61 -63 -188 -63 q-128 0 -189 63 q-61 63 -61 175 l0 316 ZM367 558 q0 47 -19.5 74 q-19.5 27 -57.5 27 q-39 0 -58.5 -27 q-19.5 -27 -19.5 -74 l0 -364 q0 -103 78 -103 q77 0 77 103 l0 364 Z" /><glyph glyph-name="odotbelow" unicode="&#x1ecd;" d="M205 -132 l0 80 l85 0 l0 -80 l-85 0 ZM241 -12 q-54 0 -93 15 q-39 15 -64 42 q-25 27 -37 65 q-12 38 -12 84 l0 141 q0 94 49 150 q49 56 157 56 q108 0 157 -56 q49 -56 49 -150 l0 -141 q0 -46 -12 -84 q-12 -38 -37 -65 q-25 -27 -64 -42 q-39 -15 -93 -15 ZM241 447 q-27 0 -41 -18.5 q-14 -18.5 -14 -53.5 l0 -220 q0 -32 12.5 -52.5 q12.5 -20.5 42.5 -20.5 q30 0 42.5 20.5 q12.5 20.5 12.5 52.5 l0 220 q0 35 -14 53.5 q-14 18.5 -41 18.5 Z" /><glyph glyph-name="Ohookabove" unicode="&#x1ece;" d="M40 223 q0 -112 61 -175 q61 -63 189 -63 q127 0 188 63 q61 63 61 175 l0 316 q0 107 -61 166.5 q-61 59.5 -188 59.5 q-127 0 -188.5 -60 q-61.5 -60 -61.5 -166 l0 -316 ZM367 194 q0 -103 -77 -103 q-78 0 -78 103 l0 364 q0 47 19.5 74 q19.5 27 58.5 27 q38 0 57.5 -27 q19.5 -27 19.5 -74 l0 -364 ZM309 912 l0 -44 q0 -11 -3 -19.5 q-3 -8.5 -7 -17.5 q-4 -8 -7 -13.5 q-3 -5.5 -5 -9.5 q-3 -4 -4 -8 l-40 0 l21 49 l0 11 l-27 1 l-8 51 l80 0 Z" /><glyph glyph-name="ohookabove" unicode="&#x1ecf;" d="M281 712 l0 -44 q0 -11 -3 -19.5 q-3 -8.5 -7 -17.5 q-4 -8 -7 -13.5 q-3 -5.5 -5 -9.5 q-3 -4 -4 -8 l-40 0 l21 49 l0 11 l-27 1 l-8 51 l80 0 ZM241 -12 q-54 0 -93 15 q-39 15 -64 42 q-25 27 -37 65 q-12 38 -12 84 l0 141 q0 94 49 150 q49 56 157 56 q108 0 157 -56 q49 -56 49 -150 l0 -141 q0 -46 -12 -84 q-12 -38 -37 -65 q-25 -27 -64 -42 q-39 -15 -93 -15 ZM241 447 q-27 0 -41 -18.5 q-14 -18.5 -14 -53.5 l0 -220 q0 -32 12.5 -52.5 q12.5 -20.5 42.5 -20.5 q30 0 42.5 20.5 q12.5 20.5 12.5 52.5 l0 220 q0 35 -14 53.5 q-14 18.5 -41 18.5 Z" /><glyph glyph-name="Ocircumflexacute" unicode="&#x1ed0;" d="M446 844 l-63 0 l58 96 l92 0 l-87 -96 ZM40 539 q0 106 61.5 166 q61.5 60 188.5 60 q127 0 188 -59.5 q61 -59.5 61 -166.5 l0 -316 q0 -112 -61 -175 q-61 -63 -188 -63 q-128 0 -189 63 q-61 63 -61 175 l0 316 ZM367 558 q0 47 -19.5 74 q-19.5 27 -57.5 27 q-39 0 -58.5 -27 q-19.5 -27 -19.5 -74 l0 -364 q0 -103 78 -103 q77 0 77 103 l0 364 ZM329 883 l60 -83 l-58 0 l-40 49 l-38 -49 l-58 0 l60 83 l74 0 Z" /><glyph glyph-name="ocircumflexacute" unicode="&#x1ed1;" d="M375 657 l-63 0 l58 96 l92 0 l-87 -96 ZM241 -12 q-54 0 -93 15 q-39 15 -64 42 q-25 27 -37 65 q-12 38 -12 84 l0 141 q0 94 49 150 q49 56 157 56 q108 0 157 -56 q49 -56 49 -150 l0 -141 q0 -46 -12 -84 q-12 -38 -37 -65 q-25 -27 -64 -42 q-39 -15 -93 -15 ZM241 447 q-27 0 -41 -18.5 q-14 -18.5 -14 -53.5 l0 -220 q0 -32 12.5 -52.5 q12.5 -20.5 42.5 -20.5 q30 0 42.5 20.5 q12.5 20.5 12.5 52.5 l0 220 q0 35 -14 53.5 q-14 18.5 -41 18.5 ZM277 694 l60 -83 l-58 0 l-40 49 l-38 -49 l-58 0 l60 83 l74 0 Z" /><glyph glyph-name="Ocircumflexgrave" unicode="&#x1ed2;" d="M404 928 l58 -97 l-62 0 l-90 97 l94 0 ZM40 539 q0 106 61.5 166 q61.5 60 188.5 60 q127 0 188 -59.5 q61 -59.5 61 -166.5 l0 -316 q0 -112 -61 -175 q-61 -63 -188 -63 q-128 0 -189 63 q-61 63 -61 175 l0 316 ZM367 558 q0 47 -19.5 74 q-19.5 27 -57.5 27 q-39 0 -58.5 -27 q-19.5 -27 -19.5 -74 l0 -364 q0 -103 78 -103 q77 0 77 103 l0 364 ZM329 883 l60 -83 l-58 0 l-40 49 l-38 -49 l-58 0 l60 83 l74 0 Z" /><glyph glyph-name="ocircumflexgrave" unicode="&#x1ed3;" d="M344 743 l58 -97 l-62 0 l-90 97 l94 0 ZM241 -12 q-54 0 -93 15 q-39 15 -64 42 q-25 27 -37 65 q-12 38 -12 84 l0 141 q0 94 49 150 q49 56 157 56 q108 0 157 -56 q49 -56 49 -150 l0 -141 q0 -46 -12 -84 q-12 -38 -37 -65 q-25 -27 -64 -42 q-39 -15 -93 -15 ZM241 447 q-27 0 -41 -18.5 q-14 -18.5 -14 -53.5 l0 -220 q0 -32 12.5 -52.5 q12.5 -20.5 42.5 -20.5 q30 0 42.5 20.5 q12.5 20.5 12.5 52.5 l0 220 q0 35 -14 53.5 q-14 18.5 -41 18.5 ZM277 694 l60 -83 l-58 0 l-40 49 l-38 -49 l-58 0 l60 83 l74 0 Z" /><glyph glyph-name="Ocircumflexhookabove" unicode="&#x1ed4;" d="M441 959 l0 -44 q0 -11 -3 -19.5 q-3 -8.5 -7 -17.5 q-4 -8 -7 -13.5 q-3 -5.5 -5 -9.5 q-3 -4 -4 -8 l-40 0 l21 49 l0 11 l-27 1 l-8 51 l80 0 ZM40 539 q0 106 61.5 166 q61.5 60 188.5 60 q127 0 188 -59.5 q61 -59.5 61 -166.5 l0 -316 q0 -112 -61 -175 q-61 -63 -188 -63 q-128 0 -189 63 q-61 63 -61 175 l0 316 ZM367 558 q0 47 -19.5 74 q-19.5 27 -57.5 27 q-39 0 -58.5 -27 q-19.5 -27 -19.5 -74 l0 -364 q0 -103 78 -103 q77 0 77 103 l0 364 ZM329 883 l60 -83 l-58 0 l-40 49 l-38 -49 l-58 0 l60 83 l74 0 Z" /><glyph glyph-name="ocircumflexhookabove" unicode="&#x1ed5;" d="M378 769 l0 -44 q0 -11 -3 -19.5 q-3 -8.5 -7 -17.5 q-4 -8 -7 -13.5 q-3 -5.5 -5 -9.5 q-3 -4 -4 -8 l-40 0 l21 49 l0 11 l-27 1 l-8 51 l80 0 ZM241 -12 q-54 0 -93 15 q-39 15 -64 42 q-25 27 -37 65 q-12 38 -12 84 l0 141 q0 94 49 150 q49 56 157 56 q108 0 157 -56 q49 -56 49 -150 l0 -141 q0 -46 -12 -84 q-12 -38 -37 -65 q-25 -27 -64 -42 q-39 -15 -93 -15 ZM241 447 q-27 0 -41 -18.5 q-14 -18.5 -14 -53.5 l0 -220 q0 -32 12.5 -52.5 q12.5 -20.5 42.5 -20.5 q30 0 42.5 20.5 q12.5 20.5 12.5 52.5 l0 220 q0 35 -14 53.5 q-14 18.5 -41 18.5 ZM277 694 l60 -83 l-58 0 l-40 49 l-38 -49 l-58 0 l60 83 l74 0 Z" /><glyph glyph-name="Ocircumflextilde" unicode="&#x1ed6;" d="M186 918 q13 30 31 46.5 q18 16.5 43 16.5 q12 0 23 -4 q11 -4 21.5 -9 q10.5 -5 20 -9 q9.5 -4 17.5 -4 q10 0 18.5 5.5 q8.5 5.5 15.5 22.5 l39 -12 q-11 -29 -28.5 -47 q-17.5 -18 -46.5 -18 q-12 0 -23 4 q-11 4 -21.5 8.5 q-10.5 4.5 -20.5 8.5 q-10 4 -19 4 q-20 0 -32 -25 l-38 12 ZM40 539 q0 106 61.5 166 q61.5 60 188.5 60 q127 0 188 -59.5 q61 -59.5 61 -166.5 l0 -316 q0 -112 -61 -175 q-61 -63 -188 -63 q-128 0 -189 63 q-61 63 -61 175 l0 316 ZM367 558 q0 47 -19.5 74 q-19.5 27 -57.5 27 q-39 0 -58.5 -27 q-19.5 -27 -19.5 -74 l0 -364 q0 -103 78 -103 q77 0 77 103 l0 364 ZM329 883 l60 -83 l-58 0 l-40 49 l-38 -49 l-58 0 l60 83 l74 0 Z" /><glyph glyph-name="ocircumflextilde" unicode="&#x1ed7;" d="M126 724 q13 30 31 46.5 q18 16.5 43 16.5 q12 0 23 -4 q11 -4 21.5 -9 q10.5 -5 20 -9 q9.5 -4 17.5 -4 q10 0 18.5 5.5 q8.5 5.5 15.5 22.5 l39 -12 q-11 -29 -28.5 -47 q-17.5 -18 -46.5 -18 q-12 0 -23 4 q-11 4 -21.5 8.5 q-10.5 4.5 -20.5 8.5 q-10 4 -19 4 q-20 0 -32 -25 l-38 12 ZM241 -12 q-54 0 -93 15 q-39 15 -64 42 q-25 27 -37 65 q-12 38 -12 84 l0 141 q0 94 49 150 q49 56 157 56 q108 0 157 -56 q49 -56 49 -150 l0 -141 q0 -46 -12 -84 q-12 -38 -37 -65 q-25 -27 -64 -42 q-39 -15 -93 -15 ZM241 447 q-27 0 -41 -18.5 q-14 -18.5 -14 -53.5 l0 -220 q0 -32 12.5 -52.5 q12.5 -20.5 42.5 -20.5 q30 0 42.5 20.5 q12.5 20.5 12.5 52.5 l0 220 q0 35 -14 53.5 q-14 18.5 -41 18.5 ZM277 694 l60 -83 l-58 0 l-40 49 l-38 -49 l-58 0 l60 83 l74 0 Z" /><glyph glyph-name="Ocircumflexdotbelow" unicode="&#x1ed8;" d="M251 -132 l0 80 l85 0 l0 -80 l-85 0 ZM40 539 q0 106 61.5 166 q61.5 60 188.5 60 q127 0 188 -59.5 q61 -59.5 61 -166.5 l0 -316 q0 -112 -61 -175 q-61 -63 -188 -63 q-128 0 -189 63 q-61 63 -61 175 l0 316 ZM367 558 q0 47 -19.5 74 q-19.5 27 -57.5 27 q-39 0 -58.5 -27 q-19.5 -27 -19.5 -74 l0 -364 q0 -103 78 -103 q77 0 77 103 l0 364 ZM329 883 l60 -83 l-58 0 l-40 49 l-38 -49 l-58 0 l60 83 l74 0 Z" /><glyph glyph-name="ocircumflexdotbelow" unicode="&#x1ed9;" d="M205 -132 l0 80 l85 0 l0 -80 l-85 0 ZM241 -12 q-54 0 -93 15 q-39 15 -64 42 q-25 27 -37 65 q-12 38 -12 84 l0 141 q0 94 49 150 q49 56 157 56 q108 0 157 -56 q49 -56 49 -150 l0 -141 q0 -46 -12 -84 q-12 -38 -37 -65 q-25 -27 -64 -42 q-39 -15 -93 -15 ZM241 447 q-27 0 -41 -18.5 q-14 -18.5 -14 -53.5 l0 -220 q0 -32 12.5 -52.5 q12.5 -20.5 42.5 -20.5 q30 0 42.5 20.5 q12.5 20.5 12.5 52.5 l0 220 q0 35 -14 53.5 q-14 18.5 -41 18.5 ZM277 694 l60 -83 l-58 0 l-40 49 l-38 -49 l-58 0 l60 83 l74 0 Z" /><glyph glyph-name="Ohornacute" unicode="&#x1eda;" d="M304 844 l-63 0 l58 96 l92 0 l-87 -96 ZM372 829 q0 0 6 2 q6 2 16.5 4 q10.5 2 24 2.5 q13.5 0.5 27.5 -3.5 q16 -4 27 -15.5 q11 -11.5 15 -28 q4 -16.5 0 -37 q-4 -20.5 -17 -42.5 l-10 8 l-12 8 l-12 7 l-10 5 q2 8 3 16 q1 6 0.5 12.5 q-0.5 6.5 -3.5 10.5 q-3 3 -9 4 q-6 1 -13 1 q-7 0 -13.5 -1 q-6.5 -1 -8.5 -2 q0 0 -1.5 7.5 q-1.5 7.5 -3.5 16.5 q-2 9 -4 17 q-2 8 -2 8 ZM40 539 q0 106 61.5 166 q61.5 60 188.5 60 q127 0 188 -59.5 q61 -59.5 61 -166.5 l0 -316 q0 -112 -61 -175 q-61 -63 -188 -63 q-128 0 -189 63 q-61 63 -61 175 l0 316 ZM367 558 q0 47 -19.5 74 q-19.5 27 -57.5 27 q-39 0 -58.5 -27 q-19.5 -27 -19.5 -74 l0 -364 q0 -103 78 -103 q77 0 77 103 l0 364 Z" /><glyph glyph-name="ohornacute" unicode="&#x1edb;" d="M290 612 q0 0 6 2 q6 2 16.5 4 q10.5 2 24 2.5 q13.5 0.5 27.5 -3.5 q16 -4 27 -15.5 q11 -11.5 15 -28 q4 -16.5 0 -37 q-4 -20.5 -17 -42.5 l-10 8 l-11 8 l-13 7 l-10 5 q2 8 3 16 q1 6 0.5 12.5 q-0.5 6.5 -3.5 10.5 q-3 3 -9 4 q-6 1 -13 1 q-7 0 -13.5 -1 q-6.5 -1 -8.5 -2 q0 0 -1.5 7.5 q-1.5 7.5 -3.5 16.5 q-2 9 -4 17 q-2 8 -2 8 ZM256 657 l-63 0 l58 96 l92 0 l-87 -96 ZM241 -12 q-54 0 -93 15 q-39 15 -64 42 q-25 27 -37 65 q-12 38 -12 84 l0 141 q0 94 49 150 q49 56 157 56 q108 0 157 -56 q49 -56 49 -150 l0 -141 q0 -46 -12 -84 q-12 -38 -37 -65 q-25 -27 -64 -42 q-39 -15 -93 -15 ZM241 447 q-27 0 -41 -18.5 q-14 -18.5 -14 -53.5 l0 -220 q0 -32 12.5 -52.5 q12.5 -20.5 42.5 -20.5 q30 0 42.5 20.5 q12.5 20.5 12.5 52.5 l0 220 q0 35 -14 53.5 q-14 18.5 -41 18.5 Z" /><glyph glyph-name="Ohorngrave" unicode="&#x1edc;" d="M372 829 q0 0 6 2 q6 2 16.5 4 q10.5 2 24 2.5 q13.5 0.5 27.5 -3.5 q16 -4 27 -15.5 q11 -11.5 15 -28 q4 -16.5 0 -37 q-4 -20.5 -17 -42.5 l-10 8 l-12 8 l-12 7 l-10 5 q2 8 3 16 q1 6 0.5 12.5 q-0.5 6.5 -3.5 10.5 q-3 3 -9 4 q-6 1 -13 1 q-7 0 -13.5 -1 q-6.5 -1 -8.5 -2 q0 0 -1.5 7.5 q-1.5 7.5 -3.5 16.5 q-2 9 -4 17 q-2 8 -2 8 ZM261 928 l58 -97 l-62 0 l-90 97 l94 0 ZM40 539 q0 106 61.5 166 q61.5 60 188.5 60 q127 0 188 -59.5 q61 -59.5 61 -166.5 l0 -316 q0 -112 -61 -175 q-61 -63 -188 -63 q-128 0 -189 63 q-61 63 -61 175 l0 316 ZM367 558 q0 47 -19.5 74 q-19.5 27 -57.5 27 q-39 0 -58.5 -27 q-19.5 -27 -19.5 -74 l0 -364 q0 -103 78 -103 q77 0 77 103 l0 364 Z" /><glyph glyph-name="ohorngrave" unicode="&#x1edd;" d="M290 612 q0 0 6 2 q6 2 16.5 4 q10.5 2 24 2.5 q13.5 0.5 27.5 -3.5 q16 -4 27 -15.5 q11 -11.5 15 -28 q4 -16.5 0 -37 q-4 -20.5 -17 -42.5 l-10 8 l-11 8 l-13 7 l-10 5 q2 8 3 16 q1 6 0.5 12.5 q-0.5 6.5 -3.5 10.5 q-3 3 -9 4 q-6 1 -13 1 q-7 0 -13.5 -1 q-6.5 -1 -8.5 -2 q0 0 -1.5 7.5 q-1.5 7.5 -3.5 16.5 q-2 9 -4 17 q-2 8 -2 8 ZM213 707 l58 -97 l-62 0 l-90 97 l94 0 ZM241 -12 q-54 0 -93 15 q-39 15 -64 42 q-25 27 -37 65 q-12 38 -12 84 l0 141 q0 94 49 150 q49 56 157 56 q108 0 157 -56 q49 -56 49 -150 l0 -141 q0 -46 -12 -84 q-12 -38 -37 -65 q-25 -27 -64 -42 q-39 -15 -93 -15 ZM241 447 q-27 0 -41 -18.5 q-14 -18.5 -14 -53.5 l0 -220 q0 -32 12.5 -52.5 q12.5 -20.5 42.5 -20.5 q30 0 42.5 20.5 q12.5 20.5 12.5 52.5 l0 220 q0 35 -14 53.5 q-14 18.5 -41 18.5 Z" /><glyph glyph-name="Ohornhookabove" unicode="&#x1ede;" d="M372 829 q0 0 6 2 q6 2 16.5 4 q10.5 2 24 2.5 q13.5 0.5 27.5 -3.5 q16 -4 27 -15.5 q11 -11.5 15 -28 q4 -16.5 0 -37 q-4 -20.5 -17 -42.5 l-10 8 l-12 8 l-12 7 l-10 5 q2 8 3 16 q1 6 0.5 12.5 q-0.5 6.5 -3.5 10.5 q-3 3 -9 4 q-6 1 -13 1 q-7 0 -13.5 -1 q-6.5 -1 -8.5 -2 q0 0 -1.5 7.5 q-1.5 7.5 -3.5 16.5 q-2 9 -4 17 q-2 8 -2 8 ZM309 912 l0 -44 q0 -11 -3 -19.5 q-3 -8.5 -7 -17.5 q-4 -8 -7 -13.5 q-3 -5.5 -5 -9.5 q-3 -4 -4 -8 l-40 0 l21 49 l0 11 l-27 1 l-8 51 l80 0 ZM40 539 q0 106 61.5 166 q61.5 60 188.5 60 q127 0 188 -59.5 q61 -59.5 61 -166.5 l0 -316 q0 -112 -61 -175 q-61 -63 -188 -63 q-128 0 -189 63 q-61 63 -61 175 l0 316 ZM367 558 q0 47 -19.5 74 q-19.5 27 -57.5 27 q-39 0 -58.5 -27 q-19.5 -27 -19.5 -74 l0 -364 q0 -103 78 -103 q77 0 77 103 l0 364 Z" /><glyph glyph-name="ohornhookabove" unicode="&#x1edf;" d="M290 612 q0 0 6 2 q6 2 16.5 4 q10.5 2 24 2.5 q13.5 0.5 27.5 -3.5 q16 -4 27 -15.5 q11 -11.5 15 -28 q4 -16.5 0 -37 q-4 -20.5 -17 -42.5 l-10 8 l-11 8 l-13 7 l-10 5 q2 8 3 16 q1 6 0.5 12.5 q-0.5 6.5 -3.5 10.5 q-3 3 -9 4 q-6 1 -13 1 q-7 0 -13.5 -1 q-6.5 -1 -8.5 -2 q0 0 -1.5 7.5 q-1.5 7.5 -3.5 16.5 q-2 9 -4 17 q-2 8 -2 8 ZM281 712 l0 -44 q0 -11 -3 -19.5 q-3 -8.5 -7 -17.5 q-4 -8 -7 -13.5 q-3 -5.5 -5 -9.5 q-3 -4 -4 -8 l-40 0 l21 49 l0 11 l-27 1 l-8 51 l80 0 ZM241 -12 q-54 0 -93 15 q-39 15 -64 42 q-25 27 -37 65 q-12 38 -12 84 l0 141 q0 94 49 150 q49 56 157 56 q108 0 157 -56 q49 -56 49 -150 l0 -141 q0 -46 -12 -84 q-12 -38 -37 -65 q-25 -27 -64 -42 q-39 -15 -93 -15 ZM241 447 q-27 0 -41 -18.5 q-14 -18.5 -14 -53.5 l0 -220 q0 -32 12.5 -52.5 q12.5 -20.5 42.5 -20.5 q30 0 42.5 20.5 q12.5 20.5 12.5 52.5 l0 220 q0 35 -14 53.5 q-14 18.5 -41 18.5 Z" /><glyph glyph-name="Ohorntilde" unicode="&#x1ee0;" d="M372 829 q0 0 6 2 q6 2 16.5 4 q10.5 2 24 2.5 q13.5 0.5 27.5 -3.5 q16 -4 27 -15.5 q11 -11.5 15 -28 q4 -16.5 0 -37 q-4 -20.5 -17 -42.5 l-10 8 l-12 8 l-12 7 l-10 5 q2 8 3 16 q1 6 0.5 12.5 q-0.5 6.5 -3.5 10.5 q-3 3 -9 4 q-6 1 -13 1 q-7 0 -13.5 -1 q-6.5 -1 -8.5 -2 q0 0 -1.5 7.5 q-1.5 7.5 -3.5 16.5 q-2 9 -4 17 q-2 8 -2 8 ZM186 854 q13 30 31 46.5 q18 16.5 43 16.5 q12 0 23 -4 q11 -4 21.5 -9 q10.5 -5 20 -9 q9.5 -4 17.5 -4 q10 0 18.5 5.5 q8.5 5.5 15.5 22.5 l39 -12 q-11 -29 -28.5 -47 q-17.5 -18 -46.5 -18 q-12 0 -23 4 q-11 4 -21.5 8.5 q-10.5 4.5 -20.5 8.5 q-10 4 -19 4 q-20 0 -32 -25 l-38 12 ZM40 539 q0 106 61.5 166 q61.5 60 188.5 60 q127 0 188 -59.5 q61 -59.5 61 -166.5 l0 -316 q0 -112 -61 -175 q-61 -63 -188 -63 q-128 0 -189 63 q-61 63 -61 175 l0 316 ZM367 558 q0 47 -19.5 74 q-19.5 27 -57.5 27 q-39 0 -58.5 -27 q-19.5 -27 -19.5 -74 l0 -364 q0 -103 78 -103 q77 0 77 103 l0 364 Z" /><glyph glyph-name="ohorntilde" unicode="&#x1ee1;" d="M290 612 q0 0 6 2 q6 2 16.5 4 q10.5 2 24 2.5 q13.5 0.5 27.5 -3.5 q16 -4 27 -15.5 q11 -11.5 15 -28 q4 -16.5 0 -37 q-4 -20.5 -17 -42.5 l-10 8 l-11 8 l-13 7 l-10 5 q2 8 3 16 q1 6 0.5 12.5 q-0.5 6.5 -3.5 10.5 q-3 3 -9 4 q-6 1 -13 1 q-7 0 -13.5 -1 q-6.5 -1 -8.5 -2 q0 0 -1.5 7.5 q-1.5 7.5 -3.5 16.5 q-2 9 -4 17 q-2 8 -2 8 ZM126 640 q13 30 31 46.5 q18 16.5 43 16.5 q12 0 23 -4 q11 -4 21.5 -9 q10.5 -5 20 -9 q9.5 -4 17.5 -4 q10 0 18.5 5.5 q8.5 5.5 15.5 22.5 l39 -12 q-11 -29 -28.5 -47 q-17.5 -18 -46.5 -18 q-12 0 -23 4 q-11 4 -21.5 8.5 q-10.5 4.5 -20.5 8.5 q-10 4 -19 4 q-20 0 -32 -25 l-38 12 ZM241 -12 q-54 0 -93 15 q-39 15 -64 42 q-25 27 -37 65 q-12 38 -12 84 l0 141 q0 94 49 150 q49 56 157 56 q108 0 157 -56 q49 -56 49 -150 l0 -141 q0 -46 -12 -84 q-12 -38 -37 -65 q-25 -27 -64 -42 q-39 -15 -93 -15 ZM241 447 q-27 0 -41 -18.5 q-14 -18.5 -14 -53.5 l0 -220 q0 -32 12.5 -52.5 q12.5 -20.5 42.5 -20.5 q30 0 42.5 20.5 q12.5 20.5 12.5 52.5 l0 220 q0 35 -14 53.5 q-14 18.5 -41 18.5 Z" /><glyph glyph-name="Ohorndotbelow" unicode="&#x1ee2;" d="M251 -132 l0 80 l85 0 l0 -80 l-85 0 ZM372 829 q0 0 6 2 q6 2 16.5 4 q10.5 2 24 2.5 q13.5 0.5 27.5 -3.5 q16 -4 27 -15.5 q11 -11.5 15 -28 q4 -16.5 0 -37 q-4 -20.5 -17 -42.5 l-10 8 l-12 8 l-12 7 l-10 5 q2 8 3 16 q1 6 0.5 12.5 q-0.5 6.5 -3.5 10.5 q-3 3 -9 4 q-6 1 -13 1 q-7 0 -13.5 -1 q-6.5 -1 -8.5 -2 q0 0 -1.5 7.5 q-1.5 7.5 -3.5 16.5 q-2 9 -4 17 q-2 8 -2 8 ZM40 223 q0 -112 61 -175 q61 -63 189 -63 q127 0 188 63 q61 63 61 175 l0 316 q0 107 -61 166.5 q-61 59.5 -188 59.5 q-127 0 -188.5 -60 q-61.5 -60 -61.5 -166 l0 -316 ZM367 194 q0 -103 -77 -103 q-78 0 -78 103 l0 364 q0 47 19.5 74 q19.5 27 58.5 27 q38 0 57.5 -27 q19.5 -27 19.5 -74 l0 -364 Z" /><glyph glyph-name="ohorndotbelow" unicode="&#x1ee3;" d="M205 -132 l0 80 l85 0 l0 -80 l-85 0 ZM290 612 q0 0 6 2 q6 2 16.5 4 q10.5 2 24 2.5 q13.5 0.5 27.5 -3.5 q16 -4 27 -15.5 q11 -11.5 15 -28 q4 -16.5 0 -37 q-4 -20.5 -17 -42.5 l-10 8 l-11 8 l-13 7 l-10 5 q2 8 3 16 q1 6 0.5 12.5 q-0.5 6.5 -3.5 10.5 q-3 3 -9 4 q-6 1 -13 1 q-7 0 -13.5 -1 q-6.5 -1 -8.5 -2 q0 0 -1.5 7.5 q-1.5 7.5 -3.5 16.5 q-2 9 -4 17 q-2 8 -2 8 ZM241 -12 q54 0 93 15 q39 15 64 42 q25 27 37 65 q12 38 12 84 l0 141 q0 94 -49 150 q-49 56 -157 56 q-108 0 -157 -56 q-49 -56 -49 -150 l0 -141 q0 -46 12 -84 q12 -38 37 -65 q25 -27 64 -42 q39 -15 93 -15 ZM241 447 q27 0 41 -18.5 q14 -18.5 14 -53.5 l0 -220 q0 -32 -12.5 -52.5 q-12.5 -20.5 -42.5 -20.5 q-30 0 -42.5 20.5 q-12.5 20.5 -12.5 52.5 l0 220 q0 35 14 53.5 q14 18.5 41 18.5 Z" /><glyph glyph-name="Udotbelow" unicode="&#x1ee4;" d="M251 -132 l0 80 l85 0 l0 -80 l-85 0 ZM220 750 l0 -559 q0 -46 21 -72.5 q21 -26.5 62 -26.5 q42 0 62 26.5 q20 26.5 20 72.5 l0 559 l136 0 l0 -539 q0 -112 -63 -169 q-63 -57 -168 -57 q-64 0 -109.5 17 q-45.5 17 -74.5 47 q-29 30 -42.5 71.5 q-13.5 41.5 -13.5 90.5 l0 539 l170 0 Z" /><glyph glyph-name="udotbelow" unicode="&#x1ee5;" d="M205 -132 l0 80 l85 0 l0 -80 l-85 0 ZM196 529 l0 -377 q0 -38 13.5 -51.5 q13.5 -13.5 33.5 -13.5 q20 0 35 10.5 q15 10.5 24 23.5 l0 408 l148 0 l0 -529 l-143 0 l0 42 l-2 0 q-46 -54 -126 -54 q-69 0 -101.5 40.5 q-32.5 40.5 -32.5 128.5 l0 372 l151 0 Z" /><glyph glyph-name="Uhookabove" unicode="&#x1ee6;" d="M346 912 l0 -44 q0 -11 -3 -19.5 q-3 -8.5 -7 -17.5 q-4 -8 -7 -13.5 q-3 -5.5 -5 -9.5 q-3 -4 -4 -8 l-40 0 l21 49 l0 11 l-27 1 l-8 51 l80 0 ZM220 750 l0 -559 q0 -46 21 -72.5 q21 -26.5 62 -26.5 q42 0 62 26.5 q20 26.5 20 72.5 l0 559 l136 0 l0 -539 q0 -112 -63 -169 q-63 -57 -168 -57 q-64 0 -109.5 17 q-45.5 17 -74.5 47 q-29 30 -42.5 71.5 q-13.5 41.5 -13.5 90.5 l0 539 l170 0 Z" /><glyph glyph-name="uhookabove" unicode="&#x1ee7;" d="M281 712 l0 -44 q0 -11 -3 -19.5 q-3 -8.5 -7 -17.5 q-4 -8 -7 -13.5 q-3 -5.5 -5 -9.5 q-3 -4 -4 -8 l-40 0 l21 49 l0 11 l-27 1 l-8 51 l80 0 ZM196 529 l0 -377 q0 -38 13.5 -51.5 q13.5 -13.5 33.5 -13.5 q20 0 35 10.5 q15 10.5 24 23.5 l0 408 l148 0 l0 -529 l-143 0 l0 42 l-2 0 q-46 -54 -126 -54 q-69 0 -101.5 40.5 q-32.5 40.5 -32.5 128.5 l0 372 l151 0 Z" /><glyph glyph-name="Uhornacute" unicode="&#x1ee8;" d="M408 829 q0 0 6 2 q6 2 16.5 4 q10.5 2 24 2.5 q13.5 0.5 27.5 -3.5 q32 -8 38.5 -31.5 q6.5 -23.5 0.5 -52.5 l-55 0 q1 5 1 10 q0 5 -0.5 9.5 q-0.5 4.5 -3.5 8.5 q-3 3 -9 4 q-6 1 -13 1 q-7 0 -13.5 -1 q-6.5 -1 -8.5 -2 q0 0 -1.5 7.5 q-1.5 7.5 -3.5 16.5 q-2 9 -4 17 q-2 8 -2 8 ZM341 800 l-63 0 l58 96 l92 0 l-87 -96 ZM220 750 l0 -559 q0 -46 21 -72.5 q21 -26.5 62 -26.5 q42 0 62 26.5 q20 26.5 20 72.5 l0 559 l136 0 l0 -539 q0 -112 -63 -169 q-63 -57 -168 -57 q-64 0 -109.5 17 q-45.5 17 -74.5 47 q-29 30 -42.5 71.5 q-13.5 41.5 -13.5 90.5 l0 539 l170 0 Z" /><glyph glyph-name="uhornacute" unicode="&#x1ee9;" d="M339 607 q0 0 6 2 q6 2 16.5 4 q10.5 2 24 2.5 q13.5 0.5 27.5 -3.5 q32 -8 38.5 -31.5 q6.5 -23.5 0.5 -52.5 l-55 0 q1 5 1 10 q0 5 -0.5 9.5 q-0.5 4.5 -3.5 8.5 q-3 3 -9 4 q-6 1 -13 1 q-7 0 -13.5 -1 q-6.5 -1 -8.5 -2 q0 0 -1.5 7.5 q-1.5 7.5 -3.5 16.5 q-2 9 -4 17 q-2 8 -2 8 ZM287 657 l-63 0 l58 96 l92 0 l-87 -96 ZM196 529 l0 -377 q0 -38 13.5 -51.5 q13.5 -13.5 33.5 -13.5 q20 0 35 10.5 q15 10.5 24 23.5 l0 408 l148 0 l0 -529 l-143 0 l0 42 l-2 0 q-46 -54 -126 -54 q-69 0 -101.5 40.5 q-32.5 40.5 -32.5 128.5 l0 372 l151 0 Z" /><glyph glyph-name="Uhorngrave" unicode="&#x1eea;" d="M408 829 q0 0 6 2 q6 2 16.5 4 q10.5 2 24 2.5 q13.5 0.5 27.5 -3.5 q32 -8 38.5 -31.5 q6.5 -23.5 0.5 -52.5 l-55 0 q1 5 1 10 q0 5 -0.5 9.5 q-0.5 4.5 -3.5 8.5 q-3 3 -9 4 q-6 1 -13 1 q-7 0 -13.5 -1 q-6.5 -1 -8.5 -2 q0 0 -1.5 7.5 q-1.5 7.5 -3.5 16.5 q-2 9 -4 17 q-2 8 -2 8 ZM285 897 l58 -97 l-62 0 l-90 97 l94 0 ZM220 750 l0 -559 q0 -46 21 -72.5 q21 -26.5 62 -26.5 q42 0 62 26.5 q20 26.5 20 72.5 l0 559 l136 0 l0 -539 q0 -112 -63 -169 q-63 -57 -168 -57 q-64 0 -109.5 17 q-45.5 17 -74.5 47 q-29 30 -42.5 71.5 q-13.5 41.5 -13.5 90.5 l0 539 l170 0 Z" /><glyph glyph-name="uhorngrave" unicode="&#x1eeb;" d="M339 607 q0 0 6 2 q6 2 16.5 4 q10.5 2 24 2.5 q13.5 0.5 27.5 -3.5 q32 -8 38.5 -31.5 q6.5 -23.5 0.5 -52.5 l-55 0 q1 5 1 10 q0 5 -0.5 9.5 q-0.5 4.5 -3.5 8.5 q-3 3 -9 4 q-6 1 -13 1 q-7 0 -13.5 -1 q-6.5 -1 -8.5 -2 q0 0 -1.5 7.5 q-1.5 7.5 -3.5 16.5 q-2 9 -4 17 q-2 8 -2 8 ZM213 707 l58 -97 l-62 0 l-90 97 l94 0 ZM196 529 l0 -377 q0 -38 13.5 -51.5 q13.5 -13.5 33.5 -13.5 q20 0 35 10.5 q15 10.5 24 23.5 l0 408 l148 0 l0 -529 l-143 0 l0 42 l-2 0 q-46 -54 -126 -54 q-69 0 -101.5 40.5 q-32.5 40.5 -32.5 128.5 l0 372 l151 0 Z" /><glyph glyph-name="Uhornhookabove" unicode="&#x1eec;" d="M408 829 q0 0 6 2 q6 2 16.5 4 q10.5 2 24 2.5 q13.5 0.5 27.5 -3.5 q32 -8 38.5 -31.5 q6.5 -23.5 0.5 -52.5 l-55 0 q1 5 1 10 q0 5 -0.5 9.5 q-0.5 4.5 -3.5 8.5 q-3 3 -9 4 q-6 1 -13 1 q-7 0 -13.5 -1 q-6.5 -1 -8.5 -2 q0 0 -1.5 7.5 q-1.5 7.5 -3.5 16.5 q-2 9 -4 17 q-2 8 -2 8 ZM346 912 l0 -44 q0 -11 -3 -19.5 q-3 -8.5 -7 -17.5 q-4 -8 -7 -13.5 q-3 -5.5 -5 -9.5 q-3 -4 -4 -8 l-40 0 l21 49 l0 11 l-27 1 l-8 51 l80 0 ZM220 750 l0 -559 q0 -46 21 -72.5 q21 -26.5 62 -26.5 q42 0 62 26.5 q20 26.5 20 72.5 l0 559 l136 0 l0 -539 q0 -112 -63 -169 q-63 -57 -168 -57 q-64 0 -109.5 17 q-45.5 17 -74.5 47 q-29 30 -42.5 71.5 q-13.5 41.5 -13.5 90.5 l0 539 l170 0 Z" /><glyph glyph-name="uhornhookabove" unicode="&#x1eed;" d="M339 607 q0 0 6 2 q6 2 16.5 4 q10.5 2 24 2.5 q13.5 0.5 27.5 -3.5 q32 -8 38.5 -31.5 q6.5 -23.5 0.5 -52.5 l-55 0 q1 5 1 10 q0 5 -0.5 9.5 q-0.5 4.5 -3.5 8.5 q-3 3 -9 4 q-6 1 -13 1 q-7 0 -13.5 -1 q-6.5 -1 -8.5 -2 q0 0 -1.5 7.5 q-1.5 7.5 -3.5 16.5 q-2 9 -4 17 q-2 8 -2 8 ZM281 712 l0 -44 q0 -11 -3 -19.5 q-3 -8.5 -7 -17.5 q-4 -8 -7 -13.5 q-3 -5.5 -5 -9.5 q-3 -4 -4 -8 l-40 0 l21 49 l0 11 l-27 1 l-8 51 l80 0 ZM196 529 l0 -377 q0 -38 13.5 -51.5 q13.5 -13.5 33.5 -13.5 q20 0 35 10.5 q15 10.5 24 23.5 l0 408 l148 0 l0 -529 l-143 0 l0 42 l-2 0 q-46 -54 -126 -54 q-69 0 -101.5 40.5 q-32.5 40.5 -32.5 128.5 l0 372 l151 0 Z" /><glyph glyph-name="Uhorntilde" unicode="&#x1eee;" d="M408 829 q0 0 6 2 q6 2 16.5 4 q10.5 2 24 2.5 q13.5 0.5 27.5 -3.5 q32 -8 38.5 -31.5 q6.5 -23.5 0.5 -52.5 l-55 0 q1 5 1 10 q0 5 -0.5 9.5 q-0.5 4.5 -3.5 8.5 q-3 3 -9 4 q-6 1 -13 1 q-7 0 -13.5 -1 q-6.5 -1 -8.5 -2 q0 0 -1.5 7.5 q-1.5 7.5 -3.5 16.5 q-2 9 -4 17 q-2 8 -2 8 ZM186 854 q13 30 31 46.5 q18 16.5 43 16.5 q12 0 23 -4 q11 -4 21.5 -9 q10.5 -5 20 -9 q9.5 -4 17.5 -4 q10 0 18.5 5.5 q8.5 5.5 15.5 22.5 l39 -12 q-11 -29 -28.5 -47 q-17.5 -18 -46.5 -18 q-12 0 -23 4 q-11 4 -21.5 8.5 q-10.5 4.5 -20.5 8.5 q-10 4 -19 4 q-20 0 -32 -25 l-38 12 ZM220 750 l0 -559 q0 -46 21 -72.5 q21 -26.5 62 -26.5 q42 0 62 26.5 q20 26.5 20 72.5 l0 559 l136 0 l0 -539 q0 -112 -63 -169 q-63 -57 -168 -57 q-64 0 -109.5 17 q-45.5 17 -74.5 47 q-29 30 -42.5 71.5 q-13.5 41.5 -13.5 90.5 l0 539 l170 0 Z" /><glyph glyph-name="uhorntilde" unicode="&#x1eef;" d="M339 607 q0 0 6 2 q6 2 16.5 4 q10.5 2 24 2.5 q13.5 0.5 27.5 -3.5 q32 -8 38.5 -31.5 q6.5 -23.5 0.5 -52.5 l-55 0 q1 5 1 10 q0 5 -0.5 9.5 q-0.5 4.5 -3.5 8.5 q-3 3 -9 4 q-6 1 -13 1 q-7 0 -13.5 -1 q-6.5 -1 -8.5 -2 q0 0 -1.5 7.5 q-1.5 7.5 -3.5 16.5 q-2 9 -4 17 q-2 8 -2 8 ZM126 616 q13 30 31 46.5 q18 16.5 43 16.5 q12 0 23 -4 q11 -4 21.5 -9 q10.5 -5 20 -9 q9.5 -4 17.5 -4 q10 0 18.5 5.5 q8.5 5.5 15.5 22.5 l39 -12 q-11 -29 -28.5 -47 q-17.5 -18 -46.5 -18 q-12 0 -23 4 q-11 4 -21.5 8.5 q-10.5 4.5 -20.5 8.5 q-10 4 -19 4 q-20 0 -32 -25 l-38 12 ZM196 529 l0 -377 q0 -38 13.5 -51.5 q13.5 -13.5 33.5 -13.5 q20 0 35 10.5 q15 10.5 24 23.5 l0 408 l148 0 l0 -529 l-143 0 l0 42 l-2 0 q-46 -54 -126 -54 q-69 0 -101.5 40.5 q-32.5 40.5 -32.5 128.5 l0 372 l151 0 Z" /><glyph glyph-name="Uhorndotbelow" unicode="&#x1ef0;" d="M251 -132 l0 80 l85 0 l0 -80 l-85 0 ZM408 829 q0 0 6 2 q6 2 16.5 4 q10.5 2 24 2.5 q13.5 0.5 27.5 -3.5 q32 -8 38.5 -31.5 q6.5 -23.5 0.5 -52.5 l-55 0 q1 5 1 10 q0 5 -0.5 9.5 q-0.5 4.5 -3.5 8.5 q-3 3 -9 4 q-6 1 -13 1 q-7 0 -13.5 -1 q-6.5 -1 -8.5 -2 q0 0 -1.5 7.5 q-1.5 7.5 -3.5 16.5 q-2 9 -4 17 q-2 8 -2 8 ZM50 750 l0 -539 q0 -49 13.5 -90.5 q13.5 -41.5 42.5 -71.5 q29 -30 74.5 -47 q45.5 -17 109.5 -17 q105 0 168 57 q63 57 63 169 l0 539 l-136 0 l0 -559 q0 -46 -20 -72.5 q-20 -26.5 -62 -26.5 q-41 0 -62 26.5 q-21 26.5 -21 72.5 l0 559 l-170 0 Z" /><glyph glyph-name="uhorndotbelow" unicode="&#x1ef1;" d="M205 -132 l0 80 l85 0 l0 -80 l-85 0 ZM339 607 q0 0 6 2 q6 2 16.5 4 q10.5 2 24 2.5 q13.5 0.5 27.5 -3.5 q32 -8 38.5 -31.5 q6.5 -23.5 0.5 -52.5 l-55 0 q1 5 1 10 q0 5 -0.5 9.5 q-0.5 4.5 -3.5 8.5 q-3 3 -9 4 q-6 1 -13 1 q-7 0 -13.5 -1 q-6.5 -1 -8.5 -2 q0 0 -1.5 7.5 q-1.5 7.5 -3.5 16.5 q-2 9 -4 17 q-2 8 -2 8 ZM45 529 l0 -372 q0 -88 32.5 -128.5 q32.5 -40.5 101.5 -40.5 q80 0 126 54 l2 0 l0 -42 l143 0 l0 529 l-148 0 l0 -408 q-9 -13 -24 -23.5 q-15 -10.5 -35 -10.5 q-20 0 -33.5 13.5 q-13.5 13.5 -13.5 51.5 l0 377 l-151 0 Z" /><glyph glyph-name="Ygrave" unicode="&#x1ef2;" d="M246 897 l58 -97 l-62 0 l-90 97 l94 0 ZM180 750 l93 -318 l88 318 l128 0 l-158 -471 l0 -279 l-172 0 l0 279 l-161 471 l182 0 Z" /><glyph glyph-name="ygrave" unicode="&#x1ef3;" d="M213 707 l58 -97 l-62 0 l-90 97 l94 0 ZM40 -56 q10 -2 17 -2.5 q7 -0.5 17 -0.5 q39 0 54 16 q15 16 15 42 q0 17 -3.5 33 q-3.5 16 -8.5 33 l-129 464 l157 0 l81 -369 l3 0 l74 369 l118 0 l-135 -519 q-21 -81 -67 -123.5 q-46 -42.5 -134 -44.5 q-15 0 -30 1 q-15 1 -29 3 l0 98 Z" /><glyph glyph-name="Ydotbelow" unicode="&#x1ef4;" d="M213 -132 l0 80 l85 0 l0 -80 l-85 0 ZM180 750 l93 -318 l88 318 l128 0 l-158 -471 l0 -279 l-172 0 l0 279 l-161 471 l182 0 Z" /><glyph glyph-name="ydotbelow" unicode="&#x1ef5;" d="M205 -235 l0 80 l85 0 l0 -80 l-85 0 ZM40 -56 q10 -2 17 -2.5 q7 -0.5 17 -0.5 q39 0 54 16 q15 16 15 42 q0 17 -3.5 33 q-3.5 16 -8.5 33 l-129 464 l157 0 l81 -369 l3 0 l74 369 l118 0 l-135 -519 q-21 -81 -67 -123.5 q-46 -42.5 -134 -44.5 q-15 0 -30 1 q-15 1 -29 3 l0 98 Z" /><glyph glyph-name="Yhookabove" unicode="&#x1ef6;" d="M309 912 l0 -44 q0 -11 -3 -19.5 q-3 -8.5 -7 -17.5 q-4 -8 -7 -13.5 q-3 -5.5 -5 -9.5 q-3 -4 -4 -8 l-40 0 l21 49 l0 11 l-27 1 l-8 51 l80 0 ZM180 750 l93 -318 l88 318 l128 0 l-158 -471 l0 -279 l-172 0 l0 279 l-161 471 l182 0 Z" /><glyph glyph-name="yhookabove" unicode="&#x1ef7;" d="M281 712 l0 -44 q0 -11 -3 -19.5 q-3 -8.5 -7 -17.5 q-4 -8 -7 -13.5 q-3 -5.5 -5 -9.5 q-3 -4 -4 -8 l-40 0 l21 49 l0 11 l-27 1 l-8 51 l80 0 ZM40 -56 q10 -2 17 -2.5 q7 -0.5 17 -0.5 q39 0 54 16 q15 16 15 42 q0 17 -3.5 33 q-3.5 16 -8.5 33 l-129 464 l157 0 l81 -369 l3 0 l74 369 l118 0 l-135 -519 q-21 -81 -67 -123.5 q-46 -42.5 -134 -44.5 q-15 0 -30 1 q-15 1 -29 3 l0 98 Z" /><glyph glyph-name="Ytilde" unicode="&#x1ef8;" d="M186 853 q13 30 31 46.5 q18 16.5 43 16.5 q12 0 23 -4 q11 -4 21.5 -9 q10.5 -5 20 -9 q9.5 -4 17.5 -4 q10 0 18.5 5.5 q8.5 5.5 15.5 22.5 l39 -12 q-11 -29 -28.5 -47 q-17.5 -18 -46.5 -18 q-12 0 -23 4 q-11 4 -21.5 8.5 q-10.5 4.5 -20.5 8.5 q-10 4 -19 4 q-20 0 -32 -25 l-38 12 ZM180 750 l93 -318 l88 318 l128 0 l-158 -471 l0 -279 l-172 0 l0 279 l-161 471 l182 0 Z" /><glyph glyph-name="ytilde" unicode="&#x1ef9;" d="M126 616 q13 30 31 46.5 q18 16.5 43 16.5 q12 0 23 -4 q11 -4 21.5 -9 q10.5 -5 20 -9 q9.5 -4 17.5 -4 q10 0 18.5 5.5 q8.5 5.5 15.5 22.5 l39 -12 q-11 -29 -28.5 -47 q-17.5 -18 -46.5 -18 q-12 0 -23 4 q-11 4 -21.5 8.5 q-10.5 4.5 -20.5 8.5 q-10 4 -19 4 q-20 0 -32 -25 l-38 12 ZM40 -56 q10 -2 17 -2.5 q7 -0.5 17 -0.5 q39 0 54 16 q15 16 15 42 q0 17 -3.5 33 q-3.5 16 -8.5 33 l-129 464 l157 0 l81 -369 l3 0 l74 369 l118 0 l-135 -519 q-21 -81 -67 -123.5 q-46 -42.5 -134 -44.5 q-15 0 -30 1 q-15 1 -29 3 l0 98 Z" /><glyph glyph-name="endash" unicode="&#x2013;" d="M10 338 l526 0 l0 -119 l-526 0 l0 119 Z" /><glyph glyph-name="emdash" unicode="&#x2014;" d="M10 338 l1053 0 l0 -119 l-1053 0 l0 119 Z" /><glyph glyph-name="quoteleft" unicode="&#x2018;" d="M40 475 l0 108 q0 29 7 49 q7 20 17 40 q18 38 29 58 q6 11 11 20 l95 0 l-64 -133 l73 0 l0 -142 l-168 0 Z" /><glyph glyph-name="quoteright" unicode="&#x2019;" d="M213 750 l0 -108 q0 -29 -7 -49 q-7 -20 -17 -40 q-10 -19 -17 -33.5 q-7 -14.5 -12 -24.5 q-6 -11 -11 -20 l-95 0 l64 133 l-73 0 l0 142 l168 0 Z" /><glyph glyph-name="quotesinglbase" unicode="&#x201a;" d="M213 142 l0 -108 q0 -29 -7 -49 q-7 -20 -17 -40 q-10 -19 -17 -33.5 q-7 -14.5 -12 -24.5 q-6 -11 -11 -20 l-95 0 l64 133 l-73 0 l0 142 l168 0 Z" /><glyph glyph-name="quotedblleft" unicode="&#x201c;" d="M276 475 l0 108 q0 29 7 49 q7 20 17 40 q18 38 29 58 q6 11 11 20 l95 0 l-64 -133 l73 0 l0 -142 l-168 0 ZM40 475 l0 108 q0 29 7 49 q7 20 17 40 q18 38 29 58 q6 11 11 20 l95 0 l-64 -133 l73 0 l0 -142 l-168 0 Z" /><glyph glyph-name="quotedblright" unicode="&#x201d;" d="M213 750 l0 -108 q0 -29 -7 -49 q-7 -20 -17 -40 q-10 -19 -17 -33.5 q-7 -14.5 -12 -24.5 q-6 -11 -11 -20 l-95 0 l64 133 l-73 0 l0 142 l168 0 ZM449 750 l0 -108 q0 -29 -7 -49 q-7 -20 -17 -40 q-10 -19 -17 -33.5 q-7 -14.5 -12 -24.5 q-6 -11 -11 -20 l-95 0 l64 133 l-73 0 l0 142 l168 0 Z" /><glyph glyph-name="quotedblbase" unicode="&#x201e;" d="M213 142 l0 -108 q0 -29 -7 -49 q-7 -20 -17 -40 q-10 -19 -17 -33.5 q-7 -14.5 -12 -24.5 q-6 -11 -11 -20 l-95 0 l64 133 l-73 0 l0 142 l168 0 ZM449 142 l0 -108 q0 -29 -7 -49 q-7 -20 -17 -40 q-10 -19 -17 -33.5 q-7 -14.5 -12 -24.5 q-6 -11 -11 -20 l-95 0 l64 133 l-73 0 l0 142 l168 0 Z" /><glyph glyph-name="dagger" unicode="&#x2020;" d="M120 423 l-85 0 l0 138 l85 0 l94 -32 l11 0 l-30 119 l0 102 l146 0 l0 -102 l-30 -119 l12 0 l94 32 l85 0 l0 -138 l-85 0 l-94 32 l-10 0 l29 -169 l-37 -436 l-74 0 l-36 436 l28 169 l-9 0 l-94 -32 Z" /><glyph glyph-name="daggerdbl" unicode="&#x2021;" d="M223 455 l-9 0 l-94 -32 l-85 0 l0 138 l85 0 l94 -32 l11 0 l-30 119 l0 102 l146 0 l0 -102 l-30 -119 l12 0 l94 32 l85 0 l0 -138 l-85 0 l-94 32 l-10 0 l29 -169 l-28 -169 l9 0 l94 32 l85 0 l0 -138 l-85 0 l-94 32 l-11 0 l30 -119 l0 -102 l-146 0 l0 102 l30 119 l-12 0 l-94 -32 l-85 0 l0 138 l85 0 l94 -32 l10 0 l-29 169 l28 169 Z" /><glyph glyph-name="bullet" unicode="&#x2022;" d="M76 375 q0 39 14.5 73 q14.5 34 40 59.5 q25.5 25.5 59.5 40 q34 14.5 73 14.5 q39 0 73 -14.5 q34 -14.5 59.5 -40 q25.5 -25.5 40.5 -59.5 q15 -34 15 -73 q0 -39 -15 -73 q-15 -34 -40.5 -59.5 q-25.5 -25.5 -59.5 -40.5 q-34 -15 -73 -15 q-39 0 -73 15 q-34 15 -59.5 40.5 q-25.5 25.5 -40 59.5 q-14.5 34 -14.5 73 Z" /><glyph glyph-name="ellipsis" unicode="&#x2026;" d="M70 148 l154 0 l0 -148 l-154 0 l0 148 ZM414 148 l154 0 l0 -148 l-154 0 l0 148 ZM758 148 l154 0 l0 -148 l-154 0 l0 148 Z" /><glyph glyph-name="perthousand" unicode="&#x2030;" d="M50 628 q0 60 32 96 q32 36 110 36 q78 0 110.5 -36 q32.5 -36 32.5 -96 l0 -154 q0 -63 -32.5 -100.5 q-32.5 -37.5 -110.5 -37.5 q-78 0 -110 37.5 q-32 37.5 -32 100.5 l0 154 ZM155 458 q0 -23 8.5 -36.5 q8.5 -13.5 28.5 -13.5 q20 0 28.5 13.5 q8.5 13.5 8.5 36.5 l0 181 q0 50 -37 50 q-37 0 -37 -50 l0 -181 ZM213 -24 l-70 0 l442 798 l70 0 l-442 -798 ZM462 280 q0 60 32 96 q32 36 110 36 q78 0 110.5 -36 q32.5 -36 32.5 -96 l0 -154 q0 -63 -32.5 -100.5 q-32.5 -37.5 -110.5 -37.5 q-78 0 -110 37.5 q-32 37.5 -32 100.5 l0 154 ZM567 110 q0 -23 8.5 -36.5 q8.5 -13.5 28.5 -13.5 q20 0 28.5 13.5 q8.5 13.5 8.5 36.5 l0 181 q0 50 -37 50 q-37 0 -37 -50 l0 -181 ZM809 280 q0 60 32 96 q32 36 110 36 q78 0 110.5 -36 q32.5 -36 32.5 -96 l0 -154 q0 -63 -32.5 -100.5 q-32.5 -37.5 -110.5 -37.5 q-78 0 -110 37.5 q-32 37.5 -32 100.5 l0 154 ZM914 110 q0 -23 8.5 -36.5 q8.5 -13.5 28.5 -13.5 q20 0 28.5 13.5 q8.5 13.5 8.5 36.5 l0 181 q0 50 -37 50 q-37 0 -37 -50 l0 -181 Z" /><glyph glyph-name="guilsinglleft" unicode="&#x2039;" d="M214 491 l68 -72 l-131 -147 l131 -149 l-68 -71 l-199 220 l199 219 Z" /><glyph glyph-name="guilsinglright" unicode="&#x203a;" d="M307 272 l-199 -220 l-68 71 l131 149 l-131 147 l68 72 l199 -219 Z" /><glyph glyph-name="fraction" unicode="&#x2044;" d="M-84 -24 l-97 0 l441 798 l97 0 l-441 -798 Z" /><glyph glyph-name="Euro" unicode="&#x20ac;" d="M401 560 q0 48 -17.5 73.5 q-17.5 25.5 -53.5 25.5 q-36 0 -53.5 -25.5 q-17.5 -25.5 -17.5 -73.5 l0 -74 l141 0 l0 -72 l-141 0 l0 -65 l141 0 l0 -72 l-141 0 l0 -86 q0 -45 16.5 -72.5 q16.5 -27.5 54.5 -27.5 q38 0 54.5 27.5 q16.5 27.5 16.5 72.5 l0 29 l144 0 q0 -50 -10.5 -93 q-10.5 -43 -35.5 -74.5 q-25 -31.5 -66.5 -49.5 q-41.5 -18 -102.5 -18 q-63 0 -106.5 17.5 q-43.5 17.5 -70.5 49.5 q-27 32 -39.5 77 q-12.5 45 -12.5 101 l0 47 l-61 0 l0 72 l61 0 l0 65 l-61 0 l0 72 l61 0 l0 46 q0 53 12.5 96 q12.5 43 39.5 73.5 q27 30.5 70.5 47 q43.5 16.5 106.5 16.5 q61 0 102.5 -17 q41.5 -17 66.5 -47.5 q25 -30.5 35.5 -72 q10.5 -41.5 10.5 -90.5 l-144 0 l0 22 Z" /><glyph glyph-name="trademark" unicode="&#x2122;" d="M134 702 l-74 0 l0 47 l218 0 l0 -47 l-73 0 l0 -224 l-71 0 l0 224 ZM575 654 l-1 0 l-66 -176 l-45 0 l-65 176 l-2 0 l0 -176 l-65 0 l0 271 l92 0 l64 -176 l65 176 l87 0 l0 -271 l-64 0 l0 176 Z" /><glyph glyph-name="minus" unicode="&#x2212;" d="M47 212 l0 123 l537 0 l0 -123 l-537 0 Z" /><glyph glyph-name="fi" unicode="&#xfb01;" d="M215 529 l266 0 l0 -529 l-149 0 l0 433 l-117 0 l0 -433 l-148 0 l0 433 l-57 0 l0 96 l57 0 l0 45 q0 47 14 81 q14 34 40 56.5 q26 22.5 62 33 q36 10.5 80 10.5 q19 0 37 -1.5 q18 -1.5 26 -3.5 l0 -105 q-9 2 -18.5 3 q-9.5 1 -23.5 1 q-35 0 -52 -18.5 q-17 -18.5 -17 -50.5 l0 -51 Z" /><glyph glyph-name="fl" unicode="&#xfb02;" d="M10 529 l57 0 l0 28 q0 44 11.5 80.5 q11.5 36.5 35.5 62.5 q24 26 60 40.5 q36 14.5 84 14.5 q21 0 41 -1.5 q20 -1.5 37 -3.5 l147 0 l0 -750 l-149 0 l0 649 q-25 5 -49 5 q-35 0 -52.5 -19.5 q-17.5 -19.5 -17.5 -63.5 l0 -42 l63 0 l0 -96 l-63 0 l0 -433 l-148 0 l0 433 l-57 0 l0 96 Z" /></font>
</defs>
</svg>
